<?xml version="1.0" encoding="UTF-8" standalone="no"?>
<!-- Created with Inkscape (http://www.inkscape.org/) -->

<svg
   xmlns:dc="http://purl.org/dc/elements/1.1/"
   xmlns:cc="http://creativecommons.org/ns#"
   xmlns:rdf="http://www.w3.org/1999/02/22-rdf-syntax-ns#"
   xmlns:svg="http://www.w3.org/2000/svg"
   xmlns="http://www.w3.org/2000/svg"
   xmlns:sodipodi="http://sodipodi.sourceforge.net/DTD/sodipodi-0.dtd"
   xmlns:inkscape="http://www.inkscape.org/namespaces/inkscape"
   width="1062.6984"
   height="878.56677"
   id="svg2"
   sodipodi:version="0.32"
   inkscape:version="0.92.1 r15371"
   version="1.0"
   sodipodi:docname="Idf_Yvelines.svg"
   inkscape:output_extension="org.inkscape.output.svg.inkscape">
  <defs
     id="defs4" />
  <sodipodi:namedview
     id="base"
     pagecolor="#ffffff"
     bordercolor="#666666"
     borderopacity="1.0"
     inkscape:pageopacity="0.0"
     inkscape:pageshadow="2"
     inkscape:zoom="1.3791949"
     inkscape:cx="452.33977"
     inkscape:cy="523.72085"
     inkscape:document-units="px"
     inkscape:current-layer="layer7"
     showguides="true"
     inkscape:guide-bbox="true"
     inkscape:window-width="1919"
     inkscape:window-height="1035"
     inkscape:window-x="-8"
     inkscape:window-y="-8"
     width="1100px"
     height="1050px"
     showgrid="false"
     inkscape:window-maximized="0" />
  <metadata
     id="metadata7">
    <rdf:RDF>
      <cc:Work
         rdf:about="">
        <dc:format>image/svg+xml</dc:format>
        <dc:type
           rdf:resource="http://purl.org/dc/dcmitype/StillImage" />
      </cc:Work>
    </rdf:RDF>
  </metadata>
  <g
     inkscape:groupmode="layer"
     id="layer7"
     inkscape:label="Fond couleur"
     style="display:inline"
     transform="translate(-52.487877,-186.85774)">
    <path
       style="display:inline;fill:none;fill-rule:evenodd;stroke:#000000;stroke-width:3;stroke-linecap:butt;stroke-linejoin:miter;stroke-miterlimit:4;stroke-dasharray:none;stroke-opacity:1"
       d="m 250.87862,235.33399 0.83358,12.50367 -13.33724,10.00293 -1.66716,20.83944 1.66716,8.33578 -8.33578,20.00586 3.33431,4.16789 -17.36755,23.36195 2.35771,16.84927 -10.60971,0.83358 -1.17886,-7.07314 -11.19914,4.126 -14.14628,7.66257 -14.14628,-1.17886 -4.71543,-7.07314 -0.58943,15.32514 -11.78856,5.30486 -11.19914,-11.19914 -0.58943,22.39828 12.37799,16.50399 -11.78856,16.504 1.17885,5.30485 20.63,-3.53657 2.35771,4.71543 -8.252,7.66257 8.252,30.65028 h 8.84143 l 15.32514,25.93485 -7.07315,9.43085 14.73572,10.60972 -0.58943,10.02028 8.252,4.126 -7.66257,20.62999 1.17885,31.82914 19.45114,12.37799 -22.39828,32.41857 12.96743,11.78857 -2.94715,14.14628 6.48372,10.02028 12.37799,0.58943 10.02029,21.80885 22.9877,8.84143 -4.71542,19.45114 24.75599,4.126 11.19914,17.09342 -1.76828,13.55685 0.58942,18.86171 12.96743,22.98771 11.19914,-3.53657 5.30486,20.04057 25.34542,5.30485 10.60971,-12.96742 10.60971,8.84142 -6.48371,27.11371 22.98771,2.94714 4.126,28.882 -8.84143,11.19914 2.94714,6.48371 -8.84142,19.45114 11.78856,14.14628 32.41857,0.58943 5.30485,-6.48372 14.14628,-0.58942 v -2.94715 l 1.76829,-5.30485 6.48371,6.48371 20.04057,-1.17886 v -8.84142 h 11.78857 l 12.37799,-18.86171 18.27229,5.30485 -0.58943,23.57714 24.16656,-7.66257 8.252,-12.378 4.71543,-4.12599 2.35771,5.30485 14.14628,12.378 20.63,-0.58943 10.02028,11.78857 -3.53657,11.19914 4.126,15.91457 25.34542,0.58942 -1.76828,8.84143 16.50399,2.94714 7.07314,27.11371 -6.48371,21.21942 -1.76828,7.66257 -10.02029,-5.89428 -18.86171,26.52424 4.126,5.3049 5.30486,-7.0732 h 27.11371 l 2.94714,-4.7154 18.86171,-0.5894 v 2.9471 h 18.86171 l 12.96742,-6.4837 11.78857,12.378 c 0,0 17.09343,-1.7683 19.45114,-1.7683 2.35771,0 22.39828,-13.5568 22.39828,-13.5568 l -7.66257,-13.55687 h 37.13399 l -6.48371,19.45117 10.60971,5.3048 24.75599,-20.04054 27.11371,-4.126 0.58943,-14.73571 15.91457,-8.252 v -7.07314 l 14.73571,-5.89428 11.78857,-20.63 7.07314,-7.07314 0.58942,-12.96743 -8.25199,-2.94714 -4.71543,-24.16656 9.43085,-12.96743 4.71543,-20.04057 27.11371,7.66257 6.48371,-12.96742 12.96743,-5.89429 12.96742,-1.17885 4.71543,5.89428 33.00803,-0.58943 11.7885,-11.78856 39.49167,6.48371 -0.5894,-18.27228 21.8088,5.30485 3.5366,-17.68285 -12.9674,-8.252 7.6625,-19.45114 -14.1463,-17.68285 25.3455,-8.84143 -1.1789,-7.07314 -2.9471,-8.25199 -8.8415,-7.07315 6.4837,-8.25199 11.7886,5.30485 18.8617,-15.91456 -10.0203,-14.73572 12.9675,-13.55685 8.8414,-1.17886 -5.3049,-9.43085 25.3455,-8.252 -5.8943,-10.60971 -10.6097,-2.35771 3.5365,-6.48372 -13.5568,-3.53657 -19.4512,11.19914 -1.1788,-16.50399 -4.126,-2.94715 v -10.60971 l 11.1991,-7.66257 -0.5894,-27.1137 -1.7683,-7.66257 -14.1463,-0.58943 v -12.378 h -20.0405 l 5.8943,-18.27228 14.7357,-2.94714 v -12.378 l -14.7357,-0.58943 1.7682,-7.07314 13.5569,2.35772 20.63,-4.126 -0.5894,-28.29257 -19.4512,8.84143 1.7683,-11.78857 -10.0203,-5.89428 -9.4308,1.17885 -11.7886,-5.89428 0.5894,-8.252 -5.3048,-2.94714 -0.5895,-27.11371 -18.8617,15.32514 -7.07307,-5.89428 -5.3048,-20.04057 -17.0934,8.252 -7.6626,-13.55686 -1.7683,-12.96742 -10.6097,-2.35772 -1.17886,-11.78856 -28.88199,-20.04057 12.37799,-17.68285 -13.55685,-21.80885 v -12.96743 l -40.67056,-10.60971 -7.07314,8.84142 2.35771,13.55686 -27.70314,-5.30486 -7.66257,13.55686 -3.53657,-1.17886 -4.12599,-11.78857 -12.378,1.17886 0.58943,7.07314 -22.39828,-2.94714 -17.09343,10.02028 -7.07314,-9.43085 h -8.252 l -8.84142,-8.84143 -15.32514,9.43085 3.53657,5.89429 -18.27228,8.84142 -8.252,-13.55685 -10.02028,12.378 -13.55686,-22.39828 -17.68285,-7.07314 -20.04057,17.09342 -17.09342,-18.86171 v -8.84143 h -8.252 l -1.17886,13.55686 -19.45113,-4.126 5.30485,-8.84143 -21.21942,-15.91456 -8.252,8.25199 v -12.37799 l -8.84143,-3.53657 -14.14628,0.58942 -6.48371,-5.89428 -7.66257,5.89428 -16.504,-23.57713 -9.43085,0.58943 -9.43086,18.86171 -14.73571,2.94714 -13.55685,2.35771 5.89428,-9.43085 -7.07314,-11.19914 -22.39828,12.96742 -3.53657,-4.126 v -7.66257 l -5.30485,-5.89428 -24.16657,-2.35771 -2.94714,-10.60972 -6.48371,-2.94714 -22.98771,12.96743 -14.73571,11.78857 -10.60971,-6.48372 -14.14629,11.19914 -5.30485,-4.126 -19.45114,7.66257 -4.126,-7.07314 -16.50399,2.94714 -18.27229,-12.37799 -11.19914,-0.58943 -7.66257,5.89428 -8.25199,-2.35771 -10.02029,-15.32514 7.07314,-8.84143 1.17886,-7.66257 -9.43085,-3.53657 v -5.89428 z"
       id="path16590"
       sodipodi:nodetypes="ccccccccccccccccccccccccccccccccccccccccccccccccccccccccccccccccccccccccccccccccccccccccccccccccccsccccccccccccccccccccccccccccccccccccccccccccccccccccccccccccccccccccccccccccccccccccccccccccccccccccccccccccccccccccccccccccccccccccccccccccccccccccccccc"
       inkscape:connector-curvature="0" />
    <path
       id="path16616"
       style="display:inline;fill:#e3dedb;fill-opacity:0.96341463;fill-rule:evenodd;stroke:#000000;stroke-width:2;stroke-linecap:butt;stroke-linejoin:miter;stroke-miterlimit:4;stroke-opacity:1"
       d="m 659.25612,349.28722 -17.09343,-18.86171 v -8.84143 h -8.252 l -1.17886,13.55686 -19.45113,-4.126 5.30485,-8.84143 -21.21942,-15.91456 -8.252,8.25199 v -12.37799 l -8.84143,-3.53657 -14.14628,0.58942 -6.48371,-5.89428 -7.66257,5.89428 -16.504,-23.57713 -9.43085,0.58943 -9.43086,18.86171 -14.73571,2.94714 -13.55685,2.35771 5.89428,-9.43085 -7.07314,-11.19914 -22.39828,12.96742 -3.53657,-4.126 v -7.66257 l -5.30485,-5.89428 -24.16657,-2.35771 -2.94714,-10.60972 -6.48371,-2.94714 -22.98771,12.96743 -14.73571,11.78857 -10.60971,-6.48372 -14.14629,11.19914 -5.30485,-4.126 -19.45114,7.66257 -4.126,-7.07314 -16.50399,2.94714 -18.27229,-12.37799 -11.19914,-0.58943 -7.66257,5.89428 -8.25199,-2.35771 -10.02029,-15.32514 7.07314,-8.84143 1.17886,-7.66257 -9.43085,-3.53657 v -5.89428 l -6.97674,-1.96183 0.83358,12.50367 -13.33724,10.00293 -1.66716,20.83944 1.66716,8.33578 -8.33578,20.00586 3.33431,4.16789 -17.36755,23.36195 2.37559,16.86715 c 15.33547,-6.3602 32.76792,1.91478 30.04297,14.37256 l 6.48371,4.126 h 11.78857 l 3.53657,1.76828 8.84143,-10.02028 4.71543,4.126 h 8.252 v -7.66257 l 16.50399,-7.07314 8.84143,12.37799 7.66257,2.94714 -3.53657,18.86171 6.48371,10.60972 7.07314,-1.76829 v -11.78857 l 11.19914,-8.252 11.78857,15.32514 14.73571,-2.94714 2.35771,9.43086 1.76829,1.76828 8.84142,-4.126 12.378,14.73571 15.32514,-2.94714 h 10.02028 l 4.71543,-10.60971 11.19914,5.30485 4.126,-4.12599 1.76829,8.25199 -0.58943,8.252 c 26.62928,1.85743 28.54998,15.70371 25.34542,25.34542 l 11.19914,0.58943 0.58943,24.16657 -6.06692,7.5405 c 9.27574,-0.66427 24.23243,-22.73108 44.96919,-28.1705 v -6.48371 l 6.48372,-5.89428 10.02028,8.25199 h 5.89428 l 2.94715,-8.25199 5.89428,-0.58943 1.17886,-4.71543 11.19914,1.17886 13.55685,11.19914 7.07314,-2.35772 8.84143,4.126 4.71543,-0.58943 8.25199,-11.19914 6.48372,-1.76828 17.68285,-11.19914 5.30485,-12.378 h 8.84143 l 0.38104,-5.09646 -7.45418,-0.20839 -1.17886,-7.07315 10.60971,-1.76828 7.66257,-15.32514 h 5.30486 v -7.07314 l -8.84143,-0.58943 1.17886,-3.53657 z"
       sodipodi:nodetypes="ccccccccccccccccccccccccccccccccccccccccccccccccccccccccccccccccccccccccccccccccccccccccccccccccccccccccccccccccccc"
       inkscape:connector-curvature="0" />
    <path
       id="path16598"
       style="display:inline;fill:#e3dedb;fill-opacity:1;fill-rule:evenodd;stroke:#000000;stroke-width:2;stroke-linecap:butt;stroke-linejoin:miter;stroke-miterlimit:4;stroke-opacity:1"
       d="m 350.10091,787.52725 -10.315,13.26214 -25.34542,-5.30485 -5.30486,-20.04057 -11.19914,3.53657 -12.96743,-22.98771 -0.58942,-18.86171 1.76828,-13.55685 -11.19914,-17.09342 -24.75599,-4.126 4.71542,-19.45114 -22.9877,-8.84143 -10.02029,-21.80885 -12.37799,-0.58943 -6.48372,-10.02028 2.94715,-14.14628 -12.96743,-11.78857 22.39828,-32.41857 -19.45114,-12.37799 -1.17885,-31.82914 7.66257,-20.62999 -8.252,-4.126 0.58943,-10.02028 -14.73572,-10.60972 7.07315,-9.43085 -15.32514,-25.93485 h -8.84143 l -8.252,-30.65028 8.252,-7.66257 -2.35771,-4.71543 -20.63,3.53657 -1.17885,-5.30485 11.78856,-16.504 -12.37799,-16.50399 0.58943,-22.39828 11.19914,11.19914 11.78856,-5.30486 0.58943,-15.32514 4.71543,7.07314 14.14628,1.17886 14.14628,-7.66257 11.19914,-4.126 1.17886,7.07314 10.64546,-0.79782 c 15.3176,-6.37808 32.75005,1.8969 30.0251,14.35468 l 6.48371,4.126 h 11.78857 l 3.53657,1.76828 8.84143,-10.02028 4.71543,4.126 h 8.252 v -7.66257 l 16.50399,-7.07314 8.84143,12.37799 7.66257,2.94714 -3.53657,18.86171 6.48371,10.60972 7.07314,-1.76829 v -11.78857 l 11.19914,-8.252 11.78857,15.32514 14.73571,-2.94714 2.35771,9.43086 1.76829,1.76828 8.84142,-4.126 12.378,14.73571 15.32514,-2.94714 h 10.02028 l 4.71543,-10.60971 11.19914,5.30485 4.126,-4.12599 1.76829,8.25199 -0.58943,8.252 c 26.62928,1.85743 28.54998,15.70371 25.34542,25.34542 l 11.19914,0.58943 0.58943,24.16657 -5.65013,7.41842 c -4.74501,-1.2004 -11.70219,9.85233 -18.51644,26.76843 l -1.76828,33.00799 12.37799,4.71543 6.48372,14.14628 8.84142,1.76828 0.58943,3.53657 7.07314,2.94715 0.58943,5.89428 -4.126,1.76829 -2.94714,3.53657 -2.35771,-1.76829 h -3.53657 l -0.58943,8.84143 -2.94714,4.126 -8.84143,-3.53657 -4.126,7.07314 -4.71543,-3.53657 -10.02028,9.43085 h -8.252 l -3.53657,5.89428 5.30486,12.378 -9.43086,14.14628 h -4.126 l -3.53657,7.07314 -15.32514,-1.76828 -5.89428,17.09342 -11.19914,1.76829 v 8.252 l 4.71543,5.30485 h 7.07314 l 1.17885,12.96743 10.02029,6.48371 -3.53657,7.07314 h -6.48372 l -1.17885,4.71543 4.126,5.89428 -8.84143,7.07314 -3.53657,7.07315 2.35771,5.89428 -2.35771,3.53657 -4.71543,-0.58943 -4.126,1.76829 -1.76828,-3.53657 -1.76829,2.35771 -5.89428,0.58943 -3.53657,-4.71543 -9.43086,0.58943 -1.17885,-2.35771 h -3.53657 l -2.94715,2.94714 v 6.48371 l 7.66257,7.66257 3.53657,2.94714 0.58943,5.89429 -20.62999,32.41856 z"
       sodipodi:nodetypes="ccccccccccccccccccccccccccccccccccccccccccccccccccccccccccccccccccccccccccccccccccccccccccccccccccccccccccccccccccccccccccccccccccccc"
       inkscape:connector-curvature="0" />
    <path
       id="path16596"
       style="display:inline;fill:#c8beb7;fill-opacity:1;fill-rule:evenodd;stroke:#000000;stroke-width:2;stroke-linecap:butt;stroke-linejoin:miter;stroke-miterlimit:4;stroke-opacity:1"
       d="m 537.53914,474.24605 -4.42071,-8.252 c 24.07724,-19.02383 -0.15237,-28.0521 -12.50007,-23.83611 -20.82308,5.31735 -36.40495,27.80095 -44.63872,27.75372 -6.37477,-0.40049 -14.13286,16.0394 -18.30805,26.73267 l -1.76828,33.00799 12.37799,4.71543 6.48372,14.14628 8.84142,1.76828 0.58943,3.53657 7.07314,2.94715 0.5031,5.89428 3.03347,2.35771 0.58943,4.126 5.30486,5.30486 h 11.19914 l 10.02028,8.84142 -4.71543,3.53658 v 4.12599 l 3.53657,0.58943 5.30486,-3.53657 0.58943,8.252 h 5.89428 l 0.58943,-10.02028 3.53657,-5.89429 -3.53657,-2.94714 4.126,-13.55685 1.17886,-7.07314 -2.35772,-2.35772 v -9.43085 l 3.68393,-8.10464 -20.77735,-8.98879 -14.73571,-10.60971 v -4.71543 l -13.55686,-2.35771 11.19914,-19.45114 15.32514,-1.17885 12.378,-12.96743 8.252,-2.35771"
       sodipodi:nodetypes="ccccccccccccccccccccccccccccccccccccccc"
       inkscape:connector-curvature="0" />
    <path
       style="display:inline;fill:#ac9d93;fill-opacity:1;fill-rule:evenodd;stroke:#000000;stroke-width:2;stroke-linecap:butt;stroke-linejoin:miter;stroke-miterlimit:4;stroke-dasharray:none;stroke-opacity:1"
       d="m 517.20386,489.57119 -15.32514,1.17885 -11.19914,19.45114 13.55686,2.35771 v 4.71543 l 14.73571,10.60971 20.62999,8.84143 19.45114,0.58943 16.504,-10.02029 3.53657,2.94715 20.62999,3.53657 5.89429,-11.19914 v -3.53657 l -4.71543,-3.53657 h -15.91457 l -0.58943,7.66257 h -5.30485 v -2.35772 l 1.76828,-22.39828 -9.43085,-17.68285 -1.76829,-7.07314 -31.82913,0.58943 -8.252,2.35771 z"
       id="path16594"
       inkscape:connector-curvature="0" />
    <path
       id="path16600"
       style="display:inline;fill:#e3dedb;fill-opacity:0.96341463;fill-rule:evenodd;stroke:#000000;stroke-width:2;stroke-linecap:butt;stroke-linejoin:miter;stroke-miterlimit:4;stroke-opacity:1"
       d="m 491.77211,562.66031 3.03347,2.35771 0.58943,4.126 5.30486,5.30486 h 11.19914 l 10.02028,8.84142 -4.71543,3.53658 v 4.12599 l 3.53657,0.58943 5.30486,-3.53657 0.58943,8.252 h 5.89428 l 0.58943,-10.02028 3.38921,-5.89429 h 5.45222 l 3.53657,5.30486 h 10.60971 l 3.53657,3.53657 0.58943,15.61985 2.35771,-1.76828 5.89429,-0.29472 3.32189,-2.30043 h 6.25183 l 1.66716,3.33431 h 11.25329 l 2.50074,2.50074 h 3.33431 l 0.83358,-5.41826 25.42411,-9.58614 5.83505,15.0044 2.91752,2.08394 0.41679,6.25183 3.33431,4.58468 4.16789,0.83358 2.50073,3.7511 13.33724,-0.83358 1.66716,6.25183 -3.33431,2.08395 v 7.08541 l -4.58468,-0.41679 -2.50073,-4.16789 -2.08395,-0.83358 -10.00293,13.75403 5.00147,5.41826 -0.41679,5.00147 -2.08394,5.00146 -7.08541,1.25037 v 7.91899 l 8.33577,7.50219 1.25037,10.00294 -10.41972,8.75256 0.41679,14.17082 -11.2533,12.08688 0.41679,2.91752 h 2.91752 v 5.83504 l -2.50073,2.08395 -0.83358,4.16789 -2.91752,1.66715 1.66715,3.7511 h 6.66862 l 0.41679,5.41826 2.50073,2.08394 -0.41678,5.83504 -2.50074,5.00147 -2.08394,0.83358 0.83358,3.33431 h -3.7511 l 2.91752,20.42265 0.41679,19.58908 3.7511,1.25036 8.75256,8.33578 5.83505,8.75257 h -5.83505 l -2.08394,-1.66716 -3.7511,-0.41679 -5.83505,6.66862 -2.08394,2.50074 -2.08394,-1.66716 h -8.75257 l -1.66715,4.58468 5.41825,5.00146 -6.66862,5.41826 h -9.16936 v 3.33431 l -5.41825,2.91752 -2.91752,2.50073 5.41825,4.58468 -0.41679,2.08395 h -4.16788 l -0.83358,11.67008 -15.83798,-0.41679 -4.16789,6.66863 5.41826,6.66862 -0.19044,6.09221 -20.61205,0.53401 -14.14628,-12.378 -2.35771,-5.30485 -4.71543,4.12599 -8.252,12.378 -24.16656,7.66257 0.58943,-23.57714 -18.27229,-5.30485 -12.37799,18.86171 h -11.78857 v 8.84142 l -20.04057,1.17886 -6.48371,-6.48371 -1.76829,5.30485 v 2.94715 l -14.14628,0.58942 -5.30485,6.48372 -32.41857,-0.58943 -11.78856,-14.14628 8.84142,-19.45114 -2.94714,-6.48371 8.84143,-11.19914 -4.126,-28.882 -22.98771,-2.94714 6.48371,-27.11371 -10.75706,-8.98878 -2.79979,-15.76721 20.62999,-32.41856 -0.58943,-5.89429 -3.53657,-2.94714 -7.66257,-7.66257 v -6.48371 l 2.94715,-2.94714 h 3.53657 l 1.17885,2.35771 9.43086,-0.58943 3.53657,4.71543 5.89428,-0.58943 1.76829,-2.35771 1.76828,3.53657 4.126,-1.76829 4.71543,0.58943 2.35771,-3.53657 -2.35771,-5.89428 3.53657,-7.07315 8.84143,-7.07314 -4.126,-5.89428 1.17885,-4.71543 h 6.48372 l 3.53657,-7.07314 -10.02029,-6.48371 -1.17885,-12.96743 h -7.07314 l -4.71543,-5.30485 v -8.252 l 11.19914,-1.76829 5.89428,-17.09342 15.32514,1.76828 3.53657,-7.07314 h 4.126 l 9.43086,-14.14628 -5.30486,-12.378 3.53657,-5.89428 h 8.252 l 10.02028,-9.43085 4.71543,3.53657 4.126,-7.07314 8.84143,3.53657 2.94714,-4.126 0.58943,-8.84143 h 3.53657 l 2.35771,1.76829 2.94714,-3.53657 4.126,-1.76829"
       sodipodi:nodetypes="ccccccccccccccccccccccccccccccccccccccccccccccccccccccccccccccccccccccccccccccccccccccccccccccccccccccccccccccccccccccccccccccccccccccccccccccccccccccccccccccccccccccccc"
       inkscape:connector-curvature="0" />
    <path
       id="path16604"
       style="display:inline;fill:#e3dedb;fill-opacity:0.96341463;fill-rule:evenodd;stroke:#000000;stroke-width:2;stroke-linecap:butt;stroke-linejoin:miter;stroke-miterlimit:4;stroke-opacity:1"
       d="m 574.95888,891.58908 0.18146,-6.0645 -5.41826,-6.66862 4.16789,-6.66863 15.83798,0.41679 0.83358,-11.67008 h 4.16788 l 0.41679,-2.08395 -5.41825,-4.58468 2.91752,-2.50073 5.41825,-2.91752 v -3.33431 h 9.16936 l 6.66862,-5.41826 -5.41825,-5.00146 1.66715,-4.58468 h 8.75257 l 2.08394,1.66716 2.08394,-2.50074 5.83505,-6.66862 3.7511,0.41679 2.08394,1.66716 h 5.83505 l -5.83505,-8.75257 -8.75256,-8.33578 -3.7511,-1.25036 -0.41679,-19.58908 -2.91752,-20.42265 h 3.7511 l -0.83358,-3.33431 2.08394,-0.83358 2.50074,-5.00147 0.41678,-5.83504 -2.50073,-2.08394 -0.41679,-5.41826 h -6.66862 l -1.66715,-3.7511 2.91752,-1.66715 0.83358,-4.16789 2.50073,-2.08395 v -5.83504 h -2.91752 l -0.41679,-2.91752 11.2533,-12.08688 -0.41679,-14.17082 10.41972,-8.75256 -1.25037,-10.00294 -8.33577,-7.50219 v -7.91899 l 7.08541,-1.25037 2.08394,-5.00146 0.41679,-5.00147 -5.00147,-5.41826 10.00293,-13.75403 2.08395,0.83358 2.50073,4.16789 4.58468,0.41679 v -7.08541 l 3.33431,-2.08395 -1.77135,-6.35602 -0.31259,-5.73085 -5.00147,-4.16789 12.50366,-17.92192 v -3.7511 l -4.16788,-0.83358 0.41678,-4.16789 6.66863,-4.58467 -2.08395,-7.08541 7.08541,-0.41679 -4.58467,-7.5022 h -7.5022 l 1.25036,-10.41972 3.7511,-2.91752 1.25037,-7.91899 -1.44266,-8.16645 -0.5146,-9.37441 -3.53657,-4.126 -2.94714,-8.25199 -1.76828,-8.252 h 4.71542 v -5.89429 h -7.66257 l -0.58942,-14.14628 -3.53658,-1.17886 11.78857,-5.30485 -0.58943,-19.45114 9.43086,-8.252 c 0,0 0,1.76829 0,-5.30485 0,-7.07314 -4.71543,0 -4.71543,0 l -3.53657,-10.60971 -10.60971,-17.68286 6.48371,-2.35771 1.76829,-5.30486 -7.07314,-15.32514 -4.86278,-0.44207 -7.51522,-0.14735 -1.17886,-7.07315 10.60971,-1.76828 7.66257,-15.32514 h 5.30486 v -7.07314 l -8.84143,-0.58943 1.17886,-3.53657 6.48371,-11.19913 20.04057,-17.09343 17.68285,7.07314 13.55686,22.39828 10.02028,-12.378 8.252,13.55685 18.27228,-8.84142 -3.53657,-5.89429 15.32514,-9.43085 8.84142,8.84143 h 8.252 l 7.07314,9.43085 17.09343,-10.02028 22.39828,2.94714 -0.58943,-7.07314 12.378,-1.17886 4.12599,11.78857 3.53657,1.17886 7.66257,-13.55686 27.70314,5.30486 -2.35771,-13.55686 7.07314,-8.84142 40.67056,10.60971 v 12.96743 l 13.55685,21.80885 -12.37799,17.68285 28.88199,20.04057 1.17886,11.78856 10.60971,2.35772 1.76828,12.96742 7.66257,13.55686 17.09343,-8.252 5.30486,20.04057 7.07312,5.89428 18.8617,-15.32514 0.5895,27.11371 5.3048,2.94714 -0.5894,8.252 11.7886,5.89428 9.4308,-1.17885 10.0203,5.89428 -1.7683,11.78857 19.4512,-8.84143 0.5894,28.29257 -20.63,4.126 -13.5569,-2.35772 -1.7682,7.07314 14.7357,0.58943 v 12.378 l -14.7357,2.94714 -5.8943,18.27228 h 20.0405 v 12.378 l 14.1463,0.58943 1.7683,7.66257 0.5894,27.1137 -11.1991,7.66257 V 639.286 l 4.126,2.94715 1.1788,16.50399 19.4512,-11.19914 13.5568,3.53657 -3.5365,6.48372 10.6097,2.35771 5.8943,10.60971 -25.3455,8.252 5.3049,9.43085 -8.8414,1.17886 -12.9675,13.55685 10.0203,14.73572 -18.8617,15.91456 -11.7886,-5.30485 -6.4837,8.25199 8.8415,7.07315 2.9471,8.25199 1.1789,7.07314 -25.3455,8.84143 14.1463,17.68285 -7.6625,19.45114 12.9674,8.252 -3.5366,17.68285 -21.8088,-5.30485 0.5894,18.27228 -39.49174,-6.48371 -11.78857,11.78856 -33.00799,0.58943 -4.71543,-5.89428 -12.96742,1.17885 -12.96743,5.89429 -6.48371,12.96742 -27.11371,-7.66257 -4.71543,20.04057 -9.43085,12.96743 4.71543,24.16656 8.25199,2.94714 -0.58942,12.96743 -7.07314,7.07314 -11.78857,20.63 -14.73571,5.89428 v 7.07314 l -15.91457,8.252 -0.58943,14.73571 -27.11371,4.126 -24.75599,20.04054 -10.60971,-5.3048 6.48371,-19.45117 h -37.13399 l 7.66257,13.55687 c 0,0 -20.04057,13.5568 -22.39828,13.5568 -2.35771,0 -19.45114,1.7683 -19.45114,1.7683 l -11.78857,-12.378 -12.96742,6.4837 h -18.86171 v -2.9471 l -18.86171,0.5894 -2.94714,4.7155 H 605.0287 l -5.30486,7.0731 -4.126,-5.3049 18.86171,-26.52424 10.02029,5.89428 1.76828,-7.66257 6.48371,-21.21942 -7.07314,-27.11371 -16.50399,-2.94714 1.76828,-8.84143 -25.34542,-0.58942 -4.126,-15.91457 3.53657,-11.19914 z"
       sodipodi:nodetypes="cccccccccccccccccccccccccccccccccccccccccccccccccccccccccccccccccccccccccccccccccccccccscccccccccccccccccccccccccccccccccccccccccccccccccccccccccccccccccccccccccccccccccccccccccccccccccccccccccccccccccccccccccccsccccccccccccccccccccc"
       inkscape:connector-curvature="0" />
    <path
       id="path16588"
       style="display:inline;fill:#c8beb7;fill-opacity:1;fill-rule:evenodd;stroke:#000000;stroke-width:2;stroke-linecap:butt;stroke-linejoin:miter;stroke-miterlimit:4;stroke-opacity:1"
       d="m 520.74043,435.34377 0.17264,6.72786 c 12.26138,-4.33807 36.2826,4.89859 12.20536,23.92242 l 4.42071,8.252 32.12385,-0.58943 1.76829,7.07314 9.43085,17.68285 -0.98437,13.51488 9.8258,0.6314 2.94714,-4.126 c 0,0 2.35772,0 5.30486,0 l 2.94714,-5.30485 h 10.02028 l 5.89429,-1.17886 4.71542,4.126 10.02029,7.66257 3.53657,-0.58943 7.66257,7.07314 1.17885,4.71543 5.30486,2.94714 1.76829,5.30486 12.37799,4.126 -0.58943,-9.43086 -3.53657,-4.126 -2.94714,-8.25199 -1.76828,-8.252 h 4.71542 v -5.89429 h -7.66257 l -0.58942,-14.14628 -3.53658,-1.17886 11.78857,-5.30485 -0.58943,-19.45114 9.43086,-8.252 c 0,0 0,1.76829 0,-5.30485 0,-7.07314 -4.71543,0 -4.71543,0 l -3.53657,-10.60971 -10.60971,-17.68286 6.48371,-2.35771 1.76829,-5.30486 -7.07314,-15.32514 h -4.71543 l -1.09508,4.29864 -9.07118,1.26493 -4.56945,11.52986 -17.68285,11.19914 -6.48372,1.76828 -8.25199,11.19914 -4.71543,0.58943 -8.84143,-4.126 -7.07314,2.35772 -13.55685,-11.19914 -11.19914,-1.17886 -1.17886,4.71543 -5.89428,0.58943 -2.94715,8.25199 h -5.89428 l -10.02028,-8.25199 z"
       sodipodi:nodetypes="ccccccccccccccccccccccccccccccccccscccccccccccccccccccccccc"
       inkscape:connector-curvature="0" />
    <path
       id="path16629"
       style="display:inline;fill:#c8beb7;fill-opacity:1;fill-rule:evenodd;stroke:#000000;stroke-width:2;stroke-linecap:butt;stroke-linejoin:miter;stroke-miterlimit:4;stroke-opacity:1"
       d="m 655.37219,622.73922 -13.12885,1.04197 -2.50073,-3.7511 -4.16789,-0.83358 -3.33431,-4.58468 -0.41679,-6.25183 -2.91752,-2.08394 -5.83505,-15.0044 -25.42411,9.58614 -0.83358,5.41826 h -3.33431 l -2.50074,-2.50074 h -11.25329 l -1.66716,-3.33431 h -6.25183 l -3.32189,2.30043 -5.89429,0.29472 -2.35771,1.76828 -0.58943,-15.61985 -3.53657,-3.53657 h -10.60971 l -3.53657,-5.30486 h -5.37854 l -3.46289,-2.94714 4.126,-13.55685 1.17886,-7.07314 -2.35772,-2.35772 v -9.43085 l 3.61025,-8.17832 19.37746,0.51575 16.504,-10.02029 3.53657,2.94715 20.62999,3.53657 5.89429,-11.19914 v -3.53657 l -4.71543,-3.53657 h -15.91457 l -0.58943,7.66257 h -5.30485 v -2.35772 l 0.73635,-8.80397 9.87336,0.55197 2.94714,-4.126 c 0,0 2.35772,0 5.30486,0 l 2.94714,-5.30485 h 10.02028 l 5.89429,-1.17886 4.71542,4.126 10.02029,7.66257 3.53657,-0.58943 7.66257,7.07314 1.17885,4.71543 5.30486,2.94714 1.76829,5.30486 12.22832,4.01311 1.5175,8.22289 -1.25037,7.91899 -3.7511,2.91752 -1.25036,10.41972 h 7.5022 l 4.58467,7.5022 -7.08541,0.41679 2.08395,7.08541 -6.66863,4.58467 -0.41678,4.16789 4.16788,0.83358 v 3.7511 l -12.50366,17.92192 5.00147,4.16789 z"
       sodipodi:nodetypes="cccccccccccccccccccccccccccccccccccccccccccccccccccccccccccccccccccccc"
       inkscape:connector-curvature="0" />
    <path
       id="path3469"
       style="fill:none;fill-opacity:1;fill-rule:evenodd;stroke:none;stroke-width:2;stroke-linecap:butt;stroke-linejoin:miter;stroke-miterlimit:4;stroke-opacity:1"
       d="m 659.25612,349.28723 20.04056,-17.09343 17.68285,7.07314 13.55686,22.39828 10.02028,-12.378 8.252,13.55685 18.27228,-8.84142 -3.53657,-5.89429 15.32514,-9.43085 8.84142,8.84143 h 8.252 l 7.07314,9.43085 17.09343,-10.02028 22.39828,2.94714 -0.58943,-7.07314 12.378,-1.17886 4.12599,11.78857 3.53657,1.17886 7.66257,-13.55686 27.70314,5.30486 -2.35771,-13.55686 7.07314,-8.84142 40.67056,10.60971 v 12.96743 l 13.55685,21.80885 -12.37799,17.68285 28.88199,20.04057 1.17886,11.78856 10.60971,2.35772 1.76828,12.96742 7.66257,13.55686 17.09343,-8.252 5.30486,20.04057 7.07302,5.89428 18.8618,-15.32514 0.5894,27.11371 5.3049,2.94714 -0.5894,8.252 11.7886,5.89428 9.4307,-1.17885 10.0204,5.89428 -1.7683,11.78857 19.3945,-9.13654 35.0996,-20.21699 0.1421,-292.14011 -828.21827,-0.97512 13.62305,13.03711 v 15.23437 l -18.75,4.6875 -5.85937,-10.54687 -14.0625,-8.20313 -12.89063,10.54688 5.27664,22.55392 6.97994,1.66419 v 5.89428 l 9.43085,3.53657 -1.17886,7.66257 -7.07314,8.84143 10.02029,15.32514 8.25199,2.35771 7.66257,-5.89428 11.19914,0.58943 18.27229,12.37799 16.50399,-2.94714 4.126,7.07314 19.45114,-7.66257 5.30485,4.126 14.14629,-11.19914 10.60971,6.48372 14.73571,-11.78857 22.98771,-12.96743 6.48371,2.94714 2.94714,10.60972 24.16657,2.35771 5.30485,5.89428 v 7.66257 l 3.53657,4.126 22.39828,-12.96742 7.07314,11.19914 -5.89428,9.43085 13.55685,-2.35771 14.73571,-2.94714 9.43086,-18.86171 9.43085,-0.58943 16.504,23.57713 7.66257,-5.89428 6.48371,5.89428 14.14628,-0.58942 8.84143,3.53657 v 12.37799 l 8.252,-8.25199 21.21942,15.91456 -5.30485,8.84143 19.45113,4.126 1.17886,-13.55686 h 8.252 v 8.84143 z"
       sodipodi:nodetypes="cccccccccccccccccccccccccccccccccccccccccccccccccccccccccccccccccccccccccccccccccccccccccccccccccc"
       inkscape:connector-curvature="0" />
    <path
       id="path6393"
       style="display:inline;fill:none;fill-opacity:1;fill-rule:evenodd;stroke:#000000;stroke-width:2;stroke-linecap:butt;stroke-linejoin:miter;stroke-miterlimit:4;stroke-opacity:1"
       d="m 283.53823,188.32185 13.62305,13.03711 v 15.23437 l -18.75,4.6875 -5.85937,-10.54687 -14.0625,-8.20313 -12.89063,10.54688 5.27664,22.55392 6.97994,1.66419 v 5.89428 l 9.43085,3.53657 -1.17886,7.66257 -7.07314,8.84143 10.02029,15.32514 8.25199,2.35771 7.66257,-5.89428 11.19914,0.58943 18.27229,12.37799 16.50399,-2.94714 4.126,7.07314 19.45114,-7.66257 5.30485,4.126 14.14629,-11.19914 10.60971,6.48372 14.73571,-11.78857 22.98771,-12.96743 6.48371,2.94714 2.94714,10.60972 24.16657,2.35771 5.30485,5.89428 v 7.66257 l 3.53657,4.126 22.39828,-12.96742 7.07314,11.19914 -5.89428,9.43085 13.55685,-2.35771 14.73571,-2.94714 9.43086,-18.86171 9.43085,-0.58943 16.504,23.57713 7.66257,-5.89428 6.48371,5.89428 14.14628,-0.58942 8.84143,3.53657 v 12.37799 l 8.252,-8.25199 21.21942,15.91456 -5.30485,8.84143 19.45113,4.126 1.17886,-13.55686 h 8.252 v 8.84143 l 17.09343,18.86172 20.04056,-17.09343 17.68285,7.07314 13.55686,22.39828 10.02028,-12.378 8.252,13.55685 18.27228,-8.84142 -3.53657,-5.89429 15.32514,-9.43085 8.84142,8.84143 h 8.252 l 7.07314,9.43085 17.09343,-10.02028 22.39828,2.94714 -0.58943,-7.07314 12.378,-1.17886 4.12599,11.78857 3.53657,1.17886 7.66257,-13.55686 27.70314,5.30486 -2.35771,-13.55686 7.07314,-8.84142 40.67056,10.60971 v 12.96743 l 13.55685,21.80885 -12.37799,17.68285 28.88199,20.04057 1.17886,11.78856 10.60971,2.35772 1.76828,12.96742 7.66257,13.55686 17.09343,-8.252 5.30486,20.04057 7.07302,5.89428 18.8618,-15.32514 0.5894,27.11371 5.3049,2.94714 -0.5894,8.252 11.7886,5.89428 9.4307,-1.17885 10.0204,5.89428 -1.7683,11.78857 19.3945,-9.13654 35.0996,-20.21699"
       sodipodi:nodetypes="cccccccccccccccccccccccccccccccccccccccccccccccccccccccccccccccccccccccccccccccccccccccccccccccc"
       inkscape:connector-curvature="0" />
    <circle
       style="color:#000000;display:inline;overflow:visible;visibility:visible;opacity:1;fill:#ffffff;fill-opacity:1;fill-rule:nonzero;stroke:#ff0000;stroke-width:2.08998609;stroke-linecap:round;stroke-linejoin:round;stroke-miterlimit:4;stroke-dasharray:none;stroke-dashoffset:0;stroke-opacity:1;marker:none;enable-background:accumulate"
       id="path885"
       cx="464.33664"
       cy="586.34204"
       r="10.687914" />
  </g>
  <g
     inkscape:groupmode="layer"
     id="layer5"
     inkscape:label="Rivières"
     style="display:inline"
     transform="translate(-52.487877,-186.85774)">
    <g
       id="g6245"
       transform="translate(-5.029715,28.125)">
      <path
         sodipodi:nodetypes="ccccccccccccccccccccccccccscccccccccccccccccccccccccccccccsc"
         id="path18662"
         d="m 60.017592,231.38275 c 8.907959,-8.27649 7.075824,-8.30842 20.005864,-13.33725 13.768099,-11.66047 17.88737,-25.88888 33.343104,-14.17082 5.30975,6.45262 3.52242,15.26894 -9.4135,24.66205 -10.695959,3.77954 -17.769102,14.31305 -8.925206,22.0183 8.715426,2.82538 17.784036,3.88477 25.007326,14.17082 15.14344,22.64627 28.91881,35.7161 42.51247,47.51393 6.83794,8.55719 12.83583,17.39441 15.00439,27.50806 3.9485,16.60826 15.02293,14.21402 28.34164,5.83505 13.72267,-13.91208 13.94438,-32.02044 39.17816,-20.83944 9.66701,7.18909 12.12847,15.77739 -10.00294,23.34017 -18.14334,7.96071 -25.20187,16.95953 -11.67008,25.00733 21.89288,4.47992 30.54698,-11.08519 43.00075,10.24708 10.82569,25.44807 27.53675,19.99794 44.5249,13.0931 24.58879,-7.40009 48.19819,-35.36719 74.18841,-13.33725 11.47039,10.00293 9.57783,18.82701 10.49123,28.82994 -1.81454,13.19104 8.38755,22.83071 19.66059,4.51317 5.17556,-18.92092 -2.11487,-19.36723 14.0278,-30.84237 18.54858,-7.95167 63.78079,3.13009 40.01173,29.17521 -15.05207,15.02742 -32.27692,28.89447 -20.83944,47.51393 5.75593,8.51563 14.53324,5.36793 19.17228,-3.33431 1.86989,-11.92171 10.39392,-13.8622 18.33871,-16.67155 30.2932,-37.07608 71.669,-37.41848 61.68475,-10.83651 -4.71601,11.18702 -45.93838,15.33618 -52.51539,60.85117 -2.20114,8.71881 7.18027,29.46079 24.17375,-5.00147 6.01091,-11.02696 21.02224,-26.19513 40.8453,-8.33577 2.16489,8.32234 9.69016,15.91321 21.3114,29.86869 3.52583,4.23402 2.59997,9.50804 10.36456,15.97808 7.76413,14.36091 -16.51513,5.5252 -0.83358,25.8409 5.7593,8.3174 9.61403,16.80795 -1.66716,26.67449 -23.085,20.95968 -18.39364,28.90557 4.16789,44.17962 16.10449,22.83868 29.56272,16.49449 25.00733,45.84677 -0.51238,6.08199 -1.79912,18.1529 14.17082,10.97953 10.33381,-1.29355 21.97789,-3.79657 12.50367,13.19422 -6.09711,3.34327 -9.82909,10.08355 7.84748,11.67009 12.28194,-2.82648 8.17505,24.11999 29.80654,10.59236 11.0192,-9.78262 25.48477,-20.55903 22.36357,10.24708 -3.34528,14.92128 3.12347,21.33708 23.34017,15.83798 16.06849,-1.53808 31.35958,-2.64655 16.67156,25.00733 -8.84046,21.56717 -2.33283,25.22823 7.5022,25.00733 5.02975,0.39218 15.03919,-7.04085 10.00293,9.16935 0.44742,4.40491 0.0488,9.93791 5.00146,8.33578 5.7415,-5.33703 11.86603,-4.63754 19.17229,4.16789 6.95913,12.00683 21.36921,4.14447 32.50953,5.00146 10.27258,-1.64511 12.33195,-9.16124 23.34017,-10.83651 -3.54035,11.23596 2.99946,14.4078 15.14743,13.0931 2.92739,-2.17281 5.85478,-6.11014 8.78218,2.25658 0.56236,2.58225 1.17541,5.14423 9.4135,4.65619 2.6425,-1.51972 4.4015,-5.68993 10.00293,1.66715 5.61498,-1.27371 10.05694,-4.89345 21.67302,5.83505 10.83651,8.61741 21.67302,9.7333 32.50953,14.17082 2.50073,3.27724 5.00147,3.07336 7.5022,3.33431 6.43082,-0.6653 5.12707,2.96639 4.75732,6.07919 0.68508,1.97149 0.30687,4.36831 4.69663,4.85793 3.99245,1.67159 4.54045,4.17205 3.53657,7.07315 -2.00131,6.88123 4.48012,12.70212 8.252,18.86171 l 15.91457,33.00799 c 8.17956,14.09978 0.59144,32.34695 13.55685,42.43884 1.61695,0.39496 18.28525,7.02421 24.07615,23.30761 7.2975,20.52002 28.3196,20.16932 28.2219,45.57822"
         style="fill:none;fill-rule:evenodd;stroke:#0097ce;stroke-width:5;stroke-linecap:butt;stroke-linejoin:miter;stroke-miterlimit:4;stroke-dasharray:none;stroke-opacity:1"
         inkscape:connector-curvature="0" />
      <path
         sodipodi:nodetypes="ccccccccccccccccccc"
         id="path2360"
         d="m 425.21707,388.49118 c 1.46309,-9.86852 0.94337,-11.77975 -6.13345,-16.63813 -4.81768,-3.57566 -6.12044,-4.73947 -7.66257,-10.02029 -2.93235,-11.84624 7.04798,-12.14053 10.60971,-3.53656 3.72094,6.83847 8.07923,8.79063 14.14628,-2.35772 1.24053,-8.5096 6.43763,-11.10197 10.60971,-17.09342 5.90278,-8.8934 10.11019,-5.21043 18.86171,-5.89429 24.64595,2.72918 13.34842,-3.77097 20.33528,-10.60971 2.18543,-5.54037 1.37635,-12.63356 2.92722,-17.9798 1.01109,-8.55448 4.35536,-18.6316 14.46092,-17.38591 3.38383,-0.6883 11.53871,-0.10893 18.27229,-8.84142 7.24548,-11.20786 16.66677,-3.9213 25.34542,-2.94715 8.43694,3.8202 12.29655,-0.95365 15.32514,-8.84142 -0.61834,-13.96206 -0.68501,-27.4698 11.78857,-30.65028 12.59027,-0.23804 16.80453,-9.68969 21.80885,-18.27228 4.3395,-9.06643 6.17434,-20.35923 17.09342,-23.57714 6.2894,-0.2267 6.06479,-8.07256 9.35413,-12.63435 2.324,-4.39837 2.5465,-5.63095 7.09804,-8.05508 8.19852,-2.10741 9.79698,-8.19309 9.61325,-12.67349"
         style="fill:none;fill-opacity:1;fill-rule:evenodd;stroke:#0097ce;stroke-width:3.5;stroke-linecap:butt;stroke-linejoin:miter;stroke-miterlimit:4;stroke-dasharray:none;stroke-opacity:1"
         inkscape:connector-curvature="0" />
      <path
         sodipodi:nodetypes="ccccccccccccccccccccccccccccccccccccccccccccc"
         id="path3331"
         d="m 577.63987,505.06387 c 4.3514,2.03178 7.55698,4.52189 19.45114,3.53657 12.1349,-0.55835 11.91924,7.11701 15.32513,12.378 12.54039,19.68208 22.08674,10.31333 21.21943,0 0.34232,-11.88378 -7.326,-7.74628 -11.19914,-11.19914 -11.95797,-0.25901 -12.71565,-6.50308 -6.48371,-11.19914 5.64639,-5.00463 18.1128,3.64523 15.91456,-7.66257 -3.1953,-8.00794 -0.70645,-12.60539 11.78857,-11.19914 6.84365,2.48815 10.99506,-0.40816 14.73571,-4.126 6.05218,-4.12245 12.42929,-6.62021 20.04057,-2.94714 8.85631,2.19846 11.12601,2.66609 17.68285,-4.126 12.77095,-9.70197 25.5419,-6.6069 38.31285,-7.66257 21.52721,-7.03346 14.17331,-21.55618 6.48371,-17.68285 -12.68173,4.58204 -21.97922,-3.19365 -9.43085,-12.96743 9.93866,-5.98923 26.26318,8.54108 21.21942,-10.02028 -2.88481,-9.39914 5.20075,-15.57499 11.78857,-5.30486 0.0371,12.49339 -2.38478,21.51071 9.43086,24.16657 4.57837,6.37873 9.10466,12.419 10.60971,-1.17886 -0.25621,-12.89041 5.0575,-14.64099 7.66257,-21.80885 9.10026,-18.91469 9.62281,-3.51849 12.96742,0.58943 12.52618,7.71474 14.36235,-6.82488 23.57714,-8.84143 4.36753,-14.55401 -4.44,-13.29794 -7.07314,-19.45114 -4.68546,-1.95514 -8.70741,-23.49169 2.94714,-16.50399 2.8078,4.67722 7.62193,4.7495 5.99541,-1.00622 -1.57385,-4.66571 8.35849,-8.15594 7.56145,1.59565 -4.72862,12.43225 16.06539,8.52586 17.68285,1.17885 7.61428,-12.97298 16.9642,-9.73097 17.09342,-0.58943 1.98503,10.98094 5.83309,23.57649 -8.25199,20.63 -8.49002,-5.46881 -18.65501,12.23052 0.58942,12.96743 l 27.70314,2.94714 c 9.94406,1.85042 21.68893,6.40207 25.34542,-1.17886 5.24321,-9.55928 12.56211,-5.62605 13.55686,-20.04057 -2.57804,-15.25015 22.1373,-12.41004 14.14628,1.76829 -6.08339,5.51358 -5.00063,26.31794 5.89428,7.66257 2.1868,-6.05242 6.92659,-8.27535 13.55686,-7.66257 8.79459,-0.94725 7.33863,5.7934 7.66257,11.19914 -3.56562,10.83386 11.13034,10.12245 9.43085,1.17886 -2.20387,-10.85689 7.43938,-9.60405 19.4511,-9.43086 6.1781,0.37118 13.2049,2.43966 12.9675,-10.02028 -2.3708,-11.19158 3.0512,-10.13739 8.252,-9.43086 9.014,4.02871 7.0867,-6.53113 6.4837,-15.32514 -1.2164,-21.47939 14.2647,-15.43901 24.756,-15.32514 8.5022,-0.873 20.2927,2.27299 19.4511,-10.02028 -0.3328,-4.78459 9.4455,-11.65318 16.0133,-10.57156 14.9401,2.70311 19.2033,-2.84477 26.5876,-2.49875"
         style="fill:none;fill-rule:evenodd;stroke:#0097ce;stroke-width:3.5;stroke-linecap:butt;stroke-linejoin:miter;stroke-miterlimit:4;stroke-dasharray:none;stroke-opacity:1"
         inkscape:connector-curvature="0" />
      <path
         id="path4302"
         d="m 841.91347,805.71775 c 2.51306,-3.3724 9.22434,-3.94599 19.58907,-2.08394 10.89579,1.24805 12.23684,5.75868 27.50806,2.91752 13.03613,2.75534 17.31649,-3.24509 25.42412,-5.41825 20.44477,-5.1404 28.34165,-10.28079 42.51247,-15.42119 5.13757,-3.7624 11.7613,-1.58016 17.92192,-1.25037 6.80755,3.12109 11.94794,-2.56867 15.42118,-5.00146 1.19303,-5.39399 5.09119,-5.37774 9.58615,-4.16789 9.89786,-0.61007 0.84766,-10.8709 9.58616,-12.08688 8.3065,-5.09385 7.8717,-11.34898 20.8394,-10.83651 11.948,2.22292 13.3373,3.33426 16.6716,-4.16789 5.3353,-6.46643 12.7177,1.06926 14.5876,-12.50366 -2.247,-5.27313 5.8823,-8.90943 7.0854,-2.91752 0.3325,2.64409 5.9699,4.88018 5.4183,-0.83358 -0.3486,-6.53216 4.4565,-5.1148 7.5022,-2.50074 4.0187,4.20427 8.9213,0.44885 10.4197,-3.75109 1.0821,-4.11444 4.0859,-5.66649 7.5022,-6.66863 4.4873,-0.3085 8.1406,-2.86057 8.7194,-5.51416 0.2846,-4.78129 6.8717,-2.76318 10.2576,-3.65519"
         style="fill:none;fill-rule:evenodd;stroke:#0097ce;stroke-width:3.5;stroke-linecap:butt;stroke-linejoin:miter;stroke-miterlimit:4;stroke-dasharray:none;stroke-opacity:1"
         sodipodi:nodetypes="ccccccccccccccccccc"
         inkscape:connector-curvature="0" />
      <path
         sodipodi:nodetypes="cccccccccccccc"
         id="path6243"
         d="m 765.37283,808.03009 c 5.32904,1.30188 9.20692,3.71023 10.60971,7.36786 4.35872,12.45716 -3.25297,11.74687 -5.89429,16.50399 -5.40686,3.43551 -3.04161,7.76364 -6.189,9.43086 -5.01546,3.03475 -12.76331,-4.11073 -21.21942,5.59957 -3.98641,3.89332 -5.73202,6.72711 -18.567,6.189 -12.43017,0.0992 -8.69483,11.3122 -9.43085,19.45113 5.90622,20.98182 0.86698,30.18999 6.48371,35.95514 3.21483,6.60897 1.81309,18.42395 6.189,24.16656 3.34921,6.09384 -3.33201,11.29518 5.30486,24.756 5.56213,6.10772 12.75374,12.01176 12.37799,18.86171 -3.21739,12.27005 -0.51507,19.5584 5.01015,22.39828 2.1317,2.20061 5.19473,3.60291 2.06299,10.31501 -4.54073,8.8414 -7.05125,17.6829 -7.66256,26.5243"
         style="fill:none;fill-rule:evenodd;stroke:#0097ce;stroke-width:3.5;stroke-linecap:butt;stroke-linejoin:miter;stroke-miterlimit:4;stroke-dasharray:none;stroke-opacity:1"
         inkscape:connector-curvature="0" />
    </g>
  </g>
  <g
     inkscape:groupmode="layer"
     id="layer2"
     inkscape:label="Légende"
     style="display:inline"
     transform="translate(-52.487877,-186.85774)">
    <g
       id="g9286"
       transform="matrix(2.148034,0,0,2.1887227,1140.5258,240.90742)" />
    <text
       xml:space="preserve"
       style="font-style:normal;font-variant:normal;font-weight:normal;font-stretch:normal;line-height:0%;font-family:'Bitstream Vera Sans';text-align:start;writing-mode:lr-tb;text-anchor:start;fill:#000000;fill-opacity:1;stroke:none;stroke-width:1px;stroke-linecap:butt;stroke-linejoin:miter;stroke-opacity:1"
       x="189.82214"
       y="394.39905"
       id="text9167"
       transform="scale(0.9906613,1.0094267)"><tspan
         sodipodi:role="line"
         x="189.82214"
         y="394.39905"
         id="tspan9171"
         style="font-size:18px;line-height:1.19000006">Mantes-la-Jolie</tspan></text>
    <text
       xml:space="preserve"
       style="font-style:normal;font-weight:normal;line-height:0%;font-family:'Bitstream Vera Sans';fill:#000000;fill-opacity:1;stroke:none;stroke-width:1px;stroke-linecap:butt;stroke-linejoin:miter;stroke-opacity:1"
       x="790.80536"
       y="651.0744"
       id="text9193"
       transform="scale(0.9906613,1.0094267)"><tspan
         sodipodi:role="line"
         id="tspan9195"
         x="790.80536"
         y="651.0744"
         style="font-size:26.01939583px;line-height:1.25">Seine-et-Marne</tspan></text>
    <text
       xml:space="preserve"
       style="font-style:normal;font-variant:normal;font-weight:normal;font-stretch:normal;line-height:0%;font-family:'Bitstream Vera Sans';text-align:start;writing-mode:lr-tb;text-anchor:start;fill:#000000;fill-opacity:1;stroke:none;stroke-width:1px;stroke-linecap:butt;stroke-linejoin:miter;stroke-opacity:1"
       x="242.66206"
       y="637.94714"
       id="text9185"
       transform="scale(0.9906613,1.0094267)"><tspan
         sodipodi:role="line"
         x="242.66206"
         y="637.94714"
         id="tspan9189"
         style="font-size:18px;line-height:1.19000006">Rambouillet</tspan></text>
    <path
       sodipodi:type="arc"
       style="fill:#ffffff;fill-opacity:1;stroke:#000000;stroke-width:1;stroke-miterlimit:4;stroke-dasharray:none;stroke-opacity:1"
       id="path8169"
       sodipodi:cx="-401.03055"
       sodipodi:cy="24.687513"
       sodipodi:rx="4.0406103"
       sodipodi:ry="4.5456862"
       d="m -396.98994,24.687513 a 4.0406103,4.5456862 0 0 1 -4.04061,4.545687 4.0406103,4.5456862 0 0 1 -4.04061,-4.545687 4.0406103,4.5456862 0 0 1 4.04061,-4.545686 4.0406103,4.5456862 0 0 1 4.04061,4.545686 z"
       transform="matrix(1.725737,0,0,1.4707021,1122.9972,439.99167)" />
    <text
       xml:space="preserve"
       style="font-style:normal;font-variant:normal;font-weight:normal;font-stretch:normal;line-height:0%;font-family:'Bitstream Vera Sans';text-align:start;writing-mode:lr-tb;text-anchor:start;fill:#000000;fill-opacity:1;stroke:none;stroke-width:1px;stroke-linecap:butt;stroke-linejoin:miter;stroke-opacity:1"
       x="288.75333"
       y="465.9653"
       id="text9350"
       transform="scale(0.9906613,1.0094267)"><tspan
         sodipodi:role="line"
         id="tspan12485"
         x="288.75333"
         y="465.9653"
         style="font-size:18px;line-height:1.19000006">Saint-Germain</tspan><tspan
         sodipodi:role="line"
         id="tspan12487"
         x="288.75333"
         y="487.38531"
         style="font-size:18px;line-height:1.19000006">          -en-Laye</tspan><tspan
         sodipodi:role="line"
         id="tspan12489"
         x="288.75333"
         y="508.8053"
         style="font-size:18px;line-height:1.19000006"> </tspan></text>
    <text
       xml:space="preserve"
       style="font-style:normal;font-weight:normal;line-height:0%;font-family:'Bitstream Vera Sans';fill:#000000;fill-opacity:1;stroke:none;stroke-width:1px;stroke-linecap:butt;stroke-linejoin:miter;stroke-opacity:1"
       x="351.94131"
       y="326.01367"
       id="text2644"
       transform="scale(0.9906613,1.0094267)"><tspan
         sodipodi:role="line"
         id="tspan2646"
         x="351.94131"
         y="326.01367"
         style="font-size:26.01939583px;line-height:1.25">Val-d'Oise</tspan></text>
    <text
       transform="scale(0.9906613,1.0094267)"
       id="text2676"
       y="452.60583"
       x="578.50391"
       style="font-style:normal;font-variant:normal;font-weight:normal;font-stretch:normal;line-height:0%;font-family:'Bitstream Vera Sans';text-align:start;writing-mode:lr-tb;text-anchor:start;fill:#000000;fill-opacity:1;stroke:none;stroke-width:1px;stroke-linecap:butt;stroke-linejoin:miter;stroke-opacity:1"
       xml:space="preserve"><tspan
         y="452.60583"
         x="578.50391"
         id="tspan2678"
         sodipodi:role="line"
         style="font-size:22px;line-height:1">Seine-</tspan><tspan
         y="474.60583"
         x="578.50391"
         sodipodi:role="line"
         id="tspan2741"
         style="font-size:22px;line-height:1">Saint-Denis</tspan></text>
    <text
       xml:space="preserve"
       style="font-style:normal;font-variant:normal;font-weight:normal;font-stretch:normal;line-height:0%;font-family:'Bitstream Vera Sans';text-align:start;writing-mode:lr-tb;text-anchor:start;fill:#000000;fill-opacity:1;stroke:none;stroke-width:1px;stroke-linecap:butt;stroke-linejoin:miter;stroke-opacity:1"
       x="365.24509"
       y="551.52454"
       id="text2652"
       transform="scale(0.9906613,1.0094267)"><tspan
         sodipodi:role="line"
         id="tspan2654"
         x="365.24509"
         y="551.52454"
         style="font-size:18px;line-height:1.19000006">Versailles</tspan></text>
    <text
       xml:space="preserve"
       style="font-style:normal;font-variant:normal;font-weight:normal;font-stretch:normal;line-height:0%;font-family:'Bitstream Vera Sans';text-align:start;writing-mode:lr-tb;text-anchor:start;fill:#000000;fill-opacity:1;stroke:none;stroke-width:1px;stroke-linecap:butt;stroke-linejoin:miter;stroke-opacity:1"
       x="587.62659"
       y="557.26031"
       id="text2660"
       transform="scale(0.9906613,1.0094267)"><tspan
         sodipodi:role="line"
         id="tspan2662"
         x="587.62659"
         y="557.26031"
         style="font-size:22px;line-height:1">Val-de</tspan><tspan
         sodipodi:role="line"
         x="587.62659"
         y="579.26031"
         id="tspan2739"
         style="font-size:22px;line-height:1">-Marne</tspan></text>
    <text
       xml:space="preserve"
       style="font-style:normal;font-variant:normal;font-weight:normal;font-stretch:normal;line-height:0%;font-family:'Bitstream Vera Sans';text-align:start;writing-mode:lr-tb;text-anchor:start;fill:#000000;fill-opacity:1;stroke:none;stroke-width:1px;stroke-linecap:butt;stroke-linejoin:miter;stroke-opacity:1"
       x="461.077"
       y="490.43747"
       id="text2668"
       transform="scale(0.9906613,1.0094267)"><tspan
         sodipodi:role="line"
         id="tspan2670"
         x="461.077"
         y="490.43747"
         style="font-size:22px;line-height:1">Hauts-</tspan><tspan
         sodipodi:role="line"
         x="461.077"
         y="512.4375"
         id="tspan2716"
         style="font-size:22px;line-height:1">de-</tspan><tspan
         sodipodi:role="line"
         x="461.077"
         y="534.4375"
         id="tspan2726"
         style="font-size:22px;line-height:1">Seine</tspan></text>
    <text
       transform="scale(0.9906613,1.0094267)"
       id="text2636"
       y="504.40182"
       x="523.46832"
       style="font-style:normal;font-variant:normal;font-weight:normal;font-stretch:normal;line-height:0%;font-family:'Bitstream Vera Sans';text-align:start;writing-mode:lr-tb;text-anchor:start;fill:#000000;fill-opacity:1;stroke:none;stroke-width:1px;stroke-linecap:butt;stroke-linejoin:miter;stroke-opacity:1"
       xml:space="preserve"><tspan
         y="504.40182"
         x="523.46832"
         id="tspan2638"
         sodipodi:role="line"
         style="font-size:24px;line-height:1.25">Paris</tspan></text>
    <text
       transform="scale(0.9906613,1.0094267)"
       id="text2688"
       y="734.37122"
       x="465.79755"
       style="font-style:normal;font-weight:normal;line-height:0%;font-family:'Bitstream Vera Sans';fill:#000000;fill-opacity:1;stroke:none;stroke-width:1px;stroke-linecap:butt;stroke-linejoin:miter;stroke-opacity:1"
       xml:space="preserve"><tspan
         y="734.37122"
         x="465.79755"
         id="tspan2690"
         sodipodi:role="line"
         style="font-size:26.01939583px;line-height:1.25">Essonne</tspan></text>
    <text
       xml:space="preserve"
       style="font-style:normal;font-variant:normal;font-weight:bold;font-stretch:normal;line-height:0%;font-family:'Bitstream Vera Sans';text-align:start;writing-mode:lr-tb;text-anchor:start;fill:#000000;fill-opacity:1;stroke:none;stroke-width:1px;stroke-linecap:butt;stroke-linejoin:miter;stroke-opacity:1"
       x="223.59427"
       y="516.98682"
       id="text12457"
       transform="scale(0.9906613,1.0094267)"><tspan
         sodipodi:role="line"
         id="tspan12459"
         x="223.59427"
         y="516.98682"
         style="font-size:26.01939583px;line-height:1.25;font-weight:normal">Yvelines</tspan></text>
    <path
       sodipodi:type="arc"
       style="fill:#ffffff;fill-opacity:1;stroke:#000000;stroke-width:1;stroke-miterlimit:4;stroke-dasharray:none;stroke-opacity:1"
       id="path12481"
       sodipodi:cx="-401.03055"
       sodipodi:cy="24.687513"
       sodipodi:rx="4.0406103"
       sodipodi:ry="4.5456862"
       d="m -396.98994,24.687513 a 4.0406103,4.5456862 0 0 1 -4.04061,4.545687 4.0406103,4.5456862 0 0 1 -4.04061,-4.545687 4.0406103,4.5456862 0 0 1 4.04061,-4.545686 4.0406103,4.5456862 0 0 1 4.04061,4.545686 z"
       transform="matrix(1.725737,0,0,1.4707021,1137.8654,497.1572)" />
    <path
       sodipodi:type="arc"
       style="fill:#ffffff;fill-opacity:1;stroke:#000000;stroke-width:1;stroke-miterlimit:4;stroke-dasharray:none;stroke-opacity:1"
       id="path12483"
       sodipodi:cx="-401.03055"
       sodipodi:cy="24.687513"
       sodipodi:rx="4.0406103"
       sodipodi:ry="4.5456862"
       d="m -396.98994,24.687513 a 4.0406103,4.5456862 0 0 1 -4.04061,4.545687 4.0406103,4.5456862 0 0 1 -4.04061,-4.545687 4.0406103,4.5456862 0 0 1 4.04061,-4.545686 4.0406103,4.5456862 0 0 1 4.04061,4.545686 z"
       transform="matrix(1.725737,0,0,1.4707021,1019.4327,619.69138)" />
    <path
       transform="matrix(1.725737,0,0,1.4707021,933.29993,373.34128)"
       d="m -396.98994,24.687513 a 4.0406103,4.5456862 0 0 1 -4.04061,4.545687 4.0406103,4.5456862 0 0 1 -4.04061,-4.545687 4.0406103,4.5456862 0 0 1 4.04061,-4.545686 4.0406103,4.5456862 0 0 1 4.04061,4.545686 z"
       sodipodi:ry="4.5456862"
       sodipodi:rx="4.0406103"
       sodipodi:cy="24.687513"
       sodipodi:cx="-401.03055"
       id="path12479"
       style="fill:#ffffff;fill-opacity:1;stroke:#000000;stroke-width:1;stroke-miterlimit:4;stroke-dasharray:none;stroke-opacity:1"
       sodipodi:type="arc" />
    <text
       xml:space="preserve"
       style="font-style:normal;font-variant:normal;font-weight:normal;font-stretch:normal;line-height:0%;font-family:'Bitstream Vera Sans';text-align:start;writing-mode:lr-tb;text-anchor:start;display:inline;fill:#000000;fill-opacity:1;stroke:none;stroke-width:1px;stroke-linecap:butt;stroke-linejoin:miter;stroke-opacity:1"
       x="451.14584"
       y="610.14771"
       id="text2652-3"
       transform="scale(0.99066133,1.0094267)"><tspan
         sodipodi:role="line"
         id="tspan2654-6"
         x="451.14584"
         y="610.14771"
         style="font-size:18px;line-height:1.19000006">Saclay</tspan></text>
  </g>
</svg>
