<?xml version="1.0" encoding="UTF-8" standalone="no"?>
<!-- Created with Inkscape (http://www.inkscape.org/) -->

<svg
   xmlns:dc="http://purl.org/dc/elements/1.1/"
   xmlns:cc="http://creativecommons.org/ns#"
   xmlns:rdf="http://www.w3.org/1999/02/22-rdf-syntax-ns#"
   xmlns:svg="http://www.w3.org/2000/svg"
   xmlns="http://www.w3.org/2000/svg"
   xmlns:sodipodi="http://sodipodi.sourceforge.net/DTD/sodipodi-0.dtd"
   xmlns:inkscape="http://www.inkscape.org/namespaces/inkscape"
   width="210mm"
   height="297mm"
   id="svg3070"
   version="1.1"
   inkscape:version="0.48.5 r10040"
   sodipodi:docname="formes.svg">
  <defs
     id="defs3072">
    <inkscape:path-effect
       effect="sketch"
       id="path-effect4302"
       is_visible="true"
       nbiter_approxstrokes="5"
       strokelength="100"
       strokelength_rdm="0.3;1"
       strokeoverlap="0.3"
       strokeoverlap_rdm="0.3;1"
       ends_tolerance="0.1;1"
       parallel_offset="5;1"
       tremble_size="5;1"
       tremble_frequency="1"
       nbtangents="5"
       tgt_places_rdmness="1;1"
       tgtscale="10"
       tgtlength="100"
       tgtlength_rdm="0.3;1" />
    <inkscape:path-effect
       effect="envelope"
       id="path-effect4298"
       is_visible="true"
       yy="true"
       xx="true"
       bendpath1="m -68.950745,538.36572 166.108612,0"
       bendpath2="m 97.157867,538.36572 0,100.29199"
       bendpath3="m -68.950745,638.65771 166.108612,0"
       bendpath4="m -68.950745,538.36572 0,100.29199" />
    <inkscape:path-effect
       effect="sketch"
       id="path-effect4284"
       is_visible="true"
       nbiter_approxstrokes="2"
       strokelength="100"
       strokelength_rdm="0.3;1"
       strokeoverlap="0.3"
       strokeoverlap_rdm="0.3;1"
       ends_tolerance="0.1;1"
       parallel_offset="5;1"
       tremble_size="5;1"
       tremble_frequency="1"
       nbtangents="0"
       tgt_places_rdmness="1;1"
       tgtscale="10"
       tgtlength="100"
       tgtlength_rdm="0.3;1" />
  </defs>
  <sodipodi:namedview
     id="base"
     pagecolor="#ffffff"
     bordercolor="#666666"
     borderopacity="1.0"
     inkscape:pageopacity="0.0"
     inkscape:pageshadow="2"
     inkscape:zoom="1.8715822"
     inkscape:cx="319.12717"
     inkscape:cy="367.88271"
     inkscape:document-units="px"
     inkscape:current-layer="layer1"
     showgrid="false"
     inkscape:window-width="1910"
     inkscape:window-height="1006"
     inkscape:window-x="8"
     inkscape:window-y="51"
     inkscape:window-maximized="0"
     showguides="true"
     inkscape:guide-bbox="true" />
  <metadata
     id="metadata3075">
    <rdf:RDF>
      <cc:Work
         rdf:about="">
        <dc:format>image/svg+xml</dc:format>
        <dc:type
           rdf:resource="http://purl.org/dc/dcmitype/StillImage" />
        <dc:title></dc:title>
      </cc:Work>
    </rdf:RDF>
  </metadata>
  <g
     inkscape:label="Calque 1"
     inkscape:groupmode="layer"
     id="layer1">
    <path
       style="fill:#000000"
       d="m 258.86979,443.99495 c -8.64481,-17.50358 24.02065,-13.81258 32.90359,-24.75381 14.04439,-7.24093 26.53926,-17.20441 31.08241,-27.79228 4.11984,-4.92037 16.8194,-10.78802 9.36849,-15.87875 11.4525,-13.71675 21.06722,-29.09497 27.68847,-45.70698 1.23817,-13.84555 10.613,-32.65325 10.63739,-49.30242 4.45926,-46.79246 -11.34353,-96.44726 -45.25086,-129.49088 -12.26235,-10.94913 -24.67091,-14.52112 -38.38354,-23.72745 -14.57242,-7.85203 -29.3723,-9.50442 -44.85341,-12.44572 -49.27739,-8.82719 -101.15543,10.30282 -136.41227,45.0546 -7.760469,-4.44599 -14.645718,15.26772 -20.724662,20.5421 -10.189518,14.35523 -16.535773,32.15231 -22.291822,47.73114 -4.574455,12.93072 -4.384302,29.88349 -3.981584,44.37893 2.424228,35.93926 18.971574,71.84041 48.362418,93.50936 11.48102,13.77383 32.32174,22.83692 50.26453,29.12966 10.81631,7.0496 37.9168,-0.79747 29.58933,18.75771 -13.35013,0.36155 -30.02454,-9.00047 -40.16728,-6.65032 -10.74589,2.43206 -26.30646,-9.19193 -37.62652,-15.12837 -7.82816,6.52476 -13.25486,2.45199 -18.364848,-6.88572 C 78.478037,380.63248 66.413455,360.2793 58.298213,347.5103 53.319632,335.49041 45.579325,325.19214 37.67019,314.97746 c 9.517294,-3.58906 6.75256,-19.484 -4.317908,-17.05341 4.373736,-20.27844 1.330336,-41.18931 6.170756,-61.39899 3.346407,-16.12421 7.565158,-31.98101 9.139295,-48.43123 13.856239,-3.2708 16.799337,-27.39302 29.356715,-37.05336 8.034048,-5.2376 6.464069,-10.58072 2.83832,-15.37294 27.733742,-27.52792 64.640752,-45.8653 103.565132,-50.180163 15.64259,-5.707292 36.84041,-4.495944 54.64465,-2.714264 65.8363,8.065628 123.66161,55.931477 146.61273,117.773617 6.79093,11.24062 7.06578,27.92441 14.1025,37.08024 -2.20173,14.44101 2.9534,28.97551 0.92735,43.56992 -0.99839,21.45601 -5.73839,42.75582 -14.14436,62.53054 2.86338,4.6941 -3.54804,6.93128 -5.21576,11.17754 -7.7986,15.35293 -17.59381,29.76632 -29.40967,42.3118 -11.44928,10.4027 -27.35365,23.35464 -38.80383,36.29967 -8.29548,-3.77004 -25.21973,19.83881 -29.64387,3.96901 -6.79831,1.13653 -20.13826,11.14008 -24.62245,6.50951 z"
       id="path3035"
       inkscape:connector-curvature="0" />
    <path
       style="fill:#000000"
       d="m 476.66628,852.33643 c -8.21261,0.58953 -10.75349,-11.64703 -3.32262,-15.02863 13.04773,-11.20029 26.25555,-22.2264 39.36474,-33.35985 -14.33646,0.12467 -28.59973,1.2367 -43.01813,0.70041 -38.19558,-0.0388 -76.45456,-0.34428 -114.60916,-0.29411 -16.59542,0.50122 -33.2668,0.20749 -49.88339,0.53663 -45.1249,-0.30892 -90.35194,0.3408 -135.38347,-0.83899 -8.0306,-3.23261 -17.29607,-0.89654 -25.90774,-1.62771 -10.78757,-0.36949 -21.72996,0.4372 -32.42422,-0.69783 -8.05042,-2.57011 -5.17988,-15.52375 3.03095,-14.71269 5.24182,0.0695 10.42571,0.36798 15.28925,-1.39058 24.24801,0.15853 48.42411,-0.32905 72.64894,-0.28602 32.96996,-0.67694 66.12853,0.5374 99.05187,-0.41625 49.43081,0.47693 99.01134,-0.4058 148.32389,1.14819 10.05298,1.65261 20.65072,0.47797 30.83821,1.59576 11.47688,0.003 22.91489,0.5022 34.31619,1.03014 -9.62716,-7.3788 -20.15067,-13.81392 -29.18577,-21.82354 -1.62383,-7.22477 -14.5467,-8.18187 -12.0627,-17.28372 2.03766,-7.71774 12.61535,-6.47568 16.43154,-0.75004 17.87097,13.49545 36.88175,25.80062 54.04051,40.05223 6.69495,5.68168 4.30742,15.63535 -4.23917,16.90739 -10.4072,0.56229 -20.21696,17.14794 -30.45211,22.75808 -6.85867,3.2201 -14.76618,10.45667 -12.08849,8.39325 -6.68692,4.80001 -12.05009,11.93601 -19.58958,15.26639 l -0.4994,0.10113 -0.67014,0.0204 0,0 z"
       id="path3210"
       inkscape:connector-curvature="0"
       sodipodi:nodetypes="cccccccccccccccccccccccccccc" />
    <path
       style="fill:#000000"
       d="m 243.75943,750.03094 c -12.89843,1.01319 -36.30279,1.36876 -34.15545,-17.46259 1.34822,-22.75498 1.2418,-45.53289 3.80674,-68.20809 -3.06445,-11.53731 0.794,-23.42426 14.76108,-17.27115 32.46194,0.85473 45.66333,2.84261 78.10978,2.68372 17.15917,-4.70596 35.02015,-5.17867 48.88063,-6.56479 19.43588,-0.78819 9.62451,23.48059 14.29127,33.30237 0.9187,20.55029 0.86902,41.13199 1.2972,61.6759 -46.68736,25.66803 -15.83464,6.54655 -24.19801,8.09322 -30.95213,5.7241 -93.84728,-4.8117 -94.34373,4.05674 -2.83309,0.36872 -5.61851,-0.42953 -8.44951,-0.30533 z m 124.33991,-12.99515 c 1.9487,-1.20528 -1.37366,-1.33001 0,0 z m -33.20519,-86.65052 c 11.54089,0.12368 -4.03894,-0.68416 0,0 z m 8.72926,-5.41459 c 5.42924,0.35606 10.88491,-0.97203 0,0 z m -21.03494,3.35742 c -7.00314,-0.18207 7.95987,-0.0576 0,0 z"
       id="path4392"
       inkscape:connector-curvature="0"
       sodipodi:nodetypes="ccccccccacccccccccc" />
    <rect
       style="color:#000000;fill:#899ed3;fill-opacity:1;stroke:none;stroke-width:2;marker:none;visibility:visible;display:inline;overflow:visible;enable-background:accumulate"
       id="rect4074"
       width="25.253813"
       height="24.243662"
       x="-117.89455"
       y="339.9335" />
  </g>
</svg>
