<?xml version="1.0" encoding="UTF-8" standalone="no"?>
<!-- Created with Inkscape (http://www.inkscape.org/) -->

<svg
   xmlns:dc="http://purl.org/dc/elements/1.1/"
   xmlns:cc="http://creativecommons.org/ns#"
   xmlns:rdf="http://www.w3.org/1999/02/22-rdf-syntax-ns#"
   xmlns:svg="http://www.w3.org/2000/svg"
   xmlns="http://www.w3.org/2000/svg"
   xmlns:sodipodi="http://sodipodi.sourceforge.net/DTD/sodipodi-0.dtd"
   xmlns:inkscape="http://www.inkscape.org/namespaces/inkscape"
   width="210mm"
   height="297mm"
   id="svg3232"
   version="1.1"
   inkscape:version="0.48.5 r10040"
   sodipodi:docname="Scenar-College.svg">
  <defs
     id="defs3234" />
  <sodipodi:namedview
     id="base"
     pagecolor="#ffffff"
     bordercolor="#666666"
     borderopacity="1.0"
     inkscape:pageopacity="0.0"
     inkscape:pageshadow="2"
     inkscape:zoom="1.4"
     inkscape:cx="442.93276"
     inkscape:cy="645.86579"
     inkscape:document-units="px"
     inkscape:current-layer="layer1"
     showgrid="false"
     inkscape:window-width="1910"
     inkscape:window-height="1006"
     inkscape:window-x="8"
     inkscape:window-y="51"
     inkscape:window-maximized="0" />
  <metadata
     id="metadata3237">
    <rdf:RDF>
      <cc:Work
         rdf:about="">
        <dc:format>image/svg+xml</dc:format>
        <dc:type
           rdf:resource="http://purl.org/dc/dcmitype/StillImage" />
        <dc:title></dc:title>
      </cc:Work>
    </rdf:RDF>
  </metadata>
  <g
     inkscape:label="Calque 1"
     inkscape:groupmode="layer"
     id="layer1">
    <path
       style="fill:#899ed3;fill-opacity:1"
       d="m 297.53036,262.87527 c -3.66454,-7.41979 10.1824,-5.85517 13.94789,-10.49318 5.95344,-3.06944 11.25004,-7.29298 13.17589,-11.7812 1.74641,-2.08575 7.12977,-4.57306 3.97131,-6.73103 4.85474,-5.81455 8.93044,-12.3334 11.73721,-19.37526 0.52483,-5.86915 4.49887,-13.84177 4.50921,-20.89938 1.89026,-19.8354 -4.80856,-40.88416 -19.18193,-54.8914 -5.19803,-4.64135 -10.45804,-6.15553 -16.27085,-10.0581 -6.17727,-3.3285 -12.45097,-4.02895 -19.01343,-5.27577 -20.88878,-3.74186 -42.87997,4.36738 -57.82539,19.09873 -3.28969,-1.88467 -6.20835,6.47201 -8.78523,8.70782 -4.31935,6.0852 -7.00955,13.62942 -9.44954,20.23331 -1.93912,5.48135 -1.85851,12.66766 -1.6878,18.81231 1.02763,15.23471 8.04209,30.45327 20.50091,39.63877 4.86682,5.83875 13.70124,9.68061 21.30722,12.34812 4.58506,2.98833 16.073,-0.33805 12.54297,7.95142 -5.65914,0.15326 -12.72745,-3.81532 -17.02698,-2.81908 -4.5552,1.03095 -11.15135,-3.89648 -15.94994,-6.41295 -3.31837,2.76586 -5.61876,1.03941 -7.7849,-2.91886 -5.18499,-1.99373 -10.29918,-10.62148 -13.73924,-16.03427 -2.11043,-5.09526 -5.39156,-9.46071 -8.74426,-13.79074 4.0344,-1.5214 2.86243,-8.2593 -1.83037,-7.22896 1.85403,-8.59606 0.56393,-17.46022 2.61579,-26.02714 1.41855,-6.83508 3.20689,-13.55681 3.87416,-20.53008 5.87369,-1.3865 7.12127,-11.61194 12.44436,-15.70698 3.40565,-2.22022 2.74014,-4.48519 1.20318,-6.51661 11.75638,-11.66913 27.40132,-19.44239 43.90143,-21.27146 6.63092,-2.41933 15.61672,-1.90584 23.16397,-1.15058 27.90811,3.41903 52.42036,23.70945 62.14938,49.92443 2.87867,4.76492 2.99521,11.8372 5.97807,15.71838 -0.9333,6.12157 1.25195,12.28276 0.39309,18.46936 -0.42319,9.09524 -2.43247,18.12427 -5.9958,26.50681 1.2138,1.98983 -1.50404,2.93818 -2.21099,4.73817 -3.30583,6.50814 -7.45804,12.618 -12.46679,17.93605 -4.85337,4.40972 -11.59526,9.90007 -16.44901,15.38749 -3.51647,-1.59813 -10.69068,8.4097 -12.56608,1.68247 -2.88182,0.48178 -8.53665,4.7223 -10.43751,2.75939 z"
       id="path3035"
       inkscape:connector-curvature="0" />
    <path
       style="fill:#899ed3;fill-opacity:1"
       d="m 408.67632,314.8232 c -1.65652,-1.16368 -0.23947,-3.89019 1.70192,-3.38001 4.22651,-0.10699 8.45646,-0.1559 12.6843,-0.2406 -2.75121,-2.20374 -5.64192,-4.20796 -8.30607,-6.55039 -7.27227,-5.94197 -14.51518,-11.94461 -21.79346,-17.86324 -3.24019,-2.48296 -6.37134,-5.12923 -9.58883,-7.64828 -8.55069,-7.07006 -17.2698,-13.97333 -25.66741,-21.19484 -1.02799,-1.86372 -3.15652,-2.85818 -4.68389,-4.33552 -1.99821,-1.74652 -4.20865,-3.29295 -6.07013,-5.17083 -1.13471,-1.74056 1.42493,-3.76292 2.86351,-2.33263 0.98807,0.82767 1.92948,1.69 3.12948,2.11055 4.59591,3.79771 9.2785,7.46112 13.88794,11.2332 6.38771,4.99366 12.5175,10.37701 18.93933,15.31069 9.34511,7.7711 18.93001,15.30637 28.08522,23.26435 1.65885,1.87687 3.86079,3.29964 5.62837,5.09551 2.18635,1.78394 4.28849,3.65604 6.37902,5.52811 -0.68802,-2.90187 -1.69347,-5.76318 -2.17065,-8.69325 0.81311,-1.629 -1.50068,-3.81924 0.38684,-5.16769 1.5874,-1.15403 3.41004,0.72613 3.24762,2.41011 1.30853,5.34826 3.01921,10.64682 4.07456,16.02854 0.39295,2.12286 -1.60853,3.64861 -3.43474,2.5631 -2.0705,-1.50986 -6.51673,0.12642 -9.33876,-0.39482 -1.80726,-0.45206 -4.43844,-0.30172 -3.60758,-0.27886 -2.02001,-0.12432 -4.15073,0.40218 -6.10486,-0.13465 l -0.11083,-0.0584 -0.13082,-0.10028 0,0 z"
       id="path3210"
       inkscape:connector-curvature="0"
       sodipodi:nodetypes="cccccccccccccccccccccccccccc" />
    <text
       xml:space="preserve"
       style="font-size:10px;font-style:normal;font-weight:normal;text-align:center;line-height:125%;letter-spacing:0px;word-spacing:0px;text-anchor:middle;fill:#000000;fill-opacity:1;stroke:none;font-family:Sans"
       x="278.89914"
       y="176.8197"
       id="text3279"
       sodipodi:linespacing="125%"><tspan
         sodipodi:role="line"
         id="tspan3281"
         x="278.89914"
         y="176.8197"
         style="font-size:16px;font-style:normal;font-variant:normal;font-weight:normal;font-stretch:normal;font-family:'Mom´sTypewriter';-inkscape-font-specification:'Mom´sTypewriter'">Jean-Pierre</tspan><tspan
         sodipodi:role="line"
         x="278.89914"
         y="196.8197"
         style="font-size:16px;font-style:normal;font-variant:normal;font-weight:normal;font-stretch:normal;font-family:'Mom´sTypewriter';-inkscape-font-specification:'Mom´sTypewriter'"
         id="tspan3285">Lelandais</tspan><tspan
         sodipodi:role="line"
         x="278.89914"
         y="210.80336"
         style="font-style:normal;font-variant:normal;font-weight:normal;font-stretch:normal;font-family:'Mom´sTypewriter';-inkscape-font-specification:'Mom´sTypewriter'"
         id="tspan3283">Gardien</tspan></text>
    <path
       style="fill:#899ed3;fill-opacity:1"
       d="m 301.48621,582.48692 c -3.66454,-7.41979 10.1824,-5.85517 13.94789,-10.49318 5.95344,-3.06944 11.25004,-7.29298 13.17589,-11.7812 1.74641,-2.08575 7.12977,-4.57306 3.97131,-6.73103 4.85474,-5.81455 8.93044,-12.3334 11.73721,-19.37526 0.52483,-5.86915 4.49887,-13.84177 4.50921,-20.89938 1.89026,-19.8354 -4.80856,-40.88416 -19.18193,-54.8914 -5.19803,-4.64135 -10.45804,-6.15553 -16.27085,-10.0581 -6.17727,-3.3285 -12.45097,-4.02895 -19.01343,-5.27577 -20.88878,-3.74186 -42.87997,4.36738 -57.82539,19.09873 -3.28969,-1.88467 -6.20835,6.47201 -8.78523,8.70782 -4.31935,6.0852 -7.00955,13.62942 -9.44954,20.23331 -1.93912,5.48135 -1.85851,12.66766 -1.6878,18.81231 1.02763,15.23471 8.04209,30.45327 20.50091,39.63877 4.86682,5.83875 13.70124,9.68061 21.30722,12.34812 4.58506,2.98833 16.073,-0.33805 12.54297,7.95142 -5.65914,0.15326 -12.72745,-3.81532 -17.02698,-2.81908 -4.5552,1.03095 -11.15135,-3.89648 -15.94994,-6.41295 -3.31837,2.76586 -5.61876,1.03941 -7.7849,-2.91886 -5.18499,-1.99373 -10.29918,-10.62148 -13.73924,-16.03427 -2.11043,-5.09526 -5.39156,-9.46071 -8.74426,-13.79074 4.0344,-1.5214 2.86243,-8.2593 -1.83037,-7.22896 1.85403,-8.59606 0.56393,-17.46022 2.61579,-26.02714 1.41855,-6.83508 3.20689,-13.55681 3.87416,-20.53008 5.87369,-1.3865 7.12127,-11.61194 12.44436,-15.70698 3.40565,-2.22022 2.74014,-4.48519 1.20318,-6.51661 11.75638,-11.66913 27.40132,-19.44239 43.90143,-21.27146 6.63092,-2.41933 15.61672,-1.90584 23.16397,-1.15058 27.90811,3.41903 52.42036,23.70945 62.14938,49.92443 2.87867,4.76492 2.99521,11.8372 5.97807,15.71838 -0.9333,6.12157 1.25195,12.28276 0.39309,18.46936 -0.42319,9.09524 -2.43247,18.12427 -5.9958,26.50681 1.2138,1.98983 -1.50404,2.93818 -2.21099,4.73817 -3.30583,6.50814 -7.45804,12.618 -12.46679,17.93605 -4.85337,4.40972 -11.59526,9.90007 -16.44901,15.38749 -3.51647,-1.59813 -10.69068,8.4097 -12.56608,1.68247 -2.88182,0.48178 -8.53665,4.7223 -10.43751,2.75939 z"
       id="path3035-3"
       inkscape:connector-curvature="0" />
    <text
       xml:space="preserve"
       style="font-size:10px;font-style:normal;font-weight:normal;text-align:center;line-height:125%;letter-spacing:0px;word-spacing:0px;text-anchor:middle;fill:#000000;fill-opacity:1;stroke:none;font-family:Sans"
       x="284.99783"
       y="491.43134"
       id="text3279-6"
       sodipodi:linespacing="125%"><tspan
         sodipodi:role="line"
         id="tspan3281-7"
         x="284.99783"
         y="491.43134"
         style="font-size:16px;font-style:normal;font-variant:normal;font-weight:normal;font-stretch:normal;font-family:'Mom´sTypewriter';-inkscape-font-specification:'Mom´sTypewriter'">Françoise</tspan><tspan
         sodipodi:role="line"
         x="284.99783"
         y="511.52695"
         style="font-size:16px;font-style:normal;font-variant:normal;font-weight:normal;font-stretch:normal;font-family:'Mom´sTypewriter';-inkscape-font-specification:'Mom´sTypewriter'"
         id="tspan3285-5">Debretz</tspan><tspan
         sodipodi:role="line"
         x="284.99783"
         y="525.51056"
         style="font-style:normal;font-variant:normal;font-weight:normal;font-stretch:normal;font-family:'Mom´sTypewriter';-inkscape-font-specification:'Mom´sTypewriter'"
         id="tspan3283-3">Surveillante</tspan><tspan
         sodipodi:role="line"
         x="284.99783"
         y="538.01056"
         style="font-style:normal;font-variant:normal;font-weight:normal;font-stretch:normal;font-family:'Mom´sTypewriter';-inkscape-font-specification:'Mom´sTypewriter'"
         id="tspan4136">Générale</tspan></text>
    <path
       style="fill:#899ed3;fill-opacity:1"
       d="m 538.79667,420.77329 c -3.66454,-7.41979 10.1824,-5.85517 13.94789,-10.49318 5.95344,-3.06944 11.25004,-7.29298 13.17589,-11.7812 1.74641,-2.08575 7.12977,-4.57306 3.97131,-6.73103 4.85474,-5.81455 8.93044,-12.3334 11.73721,-19.37526 0.52483,-5.86915 4.49887,-13.84176 4.50921,-20.89937 1.89026,-19.83541 -4.80856,-40.88417 -19.18193,-54.89141 -5.19803,-4.64135 -10.45804,-6.15553 -16.27085,-10.0581 -6.17727,-3.3285 -12.45097,-4.02895 -19.01343,-5.27577 -20.88878,-3.74186 -42.87997,4.36738 -57.82539,19.09873 -3.28969,-1.88467 -6.20835,6.47201 -8.78523,8.70782 -4.31935,6.0852 -7.00955,13.62942 -9.44954,20.23331 -1.93912,5.48135 -1.85851,12.66766 -1.6878,18.81232 1.02763,15.2347 8.04209,30.45326 20.50091,39.63876 4.86682,5.83875 13.70124,9.68061 21.30722,12.34812 4.58506,2.98833 16.073,-0.33805 12.54297,7.95142 -5.65914,0.15326 -12.72745,-3.81532 -17.02698,-2.81908 -4.5552,1.03095 -11.15135,-3.89648 -15.94994,-6.41295 -3.31837,2.76586 -5.61876,1.03941 -7.7849,-2.91886 -5.18499,-1.99373 -10.29918,-10.62148 -13.73924,-16.03427 -2.11043,-5.09526 -5.39156,-9.46071 -8.74426,-13.79074 4.0344,-1.5214 2.86243,-8.25929 -1.83037,-7.22895 1.85403,-8.59606 0.56393,-17.46023 2.61579,-26.02715 1.41855,-6.83508 3.20689,-13.55681 3.87416,-20.53008 5.87369,-1.3865 7.12127,-11.61194 12.44436,-15.70698 3.40565,-2.22022 2.74014,-4.48519 1.20318,-6.51661 11.75638,-11.66913 27.40132,-19.44239 43.90143,-21.27146 6.63092,-2.41933 15.61672,-1.90584 23.16397,-1.15058 27.90811,3.41903 52.42036,23.70945 62.14938,49.92443 2.87867,4.76492 2.99521,11.8372 5.97807,15.71838 -0.9333,6.12157 1.25195,12.28277 0.39309,18.46937 -0.42319,9.09524 -2.43247,18.12426 -5.9958,26.5068 1.2138,1.98983 -1.50404,2.93818 -2.21099,4.73817 -3.30583,6.50814 -7.45804,12.618 -12.46679,17.93605 -4.85337,4.40972 -11.59526,9.90007 -16.44901,15.38749 -3.51647,-1.59813 -10.69068,8.4097 -12.56608,1.68247 -2.88182,0.48178 -8.53665,4.7223 -10.43751,2.75939 z"
       id="path3035-3-5"
       inkscape:connector-curvature="0" />
    <text
       xml:space="preserve"
       style="font-size:10px;font-style:normal;font-weight:normal;text-align:center;line-height:125%;letter-spacing:0px;word-spacing:0px;text-anchor:middle;fill:#000000;fill-opacity:1;stroke:none;font-family:Sans"
       x="522.30829"
       y="336.8606"
       id="text3279-6-6"
       sodipodi:linespacing="125%"><tspan
         sodipodi:role="line"
         x="522.30829"
         y="336.8606"
         style="font-size:16px;font-style:normal;font-variant:normal;font-weight:normal;font-stretch:normal;font-family:'Mom´sTypewriter';-inkscape-font-specification:'Mom´sTypewriter'"
         id="tspan3285-5-9">Clones</tspan><tspan
         sodipodi:role="line"
         x="524.80829"
         y="350.84424"
         style="font-style:normal;font-variant:normal;font-weight:normal;font-stretch:normal;font-family:'Mom´sTypewriter';-inkscape-font-specification:'Mom´sTypewriter'"
         id="tspan3283-3-1">Nains de </tspan><tspan
         sodipodi:role="line"
         x="522.30829"
         y="363.34424"
         style="font-style:normal;font-variant:normal;font-weight:normal;font-stretch:normal;font-family:'Mom´sTypewriter';-inkscape-font-specification:'Mom´sTypewriter'"
         id="tspan4140">jardin</tspan></text>
    <path
       style="fill:#899ed3;fill-opacity:1"
       d="m 434.69796,403.0052 c -1.42582,1.43711 -3.87503,-0.4185 -3.04546,-2.24636 0.60568,-4.18426 1.26918,-8.36214 1.89708,-12.54395 -2.63526,2.34119 -5.09729,4.85345 -7.85458,7.08549 -7.08088,6.1688 -14.21662,12.29845 -21.27551,18.4771 -2.99275,2.77622 -6.12812,5.41748 -9.15262,8.16523 -8.408,7.23919 -16.67991,14.67247 -25.21144,21.73525 -2.01011,0.69976 -3.34853,2.63062 -5.06182,3.88764 -2.05785,1.67581 -3.95413,3.59458 -6.11847,5.11351 -1.90668,0.82567 -3.46951,-2.03776 -1.81758,-3.21515 0.98209,-0.83475 1.99057,-1.61759 2.60702,-2.72975 4.51685,-3.89137 8.91591,-7.89082 13.4098,-11.79985 5.99726,-5.45641 12.33525,-10.59303 18.27911,-16.09316 9.23271,-7.90432 18.27329,-16.08469 27.65824,-23.77038 2.12924,-1.31938 3.90226,-3.2505 5.96989,-4.69078 2.12635,-1.85504 4.32548,-3.61219 6.5226,-5.35793 -2.97627,0.18995 -5.96594,0.69962 -8.93454,0.677 -1.46896,-1.07563 -4.0173,0.83666 -5.02893,-1.25084 -0.87049,-1.75895 1.28955,-3.23925 2.9222,-2.79581 5.49216,-0.38997 11.00303,-1.18475 16.48559,-1.31952 2.15872,-0.0302 3.32595,2.1995 1.94863,3.81704 -1.83671,1.78693 -0.97187,6.44509 -1.96052,9.13917 -0.7497,1.70544 -1.04421,4.32439 -0.88189,3.50924 -0.46242,1.97029 -0.30194,4.15922 -1.15991,5.99516 l -0.0762,0.0994 -0.12086,0.11204 0,0 z"
       id="path3210-2"
       inkscape:connector-curvature="0"
       sodipodi:nodetypes="cccccccccccccccccccccccccccc" />
    <text
       xml:space="preserve"
       style="font-size:16px;font-style:normal;font-weight:normal;text-align:center;line-height:125%;letter-spacing:0px;word-spacing:0px;text-anchor:middle;fill:#899ed3;fill-opacity:1;stroke:none;font-family:Sans"
       x="23.396233"
       y="571.32605"
       id="text4160"
       sodipodi:linespacing="125%"
       transform="matrix(0.75433129,-0.65649395,0.65649395,0.75433129,0,0)"><tspan
         sodipodi:role="line"
         id="tspan4162"
         x="23.396233"
         y="571.32605"
         style="font-size:16px;font-style:normal;font-variant:normal;font-weight:normal;font-stretch:normal;fill:#899ed3;fill-opacity:1;font-family:'Mom´sTypewriter';-inkscape-font-specification:'Mom´sTypewriter'">craint</tspan></text>
    <text
       xml:space="preserve"
       style="font-size:16px;font-style:normal;font-weight:normal;text-align:center;line-height:125%;letter-spacing:0px;word-spacing:0px;text-anchor:middle;fill:#899ed3;fill-opacity:1;stroke:none;font-family:Sans"
       x="471.95496"
       y="-38.309814"
       id="text4160-7"
       sodipodi:linespacing="125%"
       transform="matrix(0.76907662,0.6391566,-0.6391566,0.76907662,0,0)"><tspan
         sodipodi:role="line"
         id="tspan4162-0"
         x="471.95496"
         y="-38.309814"
         style="font-size:16px;font-style:normal;font-variant:normal;font-weight:normal;font-stretch:normal;fill:#899ed3;fill-opacity:1;font-family:'Mom´sTypewriter';-inkscape-font-specification:'Mom´sTypewriter'">protège</tspan></text>
    <g
       id="g4274"
       transform="matrix(0,-1,1,0,-141.42449,768.92035)">
      <path
         sodipodi:nodetypes="ccccccccccccccccccc"
         inkscape:connector-curvature="0"
         id="path3210-9"
         d="m 470.49377,423.10305 c -12.9777,-0.0132 -25.97694,-0.11698 -38.94072,-0.0999 -5.63862,0.1703 -11.30305,0.0705 -16.94886,0.18233 -15.33207,-0.10496 -30.69885,0.11579 -45.9992,-0.28506 -2.72856,-1.09835 -5.87668,-0.30462 -8.80267,-0.55305 -3.66528,-0.12554 -7.38318,0.14855 -11.01676,-0.2371 -2.73529,-0.87325 -1.75997,-5.2745 1.02982,-4.99893 1.78101,0.0236 3.54234,0.12503 5.19483,-0.47247 8.23873,0.0539 16.45304,-0.1118 24.6839,-0.0972 11.2022,-0.23001 22.46847,0.18259 33.65483,-0.14143 16.79509,0.16204 33.64105,-0.13788 50.39596,0.39012 3.4157,0.5615 7.01649,0.1624 10.47789,0.54219 3.89949,10e-4 7.78578,0.17063 11.6596,0.35001 -3.27102,-2.50709 -6.84659,-4.69355 -9.91644,-7.41498 -0.55173,-2.45476 -4.94253,-2.77995 -4.09854,-5.87248 0.69233,-2.62226 4.28631,-2.20024 5.58294,-0.25484 6.07201,4.58534 12.5313,8.76626 18.36133,13.60853 2.27474,1.93046 1.46353,5.31242 -7.05461,5.23555 -8.51814,-0.0769 -13.36436,0.30093 -18.2633,0.11871 z"
         style="fill:#899ed3;fill-opacity:1" />
      <path
         sodipodi:nodetypes="ccccccccccccccccccc"
         inkscape:connector-curvature="0"
         id="path3210-9-6"
         d="m 373.27626,427.70371 c 12.9777,0.0132 25.97694,0.11698 38.94072,0.0999 5.63862,-0.1703 11.30305,-0.0705 16.94886,-0.18233 15.33207,0.10496 30.69885,-0.11579 45.9992,0.28506 2.72856,1.09835 5.87668,0.30462 8.80267,0.55305 3.66528,0.12554 7.38318,-0.14855 11.01676,0.2371 2.73529,0.87325 1.75997,5.2745 -1.02982,4.99893 -1.78101,-0.0236 -3.54234,-0.12503 -5.19483,0.47247 -8.23873,-0.0539 -16.45304,0.1118 -24.6839,0.0972 -11.2022,0.23001 -22.46847,-0.18259 -33.65483,0.14143 -16.79509,-0.16204 -33.64105,0.13788 -50.39596,-0.39012 -3.4157,-0.5615 -7.01649,-0.1624 -10.47789,-0.54219 -3.89949,-0.001 -7.78578,-0.17063 -11.6596,-0.35001 3.27102,2.50709 6.84659,4.69355 9.91644,7.41498 0.55173,2.45476 4.94253,2.77995 4.09854,5.87248 -0.69233,2.62226 -4.28631,2.20024 -5.58294,0.25484 -6.07201,-4.58534 -12.5313,-8.76626 -18.36133,-13.60853 -2.27474,-1.93046 -1.46353,-5.31242 7.05461,-5.23555 8.51814,0.0769 13.36436,-0.30093 18.2633,-0.11871 z"
         style="fill:#899ed3;fill-opacity:1" />
    </g>
    <path
       style="fill:#ffffff;fill-opacity:1"
       d="m 274.74626,372.89279 c -4.637,0.36425 -13.05089,0.49207 -12.27892,-6.27781 0.48469,-8.18044 0.44643,-16.36912 1.36853,-24.52088 -1.10167,-4.14767 0.28544,-8.42104 5.30662,-6.209 11.6701,0.30728 23.33104,1.21401 34.99557,1.15689 4.14649,0.0586 4.39813,-1.88861 0.19529,-1.8436 -2.48186,-0.11689 -9.1574,0.77873 -9.15091,0.21266 6.55604,-0.12588 13.10132,-0.23474 19.61323,-0.92119 6.98722,-0.28336 3.46003,8.44129 5.13773,11.97223 0.33027,7.38785 0.31241,14.78699 0.46635,22.17255 -0.10637,6.90984 -9.32044,2.57724 -13.80775,3.80415 -6.43743,0.17995 -17.41016,-0.0707 -21.03512,-0.0863 8.71926,-0.0425 17.44181,-0.23132 26.14366,-0.80836 -4.79962,-3.09317 -10.60346,-0.11796 -15.86245,-1.10586 5.02149,-0.69667 -4.91912,0.0818 -7.05689,0.65674 -3.87077,0.33054 -11.01569,-2.68818 -10.99733,1.90752 -1.0185,0.13255 -2.01986,-0.15442 -3.03761,-0.10977 z m 13.69711,-2.33215 c 3.79437,0.0422 -1.52533,-0.73932 0,0 z m 31.00322,-2.33961 c 0.70056,-0.4333 -0.49384,-0.47814 0,0 z m -32.39891,-31.15962 c 2.38579,-0.0431 -2.3364,-0.16098 0,0 z m 20.46161,0.009 c 4.14896,0.0445 -1.45201,-0.24596 0,0 z m 3.13817,-1.94655 c 1.95182,0.128 3.91314,-0.34945 0,0 z m -17.82248,37.47835 c -0.40144,-0.29035 1.11745,0.18561 0,0 z m 6.45399,-1.5422 -0.23808,-0.0211 0.23808,0.0211 z m 1.31956,-0.10427 c -1.52905,-0.0768 2.00431,0.0235 0,0 z m 1.3703,-0.1044 0.009,-2e-5 -0.009,1e-5 0,10e-6 z m 1.52257,-0.0996 c -2.089,-0.0119 1.50985,-0.0524 0,0 z m 1.57332,-0.10047 c -1.52904,-0.0768 2.00431,0.0236 0,0 z m 1.52257,-0.0987 -0.23808,-0.0211 0.23808,0.0211 z m -10.75948,-34.00882 c -1.42951,-0.10238 2.17819,0.0476 0,0 z m -2.3346,-0.10657 c -1.57368,0.12522 2.32783,-0.0694 0,0 z m -1.97933,-0.11186 c 2.49767,-0.58265 9.66796,0.1329 3.0622,-0.0502 -1.02084,-0.0101 -2.04268,-0.0111 -3.0622,0.0502 z m 11.5715,0.006 c -2.51763,-0.0654 2.86158,-0.0207 0,0 z m -15.07341,-0.0983 0.68603,-0.0117 -0.68603,0.0117 z m -3.04513,-0.0999 c -1.57368,0.12523 2.32783,-0.0694 0,0 z m -2.59682,-0.072 c -0.40144,-0.29035 1.11746,0.18562 0,0 z m 11.4277,-0.0179 c -6.67503,-0.28745 -17.25529,-0.80937 -21.50349,-1.12202 7.50179,0.0115 14.99966,0.42399 22.46779,1.12206 l -0.9643,-4e-5 z"
       id="path4392"
       inkscape:connector-curvature="0" />
    <text
       xml:space="preserve"
       style="font-size:10px;font-style:normal;font-weight:normal;text-align:center;line-height:125%;letter-spacing:0px;word-spacing:0px;text-anchor:middle;fill:#899ed3;fill-opacity:1;stroke:none;font-family:Sans"
       x="284.94321"
       y="359.94449"
       id="text4223"
       sodipodi:linespacing="125%"><tspan
         sodipodi:role="line"
         id="tspan4225"
         x="284.94321"
         y="359.94449"
         style="font-size:16px;font-style:normal;font-variant:normal;font-weight:normal;font-stretch:normal;fill:#899ed3;fill-opacity:1;font-family:'Mom´sTypewriter';-inkscape-font-specification:'Mom´sTypewriter'">aime</tspan></text>
  </g>
</svg>
