<?xml version="1.0" encoding="UTF-8" standalone="yes"?>
<!-- Created with sK1/UniConvertor (http://sk1project.org/) -->
<svg xmlns="http://www.w3.org/2000/svg" xmlns:xlink="http://www.w3.org/1999/xlink"
  width="744pt" height="610pt" viewBox="0 0 744 610"
  fill-rule="evenodd">
<g>
<g>
<path style="stroke:none; fill:#000000" d="M 360.8 0.700012C 361.5 1 362.4 0.900024 362.7 0.600037C 363.1 0.300049 362.5 6.10352e-05 361.4 0.100037C 360.3 0.100037 360 0.400024 360.8 0.700012z"/>
<path style="stroke:none; fill:#000000" d="M 391.8 0.700012C 393.5 0.900024 396.5 0.900024 398.3 0.700012C 400 0.5 398.6 0.299988 395 0.299988C 391.4 0.299988 390 0.5 391.8 0.700012z"/>
<path style="stroke:none; fill:#000000" d="M 407.3 0.700012C 408.8 0.900024 411 0.900024 412.3 0.700012C 413.5 0.5 412.3 0.299988 409.5 0.299988C 406.8 0.299988 405.7 0.5 407.3 0.700012z"/>
<path style="stroke:none; fill:#000000" d="M 416.3 0.700012C 417.2 0.900024 418.8 0.900024 419.8 0.700012C 420.7 0.400024 419.9 0.200012 418 0.200012C 416.1 0.200012 415.3 0.400024 416.3 0.700012z"/>
<path style="stroke:none; fill:#000000" d="M 424.1 0.399963C 425.1 1.49994 744 1.99994 744 0.999939C 744 0.299927 693.5 -6.10352e-05 583.8 -6.10352e-05C 495.7 -6.10352e-05 423.9 0.199951 424.1 0.399963z"/>
<path style="stroke:none; fill:#000000" d="M 556.3 6.70001C 555.6 6.90002 555 7.79999 555 8.60004C 555 9.50006 553.9 10.0001 552.1 10.0001C 548.9 10.0001 547.1 8.50006 549.2 7.70007C 550 7.30005 549.9 7.1001 548.8 7.1001C 547.9 7.00012 545.8 7.80011 544.2 8.70007C 541.8 10.1001 540.7 10.2001 538.8 9.30005C 536 7.90002 515.9 8.30005 505 9.90002C 500.9 10.6 494.8 11.5 491.5 11.9C 475.7 14.2 458.6 17.1 450 19C 444.8 20.1 437.2 21.7 433.2 22.5C 429.1 23.3 425.4 24.3 424.8 24.6C 424.3 24.9 421.5 25.6 418.7 26C 415.8 26.5 411 27.5 408 28.4C 405 29.3 400.3 30.5 397.5 31C 394.8 31.6 390.3 32.6 387.5 33.4C 373.6 37.4 367.7 39.1 358.5 41.4C 341.9 45.7 316.5 53.9 319.4 53.9C 320.9 54 321.1 54.3 320.3 55.1C 319.4 56.0001 318.3 56.0001 316 55.1C 314.2 54.5001 312.3 54.3 311.8 54.6C 311.2 55.0001 307.3 56.1 303.1 57.0001C 292.5 59.5001 284.7 61.7001 276.5 64.5001C 272.7 65.8 264.8 68.3 259 70.0001C 253.2 71.8 246 74.0001 243.1 75.0001C 236.3 77.2001 234.7 76.7001 235.5 72.9001C 236 70.6001 235.7 69.5001 233.8 68.0001C 232.6 66.9001 230.8 66.1 229.8 66.0001C 228.2 66.0001 222 72.9001 222 74.8C 222 76.0001 219.6 77.0001 216.7 77.0001C 215.6 77.0001 213.5 78.1 212.1 79.4001C 209.2 82.2001 205.2 82.8001 173.6 85.5001C 163.7 86.4001 154.7 87.3 153.6 87.5001C 152.4 87.8 148.4 88.2001 144.5 88.5001C 129.7 89.5001 111.3 91.1 106 91.8C 101.4 92.4 100.5 92.8 100.5 94.5001C 100.5 96.4001 101.1 96.5001 110 96.2001C 115.2 96.0001 126.7 95.2001 135.5 94.4001C 150.9 93.0001 159.1 92.3001 186 90.1001C 202.5 88.7001 216 87.2001 218.7 86.4001C 220.2 86.0001 221.2 86.3001 221.5 87.3001C 222.1 88.7001 220.9 90.7001 211 104.5C 201.6 117.7 196.5 125.1 182 146.4C 181.2 147.5 178.7 151.1 176.3 154.3C 173.9 157.4 172 160.2 172 160.4C 172 160.9 164.2 172.4 157.5 182C 154.9 185.6 149.1 194.1 144.5 201C 139.8 207.9 130 222.3 122.6 233C 115.2 243.7 104.3 259.6 98.3999 268.3C 92.3999 277 85.6999 286.8 83.4999 290C 81.2999 293.2 77.3999 298.3 74.7999 301.3C 72.0999 304.3 69.9999 307.2 69.9999 307.9C 69.9999 308.5 69.0999 309 67.9999 309C 66.5999 309 65.9999 308.3 65.8999 306.7C 65.7999 304.6 65.7999 304.6 65.0999 307C 64.2999 309.8 60.6999 310.9 58.3999 308.9C 57.0999 307.9 57.1999 307.5 58.6999 305.8C 59.8999 304.5 59.9999 303.6 59.2999 302.9C 57.6999 301.3 55.8999 302.8 56.1999 305.3C 56.3999 307.1 55.8999 307.6 53.4999 307.8C 51.5999 308.1 50.1999 307.6 49.2999 306.5C 48.6999 305.5 47.3999 305 46.5999 305.3C 45.2999 305.8 23.9999 299.9 16.8999 297.2C 10.0999 294.5 5.89988 293.7 4.79988 294.8C 2.99988 296.6 4.39988 297.4 15.7999 300.9C 25.1999 303.9 26.2999 304.5 28.4999 308C 32.5999 314.4 32.4999 315.9 28.0999 329.2C 17.7999 360.1 18.1999 358.3 19.5999 366.3C 20.1999 370.3 21.3999 375.5 22.2999 378C 23.0999 380.5 23.9999 384.2 24.2999 386.2C 24.8999 389.9 22.6999 400.3 19.5999 409C 14.7999 422.5 8.49988 441.6 6.39988 449.5C 4.99988 454.4 3.09988 459.7 1.99988 461.2C 0.299878 463.5 -0.000121593 465.5 -0.000121593 474C -0.000121593 481 0.399878 484.7 1.39988 486.3C 3.79988 489.9 10.5999 511.5 14.3999 527.5C 16.3999 535.7 18.6999 545 19.3999 548C 20.1999 551 21.0999 554.8 21.3999 556.3C 21.9999 558.7 22.4999 559.1 24.7999 558.8C 27.6999 558.5 27.6999 558.6 26.0999 549.8C 24.7999 542.3 26.1999 537 35.9999 510.5C 38.0999 505 40.3999 498.7 41.0999 496.5C 43.3999 489.4 43.5999 489.3 55.1999 493C 73.2999 498.7 83.3999 501.8 85.9999 502.5C 87.3999 502.8 90.0999 503.7 91.9999 504.5C 93.8999 505.2 97.2999 506.3 99.4999 506.9C 101.7 507.4 109.1 509.7 116 511.8C 122.9 514 131.9 516.7 136 517.9C 140.1 519.1 144.6 520.5 146 521C 147.4 521.4 154.4 523.6 161.5 525.8C 168.7 528 180.4 531.6 187.5 533.8C 194.7 536 205.2 539.3 211 541C 216.8 542.8 224 545.1 227 546.1C 230 547.1 237.2 549.3 243 551C 261.9 556.7 279.4 562 285 563.9C 288 564.9 292.5 566.3 295 567C 299.3 568.2 306.2 570.3 318 574C 321 575 325.3 576.2 327.5 576.8C 329.7 577.5 339.2 580.4 348.5 583.4C 357.9 586.4 369.6 590 374.5 591.5C 379.5 593 387.3 595.4 392 596.9C 396.7 598.4 402.3 600.2 404.5 600.7C 409 601.9 419 605.6 419.8 606.5C 420.1 606.8 420 607.3 419.6 607.8C 419.2 608.2 324.6 608.3 209.4 608.1C 55.5999 607.9 -0.000152588 608.1 -0.000152588 608.9C -0.000152588 609.7 61.8998 609.9 233.3 609.8C 361.5 609.7 460 609.4 452 609.3C 444.1 609.1 437.1 608.5 436.6 608C 435.7 607.1 439 600.8 444.7 592.9C 446.5 590.3 448 587.8 448 587.3C 448 586.7 448.9 585.5 450 584.5C 451.1 583.5 452 582.3 452 581.7C 452 581.2 453.8 578.6 456 576C 458.2 573.4 460 570.9 460 570.5C 460 569.6 468.6 555.4 476.4 543.4C 483.4 532.7 493.5 517 500.5 506C 513.5 485.5 517.3 480.1 518.6 479.6C 519.4 479.3 520 478.3 520 477.3C 520 476.3 521.6 473 523.6 470C 525.6 467 528.9 461.8 530.9 458.5C 532.9 455.2 535.3 451.4 536.3 450C 539.5 445.6 549.2 430.5 549.9 429C 551.9 424.3 559.5 412.9 561.6 411.5C 562.9 410.7 564 409.2 564 408.2C 564 407.2 567.6 400.8 572 394C 576.3 387.1 581.7 378.5 584 374.9C 586.2 371.2 591.1 365.3 594.8 361.8C 600.8 356 602.4 355 610 352.6C 617.7 350.1 624 346.1 624 343.8C 624 343.3 625 341.6 626.2 339.9C 628.8 336.5 629.2 328.2 627 323C 625.3 318.8 626.2 309.5 628.9 304C 630.1 301.5 633.4 295.8 636.3 291.2C 639.2 286.7 643.9 279 646.9 274.2C 649.8 269.4 654.2 263 656.6 259.8C 659 256.7 661 253.5 661 252.6C 661 251.8 661.5 250.8 662.1 250.5C 662.7 250.1 662.8 248.6 662.5 247C 661.8 243.8 662.3 242.6 668.8 232.5C 679 216.8 681.7 212.3 684 207.7C 685.3 205 688 200.9 690 198.7C 696.8 190.9 698 186.7 693 187.7C 690.7 188.1 688.5 187.5 684.1 185.1C 679.9 182.9 676.9 182 673.6 182L 669 182L 666.3 176.4C 664.8 173.2 662.4 169.9 660.5 168.7C 658.8 167.5 654.7 164.8 651.4 162.6C 644.2 157.9 638.3 152.5 636.3 148.6C 632.5 141.3 631 131.8 633.1 127.9C 633.8 126.6 633.8 125.5 633.2 124.7C 631.7 122.9 633 29.4001 634.5 27.3001C 635.6 25.8001 636 25.8001 639.9 27.3001C 642.2 28.3001 644.7 29.0001 645.5 29.0001C 647.6 29.0001 647.4 25.1001 645.3 24.4001C 644.3 24.0001 642.2 23.2001 640.5 22.5001C 620.7 13.8001 606.4 10.3001 578.5 7.50012C 563.9 6.00012 558.4 5.79999 556.3 6.70001zM 584.5 13.1C 590 13.7 596.8 14.6 599.5 15.1C 602.3 15.6 607 16.5001 610 17.1C 613 17.7 617.8 19.0001 620.5 20.0001C 623.3 21.0001 626.4 22.0001 627.5 22.2001C 629 22.5001 629.4 23.2001 629.1 25.0001C 628.4 29.7001 627.5 129.5 628.1 135C 628.5 138 629.1 142.2 629.5 144.2C 630.3 148.4 629.1 149.2 627.4 145.7C 622.8 136.4 616.8 125.4 615.7 124.1C 614.9 123.2 611 116.6 607 109.5C 603 102.3 599 95.4001 598.2 94.0001C 597.3 92.6 594.5 87.4001 591.9 82.3C 589.2 77.3 586 71.3 584.6 69.1C 583.1 66.9 582 64.8 582 64.6C 582 64.3 580.6 61.7 578.9 58.8C 577.1 55.9 574.4 51.0001 572.7 48.0001C 571 45.0001 568.9 41.3 567.8 39.8C 566.8 38.4 566 37.0001 566 36.7001C 566 36.5001 563.3 31.4001 560 25.5001C 554.4 15.5001 553.4 13.0001 554.4 11.9001C 555.1 11.2001 574 11.9 584.5 13.1zM 479.8 16.8C 480.3 18.5001 477.1 19.5001 475.7 18.1C 474.8 17.2 474.9 16.7 476 16.0001C 477.8 14.9001 479.2 15.2001 479.8 16.8zM 532.8 18.2001C 534.4 19.8 534.5 74.6001 532.9 75.6001C 531.2 76.6001 519.1 77.2001 512.2 76.5001C 506.7 75.9001 505.9 75.6001 505.4 73.4001C 504.7 70.5001 503.4 70.3002 502.7 72.9001C 502.3 74.7001 501.5 74.8002 493.9 74.3002C 488.5 74.0002 485.1 73.3002 484.4 72.4001C 482.9 70.6002 482 70.6002 482 72.5001C 482 73.3001 481.6 74.0001 481 74.0001C 480.4 74.0001 480 65.8001 480 51.5001L 480 29.1001L 483 25.7001C 484.9 23.5001 487.5 21.9001 490.2 21.2001C 494.9 20.1001 511.2 18.1001 520 17.7001C 523 17.5001 526.9 17.3 528.6 17.2001C 530.2 17.1001 532.1 17.5001 532.8 18.2001zM 552.5 20.8C 553.6 22.2001 556.1 26.3 558.1 29.9C 560.1 33.5 564.3 41 567.4 46.5C 570.6 52 573.8 57.8 574.6 59.5C 575.4 61.1 577.1 64.3 578.5 66.5C 583.1 73.7 583.6 75 581.9 76.1C 581.1 76.6 571.7 77 560.8 76.9C 543.9 76.9 541 76.7 539.8 75.3C 538.8 74 538.5 67.9 538.6 46.7C 538.8 16.1 538.6 16.8 546.3 17.7C 549.2 18.1 551.1 19.0001 552.5 20.8zM 439 24.9C 439 25.4 437.5 26 435.8 26.3C 432.7 26.7001 414.1 31.9 400.3 36.1C 392.5 38.5001 391 38.5001 391 36.1C 391 33.9 390.7 34.0001 404 31.0001C 409.2 29.9001 415.1 28.5001 417 28.0001C 418.9 27.5001 422.9 26.8 425.8 26.4001C 428.7 26.0001 431.3 25.3001 431.6 24.9001C 432.3 23.7001 439 23.7 439 24.9zM 473.7 26.4C 474.5 27.2 474.9 34.7 475.1 51.5L 475.4 75.5L 471.5 76C 469.3 76.3 465.3 76.5 462.5 76.4C 459.8 76.3 437 76.1 411.9 76.1L 366.3 76.0001L 365.2 73.5001C 363.7 70.3 363.7 62.0001 365.1 58.3C 367.5 51.9 370.5 50.5001 396 43.5001C 410.1 39.6 416.4 38.1 416.8 38.5001C 417 38.7001 416.3 40.1 415.2 41.7001C 413.8 43.7001 413 46.8 412.7 52.5001C 411.8 65.2001 411.9 65.2001 421.4 68.9001C 429.1 71.8001 430.6 72.0001 442.4 72.0001C 449.3 72.0001 455 71.7001 455 71.2001C 455 70.8 449 70.5001 441.8 70.5001C 430 70.5001 427.8 70.2001 422.3 68.0001C 415.2 65.2001 415 64.9001 415 53.7001C 415 46.3 415.2 45.7001 417.9 42.9001C 421.1 39.8001 423.3 39.4001 429.5 41.2001C 431.7 41.8 439.4 42.6001 446.5 42.9001L 459.5 43.5001L 459.8 53.2001C 459.9 58.6001 460.4 63.0001 460.9 63.0001C 462.1 63.0001 463 44.8 461.9 42.8C 461.2 41.5001 458.9 41.1 448.8 40.7001C 435.6 40.2001 420.8 37.9001 422.6 36.8C 423.9 35.9 433.5 33.2001 439.5 31.9C 445.7 30.6 450.8 29.3 460 26.7C 468.5 24.2 471.4 24.2 473.7 26.4zM 338.7 51.6C 339.3 53.2 336.3 60.0001 335.1 60.0001C 333.4 59.9001 331.4 57.2001 331.4 55.0001C 331.4 50.8 337.3 48.0001 338.7 51.6zM 363 53.0001C 363 53.6 362.3 55.5001 361.4 57.2001C 360.3 59.4001 360 61.6001 360.5 65.4001C 360.8 68.2001 361.3 79.6001 361.6 90.8001C 362.3 117.2 362.8 116.2 348.7 115.8L 338.5 115.5L 338.6 101C 338.6 93.0001 338.8 85.4001 338.8 84.0001C 338.9 82.6001 338.7 78.0001 338.4 73.7001L 337.8 66.0001L 343.9 66.0001L 349.9 66.0001L 350.2 74.2001C 350.4 79.7001 350.9 82.5001 351.8 82.8001C 352.8 83.1001 353 81.1001 352.8 73.9001L 352.5 64.5001L 349.5 64.0001C 347.4 63.6 346.3 62.7001 345.6 60.7001C 344.4 57.3 345.3 56.3 352.2 54.0001C 358.2 51.9001 363 51.5001 363 53.0001zM 342 59.6C 342 61.3 341.5 62.0001 340 62.0001C 337.8 62.0001 337.3 59.1 339.2 57.2001C 340.8 55.6001 342 56.6 342 59.6zM 328.6 64.7C 331.5 67.1 332 68.1 332 71.8C 332 75.4 331.6 76.2 329.6 77C 325.6 78.5 283.4 77.8 281.8 76.2C 280.7 75.1 280.8 74.6 282.4 73.4C 283.5 72.6 285.4 72 286.7 72C 288 72 292.1 71.1 295.8 70C 302.4 68 303.9 67.5 313 65C 315.5 64.3 318.4 63.4 319.5 63C 323 61.5 325 61.9 328.6 64.7zM 281.8 67.7C 282.1 69.9 280.9 70.5 271 72.8C 264.1 74.5 253.9 77 250 78.2C 239.6 81.1 231 82.5 231 81.1C 231 80.5001 231.9 80.0001 233 80.0001C 234.1 80.0001 235.8 79.6 236.8 79.1C 238.9 77.9 253.8 72.9 264 70.0001C 268.1 68.8 273.1 67.2001 275 66.5001C 279.5 64.7001 281.4 65 281.8 67.7zM 232.3 72C 232.1 75.7 229.9 78 226.4 78C 223 78 222.9 76.9 225.8 72.2C 227.7 69.3 229.1 68.1 230.5 68.3C 232.1 68.5 232.5 69.2 232.3 72zM 336 78.5C 336 79.9 335.6 81 335 81C 334.5 81 334 79.9 334 78.5C 334 77.1 334.5 76 335 76C 335.6 76 336 77.1 336 78.5zM 272 78.4C 272 80.4 269.3 82.3 267.5 81.6C 265.7 80.9 265.5 78.4 267.3 77.7C 269.7 76.7 272 77 272 78.4zM 538 79.1C 538 79.6 537.3 80.0001 536.5 80.0001C 535 80.0001 534.5 78.8 535.6 77.7001C 536.4 76.9001 538 77.8 538 79.1zM 263.8 95.7L 263.5 111.5L 241.5 111.8C 219.1 112.1 212 111.3 212 108.3C 212 107.6 213 105.4 214.3 103.5C 216.4 100.2 216.7 100 222.6 100C 227 100 229.1 100.5 230 101.5C 230.7 102.4 232.3 103 233.4 102.8C 235.2 102.5 235.6 101.6 236 95.9C 236.7 86.4999 238 85.1 248.1 82.4999C 252.7 81.2 258.2 80.2 260.3 80.0999L 264.1 79.9999L 263.8 95.7zM 447.3 81.9L 456 82L 456 85.9L 456 89.9L 451.3 90.2C 447.8 90.4 446.5 90.9 446.5 92C 446.5 93.1 447.8 93.6 451.3 93.8L 456.1 94.1L 455.8 98.3C 455.5 102.5 455.5 102.5 451 103C 447.3 103.4 446.5 103.9 446.5 105.5C 446.5 107.2 447.3 107.5 451.3 107.8C 456.1 108.1 456.1 108.2 455.8 111.3L 455.5 114.5L 413.6 115.4C 386 116 371.1 115.9 370.1 115.3C 368.8 114.5 368.5 111.6 368.2 98.2C 368 83.5 368.1 82.1 369.7 81.7C 370.7 81.4 386.6 81.2999 405 81.4999C 423.4 81.7 442.4 81.9 447.3 81.9zM 497.8 81.8C 498.7 82.4 498.2 83.4 495.9 85.6C 493.1 88.3 492.8 88.4 491.6 86.7C 490.7 85.6 489.1 85 486.9 85.1C 484.5 85.2 484.2 85.4 485.8 85.7C 487.9 86.1 488 88 486 88C 484.9 88 481 84 481 82.9C 481 81.5 495.8 80.6 497.8 81.8zM 312.4 83.5001C 313.1 85.4001 315.4 85.4001 317 83.5001C 318 82.3 319.9 82.0001 324.9 82.2001L 331.5 82.5001L 331.8 98.5001C 332.1 118.8 332.9 117.9 315 118C 306.5 118 302 117.6 301.2 116.8C 300.4 116 300 111.2 300 101.8C 300 84.4 300.9 82.0001 307.4 82.0001C 310.4 82.0001 312 82.5001 312.4 83.5001zM 475.2 96.5001C 475 104.2 474.7 111.8 474.4 113.3C 473.8 116 473.7 116.1 467.7 115.8C 461.8 115.5 461.5 115.4 461.2 112.8C 461 111.3 461.6 109 462.4 107.7C 463.8 105.7 463.8 105.1 462.5 103.4C 461.5 102.1 461.1 98.9001 461 93.3C 461 81.8 461 81.9 468.9 82.2001L 475.5 82.5001L 475.2 96.5001zM 586 83.0001C 586 83.5001 583.5 84.0001 580.5 84.0001C 575.6 84.0001 575 84.2001 574.4 86.4001C 573.3 90.9001 564.5 90.6001 562 86.0001C 561.1 84.4001 560.1 84.0001 557.7 84.2001L 554.5 84.5001L 554.3 98.0001C 553.9 117.2 554.3 116.4 546.6 115.8C 543.1 115.5 539.7 114.9 539.1 114.6C 537.9 113.8 537.5 86.5001 538.6 83.6C 539.1 82.2 542.2 82.0001 562.6 82.0001C 577.5 82.0001 586 82.4001 586 83.0001zM 514.9 83.6C 517.5 84.1 518 84.7 518 87.1C 518 88.6 518.5 90.2 519.1 90.6C 520.4 91.4 522 89.2 521.3 87.5001C 520.4 85.1 523.6 83.3 527.7 83.9001L 531.5 84.5001L 531.8 95.4001C 531.9 101.4 531.7 106.7 531.2 107.2C 530.7 107.7 527.6 108.2 524.5 108.3C 519.2 108.4 518.5 108.7 517.1 111.2C 515.1 114.6 512.6 114.8 510.4 111.5C 509.5 110.2 508.1 108.9 507.2 108.6C 501.9 107.2 500 107.1 500 108C 500 108.6 501.3 109.3 503 109.6C 506.3 110.3 508.5 112.4 507.5 114C 506.5 115.6 496.5 115.2 495 113.5C 494.1 112.5 491.8 112 487.4 112C 483.8 112 481 111.6 481 111C 481 110.4 483.4 110 486.3 110C 489.4 110 492.4 109.4 493.6 108.6C 495.3 107.3 494.9 107.2 489.8 107.7C 483.4 108.3 483.5 108.5 483.9 100.9C 484.1 98.9001 483.7 96.9001 483.1 96.5001C 482.5 96.2001 482 94.9001 482 93.8C 482 91.8 482.4 91.7001 490 92.3L 498 92.8L 498 89.5001C 498 85.4001 499 84.7001 505.5 83.9001C 508.3 83.6001 510.8 83.2001 511.1 83.1001C 511.5 83.1001 513.2 83.3 514.9 83.6zM 235.8 85.7C 235.3 88.3 232 88.6 232 86.1C 232 84.6 232.6 84.0001 234.1 84.0001C 235.5 84.0001 236 84.5 235.8 85.7zM 294.6 86.1C 295.5 86.9 296 89.5001 296 94.0001C 296 100 295.7 101.1 293 104.5C 289.5 108.9 289.2 111 292 111.7C 293.2 112 293.9 112.8 293.7 113.4C 293.3 114.5 271.4 115.3 267.8 114.3C 266.3 114 266 112.7 266 108C 266 104.8 266.5 101.8 267 101.5C 267.6 101.2 268 97.6001 268 93.6001C 268 89.2001 268.5 85.9001 269.3 85.1001C 270.8 83.5001 292.5 84.3 294.6 86.1zM 560 88.5001C 560.9 90.9001 561.3 91.0001 569 91.0001C 576.7 91.0001 577.1 90.9001 578 88.5001C 578.8 86.3 579.5 86.0001 583.9 86.0001C 589.8 86.0001 590 86.3 598 101.5C 600.9 107 604.3 113.1 605.4 115C 606.6 116.9 608.1 119.8 608.9 121.5C 610.6 125.4 611 126 614.3 131.2C 618.6 137.6 632.7 163.2 633.5 165.8L 634.2 168L 607.1 167.7C 581.7 167.4 579.8 167.3 578 165.5C 576.3 163.7 576.1 161.8 575.9 146.5C 575.7 137.1 575.8 128.8 576.1 128C 576.4 126.8 574.8 126.4 566.5 126L 556.5 125.5L 556.2 107C 556.1 96.9001 556.2 88.0001 556.4 87.3001C 557.2 85.2001 559 85.8 560 88.5001zM 229.4 93.0001L 229.3 97.5001L 224.5 97.8C 221 98.0001 219.9 97.8 220.2 96.8C 220.5 96.1 221.7 95.4 222.9 95.2001C 224.8 94.9001 225.1 94.4001 224.6 92.4001C 223.8 89.2001 224.7 87.8001 227.3 88.2001C 229.2 88.5001 229.5 89.1001 229.4 93.0001zM 336 95.1C 336 96.1 335.6 97.0001 335 97.0001C 334.5 97.0001 334 95.8 334 94.4001C 334 93.0001 334.4 92.1001 335 92.5001C 335.6 92.8 336 94.0001 336 95.1zM 366 107.5C 366 113.2 365.6 117 365 117C 364.4 117 364 113.2 364 107.5C 364 101.8 364.4 98 365 98C 365.6 98 366 101.8 366 107.5zM 336 102.9C 336 104 335.6 105.2 335 105.5C 334.4 105.9 334 105 334 103.6C 334 102.2 334.5 101 335 101C 335.6 101 336 101.9 336 102.9zM 298 108C 298 109.1 297.4 110 296.7 110C 294.8 110 294 109 294.7 107.4C 295.5 105.3 298 105.7 298 108zM 531.9 110.9C 534 112.2 532.4 115 529.7 115C 528.3 115 525.9 115.3 524.1 115.6C 520.8 116.3 519.2 114.5 520.4 111.5C 521 109.8 529.5 109.4 531.9 110.9zM 336.2 136.7C 336.5 160.3 336.4 163 334.9 163C 334.4 163 334 152 334 138.5C 334 123.5 334.4 114 335 114C 335.5 114 336 123 336.2 136.7zM 243.5 117.1C 244.7 118.9 241.9 123.8 239.4 124.4C 236.1 125.3 235.3 127.7 237.6 129.5C 239.3 130.7 239.5 132.4 239.5 147.2L 239.5 163.5L 224.2 163.5C 209 163.5 208.9 163.5 208.3 165.8C 208 167.1 208.2 170 208.8 172.3L 209.8 176.5L 209.9 172.3C 210.1 165.9 212.2 164.9 224.5 165.6C 229.9 165.8 234.7 166.3 235.2 166.6C 235.6 166.9 236 169.4 236 172.1C 236 174.9 236.5 178.1 237.1 179.2C 237.9 180.8 237.9 182.3 237 185.1C 235.7 188.8 235.9 190 238.2 193.1C 239.1 194.5 239 195.1 237.7 196.5C 236.8 197.4 236 198.8 236 199.7C 236 200.8 235.3 201 233.1 200.5C 231.4 200.2 229.9 200.3 229.5 200.9C 229.2 201.5 229.6 202 230.4 202C 231.3 202 232 203.1 232.2 204.7C 232.4 206.9 233.1 207.6 235.5 208L 238.5 208.5L 238.8 224C 239 232.5 238.8 241 238.5 242.7L 237.9 246L 212.6 246C 188.5 246 187.1 245.9 184.6 243.9C 182.1 242 182 241.4 182 233C 182 227 182.4 223.9 183.3 223.1C 184.2 222.4 191.9 221.9 204.6 221.8C 223.7 221.5 224.5 221.4 224.5 219.5C 224.5 217.6 223.7 217.5 207.7 217.2C 193.9 217 190.8 216.7 190.3 215.5C 189.5 213.1 191.5 211.4 199.8 207.5C 204 205.5 208.3 203.5 209.2 202.9C 210.2 202.4 213.2 202 215.9 202C 218.7 202 221.2 201.5 221.5 201C 221.9 200.4 220.5 200 218.2 200C 215.8 200 213.3 199.3 211.9 198.1C 209.5 196.2 209.5 196.2 207.3 198.2C 206.1 199.3 203.7 200.3 201.8 200.3C 198.8 200.5 198.5 200.3 198.5 197.6C 198.5 195.1 199 194.5 201.7 193.8C 205.1 192.9 206.6 190.3 205.5 186.9C 204.9 185 204.3 184.9 199.7 185.5C 192.2 186.4 191 186.9 191 189.1C 191 191.8 189.2 191.5 183.2 187.5C 180.1 185.3 178 183.2 178 182.1C 178 181.1 176.4 179 174.5 177.6C 172.6 176.1 171 174.4 171 173.8C 171 173.2 172.4 170.5 174.1 167.8C 176.3 164.4 178.5 162.4 181.1 161.3C 184.8 159.8 184.9 159.7 184.4 155.7C 183.9 151.1 183.2 152.3 195.9 133.8C 206 119 204.2 120 219.2 120C 231.2 120 232 120.1 232 121.9C 232 123 232.3 124.7 232.8 125.7C 233.3 127 233.6 126 234 122.5C 234.5 117.7 234.6 117.5 238 116.9C 239.9 116.5 241.8 116.2 242.2 116.1C 242.6 116.1 243.2 116.5 243.5 117.1zM 479.4 116.8C 480.3 118.3 474.2 125.7 470.9 127C 466.8 128.7 463.2 127.4 460.3 123.1C 459 121.2 458 119.3 458 118.9C 458 117.7 466.6 116.7 470.8 117.3C 472.8 117.7 475.2 117.5 476 117C 477.9 115.8 478.7 115.8 479.4 116.8zM 294.6 118.3C 295 118.7 294.9 120.7 294.4 122.8L 293.5 126.5L 287.6 126.5C 281.7 126.5 281.6 126.5 280.8 123.1C 279.3 117.5 280.2 116.7 287.5 117.2C 291 117.4 294.2 117.9 294.6 118.3zM 329.5 120.4C 331.1 121.6 331.3 123 331.1 133.9C 331 140.6 330.7 146.7 330.4 147.4C 329.6 149.4 325.2 150 311.4 150C 303.3 150 298.9 149.6 298.4 148.9C 297.4 147.2 296.8 131.4 297.5 125.3C 298 121.6 298.6 120 299.8 119.7C 300.7 119.4 307.4 119.2 314.6 119.1C 324.1 119 328.1 119.4 329.5 120.4zM 453.9 120.6C 455.1 121.7 448.5 126 429.2 136.5C 427.2 137.6 422.8 140.1 419.5 142.1C 416.2 144 412.8 145.9 412 146.3C 411.2 146.7 406 149.7 400.5 153.1C 395 156.4 388.6 160 386.3 161.1L 382.1 163.1L 377.2 160.6C 371.1 157.5 367.8 156.9 354.9 156.5C 349.2 156.4 343 156.2 341.2 156.1L 338 156L 338.2 138.2L 338.5 120.5L 351.5 120C 368 119.4 453.2 119.9 453.9 120.6zM 278 133.9C 278 144.8 277.7 148 276.6 149C 274.4 150.7 247.9 150 245.7 148.1C 244.3 147 244 144.7 244 135.3C 244 129 244.5 123 245 121.9C 246 120.1 247.3 120 262 120L 278 120L 278 133.9zM 531 121C 531.8 121.5 532.6 123.2 532.7 124.7C 533.1 130.3 532.9 170.4 532.4 171.2C 531.6 172.5 527.8 172.1 526.1 170.6C 522.7 167.6 516.1 166.1 509.7 167C 502.5 168 472.9 167.7 471.2 166.6C 470.3 166.1 470 160.6 470 148.1L 470 130.3L 474 127.6C 476.2 126.2 478 124.5 478 123.8C 478 120.5 481.3 120.1 505.5 120C 519 120 530.2 120.4 531 121zM 553.2 123C 552.7 128.1 553.8 134.2 555.4 135.2C 556 135.6 559.7 136 563.7 136C 569.7 136 571.1 136.3 571.9 137.8C 572.4 138.8 573.2 145.4 573.6 152.4C 574.5 169.2 574.3 169 589.9 169.1C 596.3 169.2 609.2 169.4 618.5 169.6L 635.5 169.9L 637.7 172.7C 640.2 175.8 640.7 179.5 638.8 180.2C 638.1 180.5 617.7 180.6 593.4 180.6C 545 180.5 548.5 180.9 541.2 174.1L 537.9 171.1L 538.2 155.3L 538.5 139.5L 543.5 139C 548.3 138.5 548.5 138.4 548.5 135.5C 548.5 132.7 548.2 132.5 544 132L 539.5 131.5L 539.3 125.7L 539.1 119.9L 546.3 120.2C 553.3 120.5 553.5 120.6 553.2 123zM 462.1 128.1L 465 130.1L 465 183.6C 465 218.6 464.6 237.8 464 239.1C 462.6 241.6 459.5 241.5 455.7 238.7C 453.9 237.5 451.6 236 450.5 235.4C 443 231.3 437 228 434 226.2C 432.1 225 428.7 223.1 426.5 221.9C 424.3 220.7 420.6 218.4 418.3 216.9C 416 215.3 413.9 214 413.5 214C 413.1 214 411 212.7 408.7 211.2C 406.4 209.7 402 207.1 399 205.6C 396 204 392.8 202.2 392 201.5C 391.2 200.8 389.7 200 388.7 199.7C 385.9 198.7 385.6 196.1 387.9 192C 390.6 187.1 390.7 179.7 388 173.5C 386.9 170.9 386 168.3 386 167.7C 386 166.6 392.6 162.4 406.4 154.7C 409.2 153.1 415.1 149.6 419.5 147C 423.9 144.4 429.5 141.1 432 139.7C 434.5 138.3 440.8 134.7 446 131.6C 451.2 128.6 456.3 126.1 457.3 126C 458.4 126 460.5 126.9 462.1 128.1zM 291.6 129.2C 292 129.8 292.2 135.1 292.1 141C 291.9 149.1 292.2 151.9 293.3 152.8C 294.2 153.6 301 154 313.1 154.2L 331.5 154.5L 331.5 159L 331.5 163.5L 311.5 163.8C 297.1 164 291.4 164.4 290.8 165.3C 289.7 167 289.8 172.8 291 173.5C 291.6 173.8 292 177.9 292 182.5C 292 187.1 291.6 191.2 291 191.5C 289.5 192.4 289.8 200 291.3 200.5C 291.9 200.8 301 201.1 311.3 201.3C 331.3 201.5 331.9 201.7 332 206.6C 332 210.9 329.8 211.5 310.6 212L 292.5 212.5L 292.2 224.3C 292 233.6 291.6 236.2 290.5 236.7C 289.7 237 288.7 239 288.4 241.1C 288 243.3 287.3 245.3 286.8 245.6C 284.3 247.2 283.5 243.3 283 228.2L 282.5 212.5L 264.6 212.2C 253.4 212.1 246.1 211.5 245.3 210.9C 243.6 209.5 243.6 203.4 245.3 202.3C 245.9 201.9 254.7 201.7 264.6 201.8C 280.3 202.1 282.9 201.9 284.4 200.5C 286.1 198.8 286.4 196.3 285.4 193.6C 284.5 191.2 278.3 191.5 277 194C 276.1 195.8 274.9 196 267.5 196L 259 196L 259 189.2C 259 181.1 259.9 179.3 262.9 180.9C 265.7 182.5 266.6 180.3 265 175.6C 263.5 170.9 264.2 170 269.6 170C 273.4 170 274.2 170.4 275.2 172.5C 276.1 174.6 277 175 280.6 175C 284 175 285.3 174.5 286.9 172.4C 288.8 170 288.8 169.6 287.4 166.2C 286.6 164.2 285.7 162.4 285.4 162.1C 285.2 161.8 275.8 161.6 264.7 161.6L 244.5 161.5L 244.5 158L 244.5 154.5L 263 154.2C 273.1 154.1 281.9 153.5 282.4 153C 282.9 152.5 283.3 147.2 283.3 141.3C 283.3 135.4 283.7 129.9 284.3 129.2C 285.5 127.7 290.6 127.6 291.6 129.2zM 572.2 130.2C 573.8 132.9 571.7 134 565 134C 557.8 134 555.2 132.6 556.4 129.4C 556.9 128 558.1 127.8 564.3 128.5C 568.2 128.8 571.8 129.7 572.2 130.2zM 545.5 135C 545.2 135.5 544 136 542.9 136C 541.9 136 541 135.5 541 135C 541 134.4 542.2 134 543.6 134C 545 134 545.9 134.4 545.5 135zM 651.3 167.8C 657.1 172.2 661 175.8 661 176.8C 661 180.9 656.4 182.2 650.7 179.6C 648.9 178.8 646.8 178 646 177.7C 644.3 177.2 634 159.1 634 156.6C 634 154.8 633.1 154.3 651.3 167.8zM 357.5 159.2C 357.9 160.3 358.7 167.6 358.9 171.6C 359 172.3 360.2 173.1 361.8 173.5C 366.5 174.7 368 176.8 368 182.5C 368 188.1 367 189.6 361.5 192.1C 358.8 193.4 358.5 193.9 358.3 199.4C 358.1 205.8 357 207.2 353 206.8L 350.5 206.5L 350.2 183.6C 350 167.6 350.3 160.3 351.1 159.4C 352.5 157.7 356.9 157.6 357.5 159.2zM 347.5 183L 347.5 203.5L 343 203.5L 338.5 203.5L 338.2 182.7L 338 161.9L 342.7 162.2L 347.5 162.5L 347.5 183zM 372.8 164C 374.5 165.1 376 166.3 376 166.7C 376 167.2 374.2 168.5 372 169.7C 367.4 172.4 362.5 172.7 361.6 170.4C 360.8 168.3 360.8 163.5 361.7 162.7C 363 161.3 369.6 162.1 372.8 164zM 335.8 183.4C 336 199.9 335.9 201.1 334.3 200.8C 332.9 200.5 332.4 199.2 332 193.9C 331.3 184.2 330.9 184 317 184L 305.2 184L 301.6 188C 299.2 190.7 298 193 298 194.9C 298 197.9 296.1 199.4 293.5 198.4C 291.7 197.7 291.5 194.9 293.1 193.3C 294.7 191.7 294.6 175.8 293 172C 291.9 169.3 291.9 168.6 293.3 167.3C 295.4 165.1 298 166.4 298 169.6C 298 171 299.4 174.4 301.2 177.1L 304.3 182L 316.6 182C 328.2 182 329 181.9 330.4 179.8C 331.4 178.4 332 175.4 332 171.9C 332 166.2 332.6 164.7 334.4 165.3C 335.1 165.5 335.6 172 335.8 183.4zM 262 170.4C 262 174.3 261.6 175.1 259.3 176.2C 256.5 177.5 256.5 177.6 256.4 188.3C 256.3 194.2 256 199.4 255.6 199.7C 254.5 200.8 251.5 198.5 251.6 196.6C 251.6 195.7 251.7 188.5 251.8 180.5L 252 166L 257 166L 262 166L 262 170.4zM 282 168.5C 282 169.9 281.6 171 281.1 171C 279.9 171 278.8 168.1 279.6 166.9C 280.6 165.1 282 166 282 168.5zM 249 175.1C 249.3 178.6 249.5 184.6 249.5 188.5C 249.5 195.4 249.5 195.5 246.8 195.8L 244 196.1L 244 184C 244 172.1 245 167.5 247.3 168.3C 248 168.5 248.7 171.4 249 175.1zM 328.8 173.3C 329.3 179.4 328.2 180 316.4 180L 306.1 180L 303 175.4C 300.6 171.7 300.2 170.5 301.2 169.8C 301.9 169.4 308.4 169.1 315.5 169.2L 328.5 169.5L 328.8 173.3zM 382.7 173.6C 384.7 176.8 385 188.3 383.2 191.7C 381.6 194.6 380.1 194.6 374.8 191.6L 370.5 189.2L 370.4 182.6L 370.3 176L 374.4 173.5C 379.6 170.4 380.6 170.4 382.7 173.6zM 523.7 174.2C 525.4 176.1 525.8 177.7 525.7 183.2L 525.6 190L 515.1 200.2C 495.4 219.2 483.5 230.6 478.3 235.4C 469.9 243.2 470 243.7 470 204.9L 470 172L 495.8 172C 521.3 172 521.7 172 523.7 174.2zM 540.3 175.4C 541.2 176.1 542 177.2 542 177.8C 542 178.4 543.4 179.7 545 180.7C 546.7 181.6 548 182.7 548 183.1C 548 183.8 542.6 188.8 538.3 192C 535.2 194.2 534.9 194.2 533.2 192.7C 532.2 191.8 530.6 191 529.6 191C 528.1 191 528 190 528.2 183.3C 528.5 175.5 528.5 175.5 531.5 174.9C 536.3 173.9 538.4 174 540.3 175.4zM 172.1 178C 174.5 179.3 174.6 182 172.2 182C 170.1 182 168 180.2 168 178.3C 168 176.7 169.5 176.6 172.1 178zM 665.2 182.5C 665.2 183 664.7 183.6 664.1 183.8C 663.5 184 663 183.4 663 182.5C 663 181.6 663.5 181 664.1 181.2C 664.7 181.4 665.2 182 665.2 182.5zM 181 191.1C 186.6 195.1 191.4 198.8 191.6 199.5C 192.1 200.8 187.5 208.6 181 217.7C 177.7 222.3 177.5 222.8 177.5 231.5C 177.5 236.7 177 241.4 176.2 242.7C 175.6 243.9 175 246.2 175 247.9C 175 249.8 174.3 251.3 173.3 251.9C 172.3 252.4 166.6 252.8 160.7 252.9C 154.7 252.9 149.5 253.2 148.9 253.5C 148.4 253.9 148 256.3 148 259C 148 263.2 147.7 263.8 145.8 264.2C 142.3 265 109.1 264.5 108.4 263.7C 107.5 262.8 109.1 259.7 113.1 254.5C 114.7 252.3 117.2 248.8 118.5 246.8C 122.7 240.5 126.8 236.8 129 237.5C 130.3 237.9 131.8 237.1 134.3 234.4C 137.4 231 137.8 230.8 140.1 232C 143.5 233.8 147 237.1 147 238.6C 147 239.3 147.8 240.4 148.9 240.9C 150.3 241.7 151.2 241.5 152.5 240C 153.5 238.9 154.1 237.8 153.8 237.5C 153.6 237.2 150.5 235.6 146.9 233.8C 139 229.7 138.5 228 143.3 220.7C 148.1 213.5 150.4 211.6 152.7 212.8C 156.4 214.9 159.7 210.7 156.5 208C 155.7 207.3 155 206.1 155 205.3C 155 203.3 168.3 184.1 169.7 184C 170.4 184 175.5 187.2 181 191.1zM 679.7 188.6C 682.6 190 685.7 192.2 686.6 193.5C 688.1 195.8 688 196.3 683.5 204.7C 680.9 209.5 677.7 214.9 676.4 216.7C 675.1 218.4 674 220.1 674 220.4C 674 220.7 671 225.6 667.3 231.3C 663.5 237 660.1 242.5 659.5 243.4C 658.7 244.9 657.6 245 653.3 244.4C 649.9 244 648 243.3 648 242.4C 648 240.8 650.2 236.8 655.6 228.5C 663.8 215.9 665.2 213.1 664.6 211.4C 663.6 208.9 661.1 209.9 657.9 214.2C 656.2 216.6 654.5 219.2 654.2 220C 653.9 220.8 651.2 224.6 648.3 228.5C 645.4 232.3 642.4 236.4 641.6 237.5C 640.8 238.6 639.9 239.2 639.6 238.9C 638.7 238 640.4 234.5 645 227.5C 647.2 224.2 650.8 218.3 653.1 214.5C 655.4 210.6 657.9 206.6 658.6 205.5C 659.7 203.7 659.4 202.6 656 196.7C 650.4 187.2 650.6 186.2 657.8 185.8C 667.8 185.3 674.3 186.1 679.7 188.6zM 328.4 188.2C 329.5 192.3 329 194.9 327.1 196C 325 197.1 304.2 197.4 301.6 196.4C 299.3 195.5 299.6 194.4 303.2 189.9L 306.3 186L 317.1 186C 327.3 186 327.8 186.1 328.4 188.2zM 563.8 188.3C 564.5 191.8 561.8 195.5 553.3 203C 543 212.1 542.6 212.4 540 211C 538.3 210.1 538 208.9 538 202.1C 538 194.8 538.2 194.2 540.4 193.2C 541.8 192.6 543.9 190.7 545.1 189C 547.4 186 547.5 185.9 555.5 186.2C 562.3 186.5 563.5 186.8 563.8 188.3zM 635.7 187.7C 636.1 188.6 635.4 191.1 634.1 193.4C 632.8 195.7 630.5 200 628.8 203C 627.2 206 624.3 210.7 622.5 213.5C 614.5 225.8 612 229.9 612 230.9C 612 232.5 607.3 232.2 604.5 230.4C 602.5 229.1 597.2 228.8 571.8 228.3C 550.1 228 541.3 227.5 540.8 226.7C 540.4 226 540 223.4 540 220.9C 540 215.5 540.7 215 548 215C 553.3 215 554 214.3 553.3 209.5C 552.9 206.9 553.7 205.7 559.4 200.3C 564.5 195.5 566 193.4 566 191.2C 566 189.7 566.5 187.9 567.2 187.2C 568.1 186.3 577.1 186 601.7 186C 632 186 635.1 186.2 635.7 187.7zM 202 189.4C 202 190.2 200.7 191.3 199 191.9C 196.7 192.6 196 193.5 196 195.4C 196 196.9 195.5 198 195 198C 193 198 192.8 195 194.4 191.5C 195.8 188.7 196.7 188 199 188C 200.9 188 202 188.5 202 189.4zM 641.2 190.6C 641.9 191.2 638.4 199.2 635.7 203.3C 633.2 207.1 633.6 208.6 637.5 210.9C 641.6 213.3 642.8 215.6 641.2 217.9C 638 222.5 628 239.8 628 240.6C 628 241.2 627.1 242.6 625.9 243.8L 623.9 246L 619.5 243.5C 616.6 241.7 614.4 241.1 612.7 241.5C 610.7 242 610.2 241.7 609.8 239.6C 609.5 238.2 609.9 236.5 610.7 235.7C 612.2 234.2 618.3 224.6 626.6 210.5C 629.2 206.1 632.8 200.2 634.7 197.3C 636.5 194.5 638 191.7 638 191.1C 638 189.9 640.3 189.6 641.2 190.6zM 372.3 195.7C 374.3 197 376 198.5 376 199.1C 376 200.5 368.1 204 364.8 204C 361.8 204 360.5 201.4 361.2 196.9C 361.5 194.4 365.7 191.7 367.4 192.7C 368 193.1 370.2 194.4 372.3 195.7zM 649.1 193.9C 650.4 194.9 652.1 197.4 652.8 199.3C 654 202.6 653.9 203.3 651.6 207.7C 650.3 210.3 648.5 213.3 647.8 214.4C 646.4 216.2 646.3 216.2 644.4 213.8C 643.4 212.5 641.3 210.6 639.8 209.6C 638.2 208.6 637 207.1 637 206.2C 637 203.4 644.2 192 646 192C 646.4 192 647.8 192.8 649.1 193.9zM 531.8 194.2C 533.5 195.9 533.5 224.4 531.8 225.7C 531.1 226.2 524.6 226.6 517.3 226.5C 505.9 226.4 503.8 226.1 502.1 224.5C 500.9 223.5 500 222.2 500 221.6C 500.1 220.3 528.7 193.1 530.1 193C 530.4 193 531.1 193.5 531.8 194.2zM 282 196.5C 282 197.9 281.4 199 280.7 199C 278.6 199 278 197.9 279.1 195.9C 280.5 193.2 282 193.6 282 196.5zM 397.3 209.9C 404.5 214.2 415.3 220.6 421.3 224.1C 427.2 227.6 433.7 231.5 435.8 232.8C 437.8 234 440.4 235.5 441.5 236C 446.3 238.3 454.4 243.7 454.8 244.8C 455.1 245.7 446 246 414.3 246.1C 391.9 246.2 368.9 246.1 363.4 246C 356.9 245.9 353 246.2 352.6 246.9C 352.1 247.7 367 248 405.5 248L 459 248L 460 245.5C 460.5 244.1 462 242.8 463.5 242.4C 464.9 242.1 466 241.4 466 240.9C 466 239.6 468.1 239.8 471.3 241.2C 474.5 242.8 476.1 246.1 476.5 251.7C 476.8 255.8 476.7 256 474 256C 472.4 256 470.8 256.4 470.5 257C 470.2 257.5 469 258 467.9 258C 466.9 258 466 257.5 466 257C 466 256.4 465.4 256 464.6 256C 463.8 256 462.8 255.5 462.5 254.9C 462 254.2 462.9 254.1 465.2 254.5C 467.8 255 469.2 254.6 471.3 253C 472.8 251.8 474 250.1 474 249.3C 474 246.5 470.9 244 467.4 244C 463.7 244 462 246.1 462 250.4C 462 251.8 461.6 253 461 253C 460.5 253 460 252.6 460 252.1C 460 250.5 456.2 249.8 454.1 250.9C 452.9 251.6 451.9 251.6 451.5 251C 451.2 250.5 429.4 250.1 394.6 250.1C 332.2 250 335.6 249.7 335.8 256.5C 335.9 258.4 335.5 260.2 335 260.5C 334.4 260.9 334 259.4 334 257.1C 334 249.6 336.3 249.9 285.6 250C 213.3 250.2 208 250.1 208 249C 208 248.4 213.1 248 221.3 248C 228.5 248 237.5 247.7 241.2 247.4C 247.5 246.8 247.8 246.6 245.9 245.1C 244.1 243.6 244 242.4 244.2 230L 244.5 216.5L 261 216.5L 277.5 216.5L 277.5 231L 277.5 245.5L 263 246C 253.4 246.3 249.7 246.7 252 247.2C 254.7 247.8 286.7 247.7 290.2 247.1C 290.6 247.1 291 245.6 291.2 243.8C 291.6 240 294 238.7 294 242.3C 294 247.3 296 247.8 314.5 247.6C 323.9 247.6 332.1 247.1 332.8 246.7C 333.6 246.2 334 243.4 334 238.8C 334 230.1 335.4 230.7 335.6 239.5C 335.7 243 336.1 246.3 336.5 246.9C 336.8 247.5 340.1 248 343.8 248C 351.5 248 351.3 246.3 343.5 245.8L 338.5 245.5L 338.2 228.1C 338 216.2 338.3 210.3 339.1 209.4C 340 208.3 343.7 208 354.9 208C 369.9 208 375.5 207 378.8 203.7C 379.7 202.7 381.2 202 382.2 202C 383.2 202 390 205.5 397.3 209.9zM 336.4 204.9C 337.2 206.1 336.1 209 334.9 209C 334.4 209 334 207.9 334 206.5C 334 204 335.4 203.1 336.4 204.9zM 336 214.4C 336 216.9 335.6 219.1 335.1 219.4C 334.1 220.1 332.9 213.5 333.7 211.4C 334.8 208.5 336 210.1 336 214.4zM 330.2 217.4C 331.1 218.7 331.2 240.5 330.4 243.7C 329.8 246 329.5 246 314 246C 300.5 246 298.1 245.8 297.6 244.4C 296.7 242.1 296.9 218.7 297.8 217.3C 298.3 216.5 302.5 216 310.5 215.8C 324.2 215.4 329.2 215.8 330.2 217.4zM 186 218.5C 186 219.3 185.6 220 185 220C 184.5 220 184 219.3 184 218.5C 184 217.7 184.5 217 185 217C 185.6 217 186 217.7 186 218.5zM 498.9 229.1C 500.7 231.4 501.8 231.5 522.8 231.8L 532 232L 532 247C 532 255.2 531.6 262 531.2 262C 529.1 262 525.6 256.6 525.1 252.7L 524.5 248.5L 502.5 247.7C 490.4 247.3 479.9 246.7 479.3 246.5C 478.6 246.3 478 245.3 478 244.3C 478 241.9 493 227 495.3 227C 496.3 227 498 228 498.9 229.1zM 578 233.8C 587.6 234.4 593.2 234.4 594.7 233.7C 597.2 232.6 601.5 234 604.9 237.1C 607.4 239.4 606.8 241.6 601.5 248.7C 597.9 253.6 596.7 255.4 591.5 264.3L 588.5 269.5L 565.5 269.2C 552.8 269.1 541.9 268.8 541.3 268.5C 540.3 268.2 540 263.7 540 250.6C 540 237.6 540.3 233 541.3 232.6C 542.7 232 557.1 232.5 578 233.8zM 634.3 244.5C 637.4 248.3 637.3 250.5 634 253.5C 632.9 254.5 632 255.9 632 256.6C 632 257.4 628.9 262.8 625.2 268.7C 621.4 274.7 616.2 283.8 613.6 289.1C 608.2 300.2 604.1 305 598.2 306.7C 592.4 308.5 590.8 308.3 585.9 305.5C 583.4 304.1 579.9 303 577.9 303C 573.7 303 571.5 301 572.5 298C 573 296.5 572.7 296 571.2 296C 568.1 296 567.3 289.5 569.9 285.9C 572.5 282.4 572.5 282.3 569.4 281.6C 566.4 280.8 564 282.4 564 285.1C 564 287.4 560.2 287.7 559.3 285.5C 559 284.6 557 283 554.9 281.9L 551 279.9L 548.9 283.5C 546.5 287.6 545 287.8 541.7 284.7C 538.8 282.1 536.6 274.2 538.1 272.3C 538.9 271.4 543.4 271.2 556.3 271.5C 565.8 271.7 577 271.9 581.3 271.9C 585.7 272 589 272.4 589 273C 589 273.5 586.9 274 584.2 274C 579.2 274 575.8 275.7 574 279.1C 572.5 281.9 574.6 281.6 577.3 278.6C 579.2 276.6 580.2 276.3 584 276.7C 588 277.1 589 276.8 592.7 273.8C 595 272 598.5 267.8 600.5 264.5C 602.5 261.2 605 257.8 606 256.8C 607.1 255.9 608 254.7 608 254.1C 608 253.5 609 251 610.3 248.5C 612.9 243.3 614.4 243 620.5 246.6C 623 248 625.4 248.9 625.9 248.5C 626.5 248.2 627.7 246.4 628.6 244.5C 629.5 242.6 630.5 241 630.9 241C 631.2 241 632.8 242.6 634.3 244.5zM 182.6 245.5C 184.2 246.9 186.1 248 186.8 248C 187.4 248 188 248.4 188 249C 188 249.5 187.4 250 186.6 250C 185.8 250 184.4 251 183.6 252.2C 182.3 254 182 257.7 182 271.2C 182 289.4 180.5 294.1 179.6 278.7C 178.8 265.8 178.8 265 179.6 260.2C 180 257.5 179.8 255.4 179.1 254.7C 177.8 253.4 177.6 243 178.8 243C 179.3 243 181 244.1 182.6 245.5zM 607.6 247.7C 606.8 249.3 605.4 251.2 604.5 252C 603.2 253.1 603 253 603.6 251.4C 604.6 248.7 608.1 243.8 608.7 244.3C 608.9 244.6 608.5 246.1 607.6 247.7zM 470.4 247.5C 471.7 251.1 468.1 254 465.5 251.4C 463.7 249.5 463.6 248.8 465.2 247.2C 466.9 245.5 469.7 245.7 470.4 247.5zM 649.5 248C 650.3 249.2 648.2 253.1 645.8 254.8C 644.8 255.5 644 256.9 644 257.9C 644 258.9 642.9 261.4 641.5 263.4C 640.2 265.4 636.4 271.4 633.3 276.8C 630.1 282.1 625.5 289.1 623.1 292.3C 618.7 298.1 611.7 302.9 610.5 301C 610.2 300.5 612 296.8 614.6 292.8C 617.2 288.8 622.1 281.2 625.5 276C 628.9 270.8 632.9 264.4 634.4 261.7C 636 259.1 638.1 256.5 639.1 255.9C 640.1 255.4 641 254.1 641 253.2C 641 248.8 647.5 244.8 649.5 248zM 197 249C 197 249.5 195.5 250 193.6 250C 191.7 250 189.8 249.5 189.5 249C 189.1 248.4 190.5 248 192.9 248C 195.2 248 197 248.4 197 249zM 206 249C 206 249.5 204.9 250 203.6 250C 202.2 250 200.8 249.5 200.5 249C 200.1 248.4 201.2 248 202.9 248C 204.6 248 206 248.4 206 249zM 238.4 253.6C 239.5 256.4 239.1 338 238 340.1C 236.7 342.4 234.7 342.6 233 340.5C 231.4 338.5 228.6 338.6 226.9 340.6C 225.9 341.8 224.6 342 221.8 341.6C 219.7 341.2 218 341.3 218 341.7C 218 342.9 184.7 342 183.3 340.8C 181.7 339.5 181.4 292.5 183 291.5C 183.6 291.1 184 284.1 184 273.7C 184 259.7 184.3 256 185.6 254.2C 187.1 252 187.4 252 212.4 252C 234.6 252 237.9 252.2 238.4 253.6zM 329.4 253.6C 330.8 254.9 331 259.1 330.9 282.8C 330.8 298 330.3 311.3 329.8 312.3C 329 313.8 327.7 314 319.2 313.8L 309.5 313.5L 309.3 307.5C 309.1 300.7 308.3 293.5 307.5 290.9C 306.8 288.9 302.2 287.7 296.9 288.1C 295 288.2 288.3 288.2 281.9 288.1L 270.2 288L 269.4 285.2C 268.7 282.5 268.7 282.6 267.8 286.5C 267.3 288.7 266.6 295.7 266.2 302L 265.5 313.5L 255 313.5L 244.5 313.5L 244.2 284.1C 244 263.3 244.3 254.3 245.1 253.4C 246 252.3 253.8 252 287.1 252C 322.5 252 328.1 252.2 329.4 253.6zM 368 253.9C 369.5 256.8 369.4 311.2 367.8 312.8C 366.5 314.1 342.6 314.6 339.6 313.4C 338.2 312.9 338 309.2 338 283.1C 338 266.7 338.3 253 338.7 252.7C 339 252.3 345.5 252 353.1 252C 365.7 252 367 252.2 368 253.9zM 402.2 254.7C 402.6 257.9 404.6 258.8 405.4 256.2C 406.1 254 410.9 251.6 413.7 252.2C 415.3 252.5 415.5 254 415.8 269.8C 415.9 280.2 415.6 287.8 415 289C 414.4 290.1 414.4 291.1 414.9 291.4C 416.2 292.3 416 312.4 414.6 313.2C 412.8 314.4 401.1 314.1 399.1 312.8C 397.6 311.9 396.6 311.9 394.5 312.8C 391.1 314.4 376.8 314.4 375.2 312.8C 374.3 311.9 374 303.8 374 282.5C 374 266.4 374.3 253 374.7 252.7C 375 252.3 381.3 252 388.6 252L 401.9 252L 402.2 254.7zM 432.3 254.2C 433.5 256.1 434.1 256.3 435.1 255.2C 436.8 253.7 447.2 253.6 448.8 255.2C 450.4 256.8 450.3 258.8 448.5 260.7C 447.1 262.1 447.1 262.5 448.6 264.8C 450.1 267.1 450.1 267.4 448.6 268.2C 447 269.1 446.4 273.5 447.8 274.3C 448.7 274.9 448.6 285.7 447.6 288.7C 447 290.5 447.4 291.2 449.4 292.2C 451.7 293.2 452 293.9 452 298C 452 302 451.7 302.9 450 303.3C 448 303.8 447.9 304.4 448.4 312.3C 448.7 319.1 448.5 321 447.4 321.4C 445.3 322.2 445.7 325.1 448 325.7C 450.4 326.3 450.6 328.8 448.3 330.5C 446.7 331.7 446.9 332.9 449.2 336.2C 450.1 337.5 450.1 338.2 449.2 339.3C 447.6 341.1 425.3 342.5 423.3 340.9C 421.8 339.6 421.4 322.5 422.8 321.6C 423.9 321 423.8 292 422.8 290.4C 422.4 289.8 422.1 280.9 422.1 270.6L 422.2 252L 426.5 252C 429.8 252 431.1 252.5 432.3 254.2zM 520.1 256.2C 522.3 258.6 524 260.9 524 261.5C 524 262 525.8 265.4 528 269C 532 275.5 533.4 282.1 530.8 281.9C 530.1 281.9 525.5 279.4 520.5 276.4C 515.6 273.4 509.6 270.1 507.4 269C 505.1 267.9 502.7 266.3 502 265.5C 501.3 264.7 500.4 264 499.9 264C 499.4 264 496 262.2 492.3 260C 488.5 257.8 484.9 255.6 484.1 255.2C 483.3 254.7 482.4 253.8 482.2 253.2C 481.9 252.3 486.3 252 499 252L 516.2 252L 520.1 256.2zM 461.2 257.2L 465.8 261.5L 465.9 299.1C 466 322.5 465.7 337.7 465.1 339.3C 464.2 341.6 463.5 342 460.1 342C 457.2 342 456 341.5 455.6 340.2C 454.4 335.8 455.1 253 456.4 253C 456.6 253 458.7 254.9 461.2 257.2zM 176.1 255.6C 176.9 256.5 177.3 258.5 177.2 259.9C 176.6 264.4 174.5 265.1 162.7 264.8C 156.8 264.7 151.4 264.3 150.9 263.9C 150.3 263.6 150 261.5 150.2 259.4L 150.5 255.5L 157.5 254.9C 171.4 253.8 174.7 253.9 176.1 255.6zM 480.1 259.8C 485.3 263.1 504.6 274.6 512 278.8C 514.5 280.2 517.6 282.1 518.9 283.1C 521.1 284.9 521.1 285 519.4 285.7C 516.7 286.7 500.4 299.3 494.5 304.8C 489.9 309.2 483.2 314 481.6 314C 481.3 314 481 313 481 311.8C 481 309.8 480.9 309.8 479.2 311.3C 475.6 314.6 474.7 310 478.2 306.3C 480.9 303.4 482 303.4 482 306.2C 482 307.8 482.3 308.1 483.1 307.3C 484.6 305.8 484.8 299.8 483.4 299.3C 481.6 298.7 476.1 303.9 473.9 308.2L 471.8 312.2L 474.4 314.9C 476.8 317.4 476.9 317.7 475.4 319.8C 474.6 321 473 322 471.9 322C 470.1 322 470 321 470 291.2C 470 268.6 470.3 260.1 471.2 259.2C 472.9 257.5 477 257.8 480.1 259.8zM 599.7 260.7C 599.5 261.2 598.5 263.2 597.5 265.2C 595.9 268.6 590 273.1 590 270.9C 590 270.4 590.5 270 591 270C 591.6 270 592.6 268.8 593.2 267.2C 595.3 262.5 597.2 260 598.7 260C 599.5 260 599.9 260.3 599.7 260.7zM 112.6 268.5C 113.9 269.8 118.9 270 145 270C 166.7 270 176.1 270.3 176.6 271.1C 177.5 272.6 177.3 337.6 176.4 339.1C 175.8 340.2 175 340.1 166 338C 162.5 337.2 149.3 333.7 143.5 332C 133.4 329.1 120.3 325.5 112.5 323.5C 101.8 320.7 93.8999 318.5 84.9999 316C 81.3999 315 77.2999 313.9 75.7999 313.6C 71.7999 312.7 72.2999 310.3 77.2999 304.5C 81.8999 299.1 89.9999 288.4 89.9999 287.6C 89.9999 287.3 91.8999 284.6 94.1999 281.5C 97.2999 277.4 98.7999 276.1 100.1 276.5C 101.5 277 102.9 275.8 105.6 272.1C 109.5 266.6 110.3 266.2 112.6 268.5zM 335.2 274.6L 334.2 280.5L 334.1 273.5C 334 268.6 334.3 266.9 335.1 267.7C 335.8 268.4 335.8 270.6 335.2 274.6zM 524 281.1C 524 282.5 521.4 282.2 520.1 280.6C 519.2 279.5 519.5 279.4 521.5 279.8C 522.9 280 524 280.6 524 281.1zM 534 285.5C 534 287.1 533.1 287.4 530.6 286.4C 528.1 285.5 528.7 284 531.5 284C 533.1 284 534 284.6 534 285.5zM 557 287.6C 557 289.2 554.4 289.5 553.5 288C 553.2 287.4 553.1 286.6 553.5 286C 554.3 284.7 557 285.9 557 287.6zM 530.4 293.9C 536.7 297.1 543.4 301 545.2 302.5C 548.4 305.2 548.5 305.3 548.8 303.2C 549.2 300.4 551.5 300.4 555 303.2C 556.6 304.5 559 306.3 560.4 307.3C 561.8 308.3 563 309.8 563 310.7C 563 312.7 549.5 334.6 546.3 337.8C 544.4 339.7 543.7 339.9 542.1 338.8C 540.6 337.9 540.2 336.6 540.3 333.8C 540.4 331.2 539.8 329.4 538.2 327.7C 537 326.4 536 324.5 536 323.5C 536 317.4 509.4 302.4 506.6 306.9C 506.2 307.5 504.1 308 501.9 308C 498.7 308 498 307.6 498 306.1C 498 305.1 499.6 302.9 501.5 301.3C 503.5 299.8 507 296.9 509.3 295C 512.8 292 517.9 288.3 518.7 288.1C 518.8 288 524.1 290.6 530.4 293.9zM 554.9 291.3C 556.1 292.8 555.4 294 553.3 294C 552.6 294 552 293.1 552 292C 552 289.7 553.3 289.4 554.9 291.3zM 335.2 296.6C 334.6 300.1 334 299.5 334 295.2C 334 292.9 334.3 292 334.9 292.8C 335.3 293.5 335.5 295.2 335.2 296.6zM 303.8 303.2C 304.2 314.3 304.2 314.3 287.7 313.6C 281 313.3 274.7 313.1 273.8 313.1C 272.2 313 272 311.9 272 303.5L 272 293.9L 287.8 294.2L 303.5 294.5L 303.8 303.2zM 567.3 304C 572.1 307.4 576 310.7 576 311.2C 576 311.8 575.3 311.9 574.3 311.4C 573.3 311 571.4 310.7 570 310.7C 568.5 310.8 565.9 309.4 563.4 307.2C 561.1 305.1 558.2 302.8 556.9 301.9C 555.4 300.8 554.9 299.8 555.3 298.6C 556.2 296.3 556.8 296.6 567.3 304zM 336 312.1C 336.3 317.7 336.1 320 335.1 320C 333.5 320 333 317 333.7 310.8C 334.3 304.4 335.6 305.1 336 312.1zM 41.4999 309.2C 42.8999 310.4 40.7999 313.4 38.1999 313.8C 35.8999 314.2 33.4999 310.8 34.3999 308.4C 34.9999 306.9 39.4999 307.4 41.4999 309.2zM 620.8 312.3C 621 313.3 620.5 314 619.6 314C 618.6 314 618 313.1 618 311.9C 618 309.5 620.3 309.8 620.8 312.3zM 614.4 313.9C 618.6 316.3 619.1 318.5 615.4 317.6C 607.5 315.8 604.5 315.9 600.5 318.2C 595.8 321 592 326.2 592 330.1C 592 331.7 591.6 333 591 333C 589.3 333 589.9 326.7 591.9 323.3C 593 321.6 593.6 319.4 593.4 318.3C 593 316.8 594.1 316.1 599.2 314.4C 607 311.8 610.6 311.6 614.4 313.9zM 573.8 314.6C 575 315.4 576 316.7 576 317.4C 576 318.1 576.9 319.9 578 321.3C 582.7 327.2 578.8 327.7 572.5 321.9C 568.3 318 567 315.3 568.7 313.7C 569.7 312.6 571.4 312.9 573.8 314.6zM 53.9999 316C 54.7999 317.6 54.3999 318.8 51.3999 323C 48.2999 327.3 47.2999 328 44.4999 328C 42.0999 328 40.5999 327.3 39.0999 325.4C 36.1999 321.7 36.4999 319.6 40.0999 316.6C 44.0999 313.2 52.2999 312.8 53.9999 316zM 512 315.6C 512 316.4 511.5 318.1 510.9 319.2C 509.9 321 510.2 321.7 513.5 324.4L 517.2 327.5L 515.4 330.7C 513.3 334.4 514.1 336.1 516.8 333.7C 519.4 331.4 519.7 331.5 524.1 336C 527.3 339.3 528.7 340 531.9 340C 534.2 340 536.3 340.6 537.1 341.6C 539.4 344.4 542.8 345.1 546.3 343.6C 549.9 342.2 553.2 338.1 557.4 330.5C 558.9 327.7 561.2 324.1 562.5 322.5L 564.8 319.5L 567.7 322.1C 569.2 323.5 572.7 326.2 575.3 327.9C 578 329.7 580.5 332.2 580.9 333.3C 583.3 339.6 584 343.2 584 348.8C 584 355.6 583.8 355.9 571.4 375.2C 567.6 381.1 562.9 388.5 560.9 391.7C 551.7 406.5 550 408.9 548.1 410C 546.9 410.6 546 412.1 546 413.3C 545.9 415.7 543.2 420.7 535.9 431.6C 533.4 435.4 529.6 441.4 527.5 445C 525.3 448.6 520.7 456 517.1 461.5C 513.5 467 510.1 472.2 509.5 473.1C 509 474 507.8 475.8 506.9 477.1C 506 478.4 503.5 482.4 501.3 486C 491 502.6 489.4 505 488.3 505.4C 487.6 505.7 483.2 503.6 478.5 500.7C 473.8 497.8 468.9 494.9 467.7 494.2C 448.9 483.2 442 476.9 442 470.9C 442 467.7 443.1 467.2 445 469.6C 447.9 472.9 449.7 473.1 454 470.3C 459.8 466.5 460.5 461.6 455.8 458.6C 454.5 457.8 453.2 458.5 450 461.4C 443.3 467.4 442.5 466.6 442.2 452.2L 441.9 440L 445.7 440C 449.2 440.1 449.9 440.6 453.6 445.8C 455.9 448.9 458 452.4 458.4 453.6C 458.7 454.7 460.1 456.7 461.5 458C 463.8 460.2 464 460.2 466.5 458.6C 467.9 457.7 469 456.4 469 455.7C 469 455 467 452.4 464.5 450C 459.9 445.5 459.1 444 461.2 444C 461.9 444 466.1 440.4 470.6 435.9L 478.7 427.9L 483 432C 487.4 436.2 489.5 436.7 491.4 433.8C 492.2 432.4 491.9 431.5 490 429.5C 488.7 428.1 486.4 426.4 485.1 425.7C 480.7 423.6 479.4 419.9 480.8 414.3C 481.7 410.7 481.8 408.6 481 406.6C 479.7 403 479.7 396.1 481.1 392.1C 482.3 388.6 481.7 386.9 479.8 388.8C 478 390.6 477.4 390.3 474.9 386.3C 472.9 383.1 472.6 381.4 472.7 372.6C 472.7 366.2 472.3 362.2 471.6 361.7C 470.8 361.2 470.9 360.7 471.9 360.1C 472.9 359.4 473.1 357.9 472.6 353.7C 471.7 346.7 472.9 344 477 344C 480 344 480 344 480 349.7C 480 355.4 481.2 359.1 482.6 357.7C 483 357.4 483.7 353.1 484.2 348.3C 484.8 343.5 485.6 338.8 486.1 338C 486.5 337.2 487.7 335 488.6 333.2C 489.5 331.5 490.6 330 491.1 330C 491.6 330 494.1 328.1 496.6 325.7C 500.6 321.9 501 321.2 500.5 318.2L 499.9 314.9L 504.3 315.5C 507.2 316 509 315.8 509.4 315.1C 510.4 313.5 512 313.8 512 315.6zM 584 316C 584 316.5 583.6 317 583 317C 582.5 317 582 316.5 582 316C 582 315.4 582.5 315 583 315C 583.6 315 584 315.4 584 316zM 61.2 317.6C 62 318.4 58 328 56.9 328C 55.9 328 55.7 321 56.6 318.6C 57.2 317 60.1 316.4 61.2 317.6zM 76.7 318.1C 78.2 318.7 80.8999 319.6 82.5 320.1C 84.2 320.5 87.1 321.3 89 321.9C 94.7 323.5 108.2 327.1 112 328C 115.3 328.8 119.8 330.1 126.5 332C 128.2 332.5 132.4 333.6 136 334.5C 139.6 335.4 143.3 336.5 144.2 337.1C 145.2 337.6 146.7 338 147.7 338C 148.6 338 152.3 338.9 155.9 340C 159.5 341 166 342.9 170.3 344.2C 176.6 346 178.2 346.8 178.6 348.7C 179.7 353 178.5 354 172.1 354C 168.8 354 165.8 354.5 165.4 355.1C 165 355.9 168 356.1 175.6 355.8C 186.2 355.5 186.7 355.4 195.5 351L 204.5 346.5L 220.8 346.5C 234.2 346.5 237.2 346.8 238 348C 239.1 349.6 239.4 383.8 238.4 386.4C 237.7 388.3 230.6 388.6 225 387C 223.1 386.5 216.3 385.2 210 384.1C 203.7 383 194.5 381.1 189.5 380C 184.6 378.9 179.9 378.2 179.1 378.5C 177.6 379.1 159.9 376.3 156.2 374.9C 154.9 374.4 153.6 373.1 153.3 372.1C 153 371 151.4 369.6 149.6 369C 145.8 367.7 135 361.4 125.2 354.8C 115.7 348.4 114.1 347.9 103.6 347L 94.6 346.3L 83.9 335.2C 73.7 324.5 73 324 69.1 324C 61.8 324 65.1 318.5 73.2 317.1C 73.6 317.1 75.1 317.5 76.7 318.1zM 330.6 319.2C 331 319.9 331.5 323.9 331.7 328.1C 332.2 339.2 332.7 339 311.7 339C 298.2 339.1 294.1 339.4 292.6 340.5C 290 342.5 285.1 342.4 282.8 340.3C 281.3 339 278.6 338.6 269.2 338.5C 262.8 338.4 257 338.2 256.4 338.2C 255.8 338.1 255 335.5 254.7 332.4C 254.4 329.3 253.7 326.3 253.1 325.7C 251.3 323.9 249.1 325.8 248.5 329.7C 247.8 334.2 246.8 336.2 245.2 336.8C 244.3 337.1 244 334.7 244 328.2C 244 323.3 244.3 319 244.7 318.7C 245 318.3 264.4 318 287.6 318C 319.6 318 330.1 318.3 330.6 319.2zM 368.4 319.6C 369.3 321.9 369.1 339.3 368.2 340.8C 367.5 341.7 363.8 342 352.9 341.8L 338.5 341.5L 338.2 331.1C 338.1 325.3 338.2 320 338.4 319.3C 338.8 318.3 342.3 318 353.4 318C 365.6 318 367.9 318.2 368.4 319.6zM 382.5 319C 382.8 319.5 386.7 320 391 320C 397.5 320 399.1 320.3 399.9 321.7C 400.8 323.4 401 323.4 402.4 321.5C 403.8 319.5 403.8 319.5 404.5 322C 404.8 323.4 405 328.3 404.8 333L 404.5 341.5L 389.5 341.5L 374.5 341.5L 374.2 331.1C 374.1 325.3 374.2 320 374.4 319.3C 375 317.8 381.6 317.5 382.5 319zM 415.5 330L 415.5 341.5L 412.8 341.8L 410 342.1L 410 330L 410 317.9L 412.8 318.2L 415.5 318.5L 415.5 330zM 614 319.5C 618.2 321.7 621.4 328.3 620.6 333.2C 619.8 338.4 617.6 341.5 613.5 343.4C 609.1 345.5 605.7 345.4 601 343C 593.9 339.4 592.6 328.5 598.6 321.9C 602.2 317.8 608.8 316.8 614 319.5zM 623.6 321.7C 623.9 322.7 624.6 324.3 625.1 325.2C 626.5 327.9 626.2 336.3 624.5 339.6C 622.3 344.1 618 347.6 612.7 349.4C 606.9 351.4 604.2 350.8 597.3 346.2C 593 343.3 592 342.2 592 339.9C 592 338.3 592.5 337 593 337C 593.6 337 594 337.6 594 338.4C 594 340.4 600.8 345.8 604.2 346.5C 612.3 348.3 620.7 343.1 623.1 334.9C 624.3 331.2 624.2 330.4 622.2 326.6C 621 324.4 620 321.9 620 321.2C 620 319.3 623 319.8 623.6 321.7zM 82.9 336.9C 92.7 347 93.8 347.9 98.3 348.5C 100.9 348.9 103.9 349 105 348.7C 109.4 347.6 122.1 353.6 130 360.6C 132.7 363 143.9 369 145.6 369C 147.1 369 150.2 372.5 149.3 373.3C 147.3 375.4 136 372.6 136 370C 136 368.8 127.7 365 125 365C 123.9 365 121.7 365.9 120.2 367C 117.8 368.7 116.9 368.9 112 368C 109 367.4 103.8 366.6 100.5 366C 97.2 365.5 92 364.7 89 364.2C 86 363.6 83.2 363.4 82.8 363.7C 81.2 364.6 82.1 367.1 84.4 368C 85.8 368.5 87.9 370.3 89.1 371.9C 92.1 376 93.3 376.2 97.1 373.4C 100.1 371.2 101.1 371 107 371.6C 110.6 371.9 115 373.1 116.8 374.1C 118.8 375.3 122 376 125 376C 127.7 376 130.2 376.4 130.5 377C 130.8 377.5 134.6 378 138.9 378C 148.2 378 155.2 380.3 152.9 382.5C 152.1 383.2 148.8 384.7 145.5 385.8C 140.4 387.5 137.3 387.8 125 387.6C 110.7 387.3 110.4 387.3 104.1 384L 97.7 380.6L 73.9 380.5C 60.8 380.5 49.8 380.2 49.5 379.8C 48.6 378.9 50.9 366.2 53.1 360.1C 54.3 357 56.9 349.8 58.9 344C 67 321.4 67.6 321.3 82.9 336.9zM 39.5 330C 40.5 331.1 42.4 332 43.7 332C 47.4 332 46.7 335.7 42.5 338.1C 40.4 339.4 38.7 341.3 38.4 342.9C 38 344.3 37.1 346.2 36.3 347.1C 35.5 348.1 34.1 351 33.1 353.6C 31.7 357.7 30.9 358.6 28.7 358.8C 24.7 359.3 24.5 357.3 28 347.4C 29.7 342.5 31.9 336.1 32.8 333.2C 34.6 327.5 36.4 326.6 39.5 330zM 51.5 342.7C 49.4 352.9 47.5 356.6 45.4 354.9C 43.3 353.2 43.7 348.7 46.5 342.6C 47.9 339.6 49.5 335.9 50 334.4C 50.8 332.4 51.4 332 52.2 332.8C 53 333.6 52.9 336.2 51.5 342.7zM 336 333C 336 333.5 335.6 334 335 334C 334.5 334 334 333.5 334 333C 334 332.4 334.5 332 335 332C 335.6 332 336 332.4 336 333zM 482 334.1C 482 336.5 479.7 336.2 479.2 333.7C 479 332.7 479.5 332 480.4 332C 481.4 332 482 332.9 482 334.1zM 476.4 335.9C 477.7 338.2 477.7 339 476.6 340.5C 474.7 343.1 473 341.5 473 336.9C 473 332.3 474.4 331.9 476.4 335.9zM 252 337C 252 340.1 255.2 341 267.1 341C 277 341 278.6 341.2 280.5 343C 282.2 344.6 283.2 344.9 285.1 344.2C 286.5 343.6 288.6 343.7 290.3 344.3C 292.6 345.1 293.5 344.9 295.3 343.2C 297.3 341.3 299 341.1 316.8 340.8L 336.1 340.5L 335.8 343C 335.6 344.9 335 345.4 333.5 345.1C 322.1 342.8 290.3 345.3 291.3 348.4C 291.7 349.6 297 349.3 298.4 347.9C 299 347.4 303.8 347 309.3 347L 319.1 347L 320.6 350.5C 322 353.8 322.3 354 327 354L 332 354L 332 392.9C 332 427.4 331.8 431.9 330.4 432.4C 328.4 433.2 305.6 433.2 303.6 432.4C 302.3 431.9 302 430.1 302 423C 302 416.7 301.6 413.9 300.6 413.1C 299.7 412.3 296.1 412 290.8 412.2L 282.5 412.5L 282.2 422.2L 281.9 431.8L 271.1 432.2C 265.2 432.3 256.8 432.3 252.4 432L 244.5 431.5L 244.5 412L 244.5 392.5L 257.8 392C 270.4 391.5 271.3 391.4 273.1 389.1C 274.5 387.4 275 385.2 275 380.9C 275 377.7 275.4 374.9 275.8 374.6C 277.4 373.6 295 373.2 298.6 374C 304.2 375.3 305.1 374.5 304.8 368.6C 304.5 364.3 304.2 363.5 302.5 363.5C 301 363.5 300.4 364.3 300.2 366.5C 300 368.1 299.5 369.9 299 370.4C 298.5 370.9 292.8 371.3 286.3 371.4C 279.8 371.5 273.9 371.9 273.3 372.3C 272.4 372.8 272 375.6 272 380.1C 272 384 271.6 387 271 387C 270.4 387 270 380 270 367.9C 270 356.7 269.6 348.1 269 346.9C 268.1 345.3 266.8 345 259.5 345C 254.9 345 250.5 344.7 249.6 344.4C 247.7 343.7 247.6 341.3 249.3 337.7C 250.7 334.5 252 334.2 252 337zM 231 343C 231 343.5 230.6 344 230.1 344C 229.5 344 228.8 343.5 228.5 343C 228.2 342.4 228.6 342 229.4 342C 230.3 342 231 342.4 231 343zM 242 343.5C 242 344.3 241.6 345 241 345C 240.5 345 240 344.3 240 343.5C 240 342.7 240.5 342 241 342C 241.6 342 242 342.7 242 343.5zM 201 345C 201 345.5 200.6 346 200 346C 199.5 346 199 345.5 199 345C 199 344.4 199.5 344 200 344C 200.6 344 201 344.4 201 345zM 420 345C 420 345.5 419.6 346 419 346C 418.5 346 418 345.5 418 345C 418 344.4 418.5 344 419 344C 419.6 344 420 344.4 420 345zM 41.9999 346.6C 41.9999 348.5 38.1999 354 36.8999 354C 35.2999 354 35.8999 350.9 38.2999 348C 40.7999 344.7 41.9999 344.3 41.9999 346.6zM 192.5 347C 193.3 348.3 187.2 352 184.3 352C 182.4 352 182 351.4 182 349C 182 346.1 182.1 346 186.9 346C 189.7 346 192.2 346.4 192.5 347zM 266.3 347.9C 267.6 349 267.8 351.5 267.4 365.3C 266.7 388.3 268 386.1 255.2 385.8L 244.5 385.5L 244.2 367.1C 244 353.7 244.3 348.4 245.2 347.3C 246.2 346.1 248.3 345.9 255.6 346.2C 261 346.4 265.4 347.1 266.3 347.9zM 417.2 349.1C 419.8 351.6 420 352.5 420 359.5C 420 365.7 419.6 367.7 418 369.7C 416.9 371.1 416 372.9 416 373.6C 416 375.7 412.6 377 407.2 377C 401 377 399.6 378.5 400.2 384.5C 400.9 389.8 402.4 392 405.6 392C 406.9 392 408 392.4 408 393C 408 393.5 406.8 394 405.3 394C 403.7 394 401.5 394.3 400.4 394.6C 398.8 395 397.1 394.2 394.1 391.5C 390.1 387.8 390 387.7 390 380.9L 390 374L 393.8 374C 397.1 373.9 397.3 373.8 395.8 372.6C 394.7 371.8 394 369.9 394 367.8C 394 365.2 393.4 363.8 391.8 362.7C 389.6 361.3 389.6 361.2 391.3 359.2C 393.2 357.1 392.3 355.6 389.7 356.6C 387.8 357.3 386.4 372.9 387.4 382.4C 388 387.8 388.6 389.2 391.5 392C 393.6 394 396.3 395.5 398.7 395.9C 402 396.4 402.5 396.9 403.1 399.9C 403.7 402.8 403.4 403.8 401.2 406C 399.7 407.5 397.8 409.8 396.9 411.1C 395.3 413.4 395.2 413.4 393.2 411.7C 391.5 410.2 389.6 410 377.9 410.2L 364.5 410.5L 364.2 415.9C 364 418.9 364.4 421.8 364.9 422.3C 365.7 423.1 366 422 366 418.8L 366 414.3L 370.3 413.8C 372.6 413.5 378.3 413.5 383 413.9L 391.5 414.5L 391.8 418.2C 392.1 421.8 394 423.7 394 420.5C 394 418.3 396.7 418.7 398.4 421.2C 400.3 423.9 400.5 430.1 398.8 431.8C 397.9 432.7 391.5 433 376.3 433C 355.7 433 355 432.9 353.9 430.9C 352.9 428.9 353 426.9 354.6 420.6C 355 419 354.8 418 354.1 418C 352.2 418 350 423.8 350 429C 350 433.7 349 435.3 347.5 433C 347.2 432.4 345.9 432.2 344.6 432.6C 343.4 432.9 341.2 432.7 339.8 432.1L 337.1 431.1L 337.1 391C 337.1 367.9 337.5 349.9 338 348.4L 339 345.9L 376.7 346.1L 414.4 346.3L 417.2 349.1zM 464 347.5C 465.1 348.2 465.4 390.6 464.3 408.8L 463.7 420.1L 459.7 424.6C 455.3 429.6 452.3 431.4 446.5 432.5C 440.3 433.7 406.8 433.1 405.2 431.8C 403.8 430.6 404 419.8 405.5 408.8C 406.2 404 409.3 400 414.2 397.6C 415.5 397 417.7 394.1 419.3 391.1C 422 385.7 422 385.4 422 366.4C 422 352.5 422.3 347.1 423.2 346.8C 425.1 346.1 462.9 346.8 464 347.5zM 598.6 350.2C 599.5 351.7 595.9 354.3 594.7 353.1C 593.4 351.8 594.6 349 596.4 349C 597.2 349 598.2 349.5 598.6 350.2zM 328 351C 328 351.5 327.1 352 326 352C 324.9 352 324 351.5 324 351C 324 350.4 324.9 350 326 350C 327.1 350 328 350.4 328 351zM 43.6 357.5L 46.4 360.1L 44.1 366.8C 42.8 370.5 40.7 375.9 39.4 378.9L 37 384.2L 33.5 381.1C 31.5 379.4 29.5 378 29.1 378C 28.6 378 27.9 377.2 27.5 376.2C 26.2 372.9 24.2 364.5 24.6 363.9C 24.8 363.5 26.7 363 28.7 362.6C 30.9 362.3 34.2 360.6 36.5 358.5C 38.7 356.6 40.6 355.1 40.7 355C 40.8 355 42.1 356.1 43.6 357.5zM 95.9 367.9C 98 369.3 96.4 372.2 93.8 371.8C 90.9 371.4 89.9 367 92.7 367C 93.7 367 95.1 367.4 95.9 367.9zM 413.8 380.6C 417 386.4 409.2 392.7 403.8 388.6C 401.7 387.1 401.4 382 403.2 380.2C 405 378.4 412.7 378.7 413.8 380.6zM 171.5 381.2C 179.6 382.8 180.5 384.5 173 384.1C 169 383.9 162 381.8 162 380.9C 162 379.7 163.9 379.8 171.5 381.2zM 161.8 386C 164.7 387.1 168.5 388 170.3 388C 173.3 388 180.5 389.6 189 392.1C 190.9 392.7 196.3 393.5 201 394C 205.7 394.5 211.5 395.4 214 395.9C 228.5 398.9 231.2 399.1 233.1 397.5C 234 396.6 235.7 396 236.7 396.2C 238.3 396.5 238.5 398 238.7 413C 238.9 422.1 238.6 430.1 238.2 430.8C 237.4 432 216.4 432.3 118.8 432.1L 81 432L 81 429.2C 81 427.7 80.5 425.9 79.8 425.2C 78.3 423.7 59.4 423.5 58.5 425C 57.3 427 54.2 426 53.6 423.4C 53.1 421.7 52.4 421 51.5 421.4C 50.7 421.7 49.3 421.1 48.4 420.2C 47.4 419.3 45.7 418 44.6 417.5C 41.9 416.2 41.1 410.3 43.4 409.4C 44.3 409.1 45 407.9 45 406.9C 45 405.8 45.9 403.2 47 401C 48.1 398.8 49 395.3 49 393.1C 49 385.6 47.7 386 72.9 386C 85.3 386 96.1 386.4 96.8 386.8C 97.7 387.5 98 391.1 97.8 401.6L 97.5 415.5L 95 415.8C 91.9 416.2 90.5 417.5 91.5 419C 91.9 419.7 92.6 419.8 93.3 419.1C 94 418.6 95.6 418 97 417.8L 99.5 417.5L 99.8 401.7C 100.1 384.4 99.9 384.8 106.6 387.6C 109.7 388.9 113.6 389.1 128.4 388.8C 144.7 388.5 146.9 388.2 150.5 386.3C 155.5 383.6 155.4 383.6 161.8 386zM 35.6 387.5C 36.2 388.9 33.3 397.7 30.9 402.2C 30.4 403.2 30 404.5 30 405C 30 405.6 28.7 408.9 27.1 412.3C 25.5 415.7 23.9 419.4 23.5 420.5C 22.8 422.3 22.7 422.4 22.3 420.7C 22 419.7 22.3 418.4 22.8 417.7C 23.3 417 24.3 414.2 25 411.5C 25.7 408.7 26.6 406 27 405.5C 27.4 404.9 28 403.1 28.3 401.5C 29.3 396 31 388.5 31.5 387.2C 32.1 385.5 34.9 385.7 35.6 387.5zM 191 387C 191 387.5 190.3 388 189.5 388C 188.7 388 188 387.5 188 387C 188 386.4 188.7 386 189.5 386C 190.3 386 191 386.4 191 387zM 267.5 389C 267.2 389.5 266.2 390 265.4 390C 264.6 390 264 389.5 264 389C 264 388.4 264.9 388 266.1 388C 267.2 388 267.8 388.4 267.5 389zM 44.8 394.1C 45.1 398.1 43.1 401 39.9 401C 37.6 401 37.4 398.6 39.5 393.6C 41.6 388.7 44.4 389 44.8 394.1zM 473.9 396.2C 473.9 399 473.7 399.2 473 397.5C 471.8 394.7 471.8 393 473 393C 473.6 393 474 394.5 473.9 396.2zM 38.5 408.7C 40.1 410.2 40.1 410.5 38.6 411.5C 37.7 412.2 37 413.9 37 415.3C 37 416.7 36.6 418.1 36.2 418.4C 35.7 418.7 34.1 422.1 32.6 425.9C 29.9 432.7 27.6 434.8 26.4 431.6C 26.1 430.8 27.5 425.7 29.5 420.3C 35 405.8 35.3 405.4 38.5 408.7zM 473.6 415.7C 472.6 416.7 471.7 415.2 472.6 413.9C 473.2 412.8 473.4 412.8 473.8 413.9C 474 414.6 473.9 415.4 473.6 415.7zM 297.5 421.5L 297.5 428.5L 292 428.6C 289 428.7 285.9 428.3 285.3 427.8C 283.9 426.7 283.6 418.3 284.8 416.4C 285.7 415 289.3 414.2 294 414.4L 297.5 414.5L 297.5 421.5zM 402 416.5C 402 417.3 401.3 418 400.5 418C 399.7 418 399 417.3 399 416.5C 399 415.7 399.7 415 400.5 415C 401.3 415 402 415.7 402 416.5zM 46 423.2C 46 425 46.4 427 46.8 427.7C 47.8 429.3 57.6 429.6 61.1 428.2C 62.6 427.6 66.8 427 70.6 426.9L 77.5 426.6L 77.8 430.3L 78.1 434L 72.8 434C 69.9 434 66.4 434.7 65 435.5C 60.3 438.2 59.9 438.2 57.9 436.4C 56.1 434.8 48.8 434.2 43.9 435.2C 43.2 435.4 42.1 434.5 41.5 433.2C 40.3 430.5 39.3 430.4 38.5 433C 38.2 434.1 37.2 435 36.4 435C 34.5 435 35.3 430.5 38.3 424.3C 40 420.8 40.9 420 43.2 420C 45.7 420 46 420.4 46 423.2zM 22 425C 22 425.5 21.5 426 20.9 426C 20.4 426 20.2 425.5 20.5 425C 20.8 424.4 21.3 424 21.6 424C 21.8 424 22 424.4 22 425zM 478 424.5C 478 425.7 465.2 438.4 461.2 441.1C 456.1 444.5 455.4 444.6 454 442C 452.6 439.4 453.3 438.4 458 436C 460.2 434.9 463 432.9 464.4 431.5C 465.8 430.1 468 429 469.3 429C 470.6 429 472.7 427.9 474 426.5C 476.2 424.2 478 423.3 478 424.5zM 488 430.6C 488 432.3 485.8 432 485.2 430.2C 485 429.5 485.5 429 486.4 429C 487.3 429 488 429.7 488 430.6zM 20 432C 20 432.5 19.6 433 19 433C 18.5 433 18 432.5 18 432C 18 431.4 18.5 431 19 431C 19.6 431 20 431.4 20 432zM 242 435C 242 435.5 241.6 436 241 436C 240.5 436 240 435.5 240 435C 240 434.4 240.5 434 241 434C 241.6 434 242 434.4 242 435zM 335.8 435.1C 335.6 435.7 335 436.1 334.5 436.1C 334 436.1 333.4 435.7 333.2 435.1C 333 434.5 333.6 434 334.5 434C 335.4 434 336 434.5 335.8 435.1zM 135.5 437.6C 153.6 437.9 161.7 438.4 162.2 439.3C 163.1 440.8 162.6 483.2 161.6 484.8C 161.2 485.6 158.4 486 154 486C 147.2 486 147 485.9 146.4 483.2C 146.1 481.7 145.7 480 145.5 479.4C 145.1 478 139.2 476.9 133.2 477C 127 477.1 125.3 476.3 124.1 472.9C 122.4 467.9 120.5 469.9 120.2 477C 120 480.6 119.4 484 118.8 484.7C 117.5 486.3 69.9 486.6 64.1 485C 62.1 484.5 58.8 483.8 56.8 483.5C 54.8 483.2 52.1 482.1 50.9 481.1C 48.8 479.5 48.8 478.9 49.7 474.4C 50.3 471.7 52.6 464.3 55 458C 57.3 451.7 59.4 445.5 59.7 444.3C 60 443 61.8 440.6 63.8 438.9L 67.3 435.8L 88.4 436.4C 100 436.8 121.2 437.3 135.5 437.6zM 31.3 439.2C 33.8 440.2 34 440.7 34 445.4C 34 448.3 34.5 451.1 35.1 451.7C 36.6 453.2 35.5 456.1 33.6 455.4C 32.8 455.1 32 454 31.7 452.9C 31.4 451.9 30.4 451 29.3 451C 28.3 451 26 450.1 24.1 448.9C 20.9 447 20.8 446.7 21.4 442.7C 22.4 436.7 23.7 436.3 31.3 439.2zM 55.8 440.3C 56.2 443.6 48.4 463.9 46.5 464.6C 44.9 465.3 36.6 460.7 37.1 459.5C 37.6 458.4 40.7 458.3 43.3 459.5C 44.5 460 45 459.8 45 458.6C 45 457.7 44 456.6 42.8 456.1C 41.5 455.6 39.7 454.4 38.8 453.3C 37.3 451.7 37.3 451 38.3 449C 39 447.6 40.2 444.6 40.9 442.3C 42.5 437.6 43.4 437.1 50.5 437.3C 55.2 437.5 55.5 437.7 55.8 440.3zM 311.6 438L 332 438L 331.8 456.7L 331.5 475.3L 328.8 476.2C 326.9 476.9 325.2 476.7 323.3 475.8L 320.5 474.5L 320.5 462.7C 320.5 454 320.2 451 319.3 451C 318.3 451 318 454.1 318 463.1L 318 475.1L 315 476.1C 312.5 477 312 477.7 312 480.4C 312 485.7 311 486 294.8 486C 285.6 486 280 486.4 280 487C 280 487.6 285.8 488 295.5 488C 308.6 488 311.2 488.2 311.7 489.5C 312 490.4 311.9 491.4 311.6 491.8C 310.5 492.9 295.6 493.9 294.5 492.9C 292.7 491.1 292 492.1 292 496.2C 292 502.1 293.9 505.4 297.3 505.8C 299.7 506.1 300.1 506.5 299.8 508.8C 299.5 511.4 299.2 511.5 294 511.5C 289.1 511.5 288.5 511.3 288.2 509.2C 287.7 505.9 286.2 506.5 285.8 510.2C 285.5 513.4 285.3 513.5 281 513.5C 276.7 513.5 276.5 513.3 276.2 510.5C 275.7 506.4 274.3 505 270.5 505C 265.8 505 265.4 506.3 269.7 507.5C 273.2 508.5 273.5 508.9 273.5 512C 273.5 514.8 273.1 515.5 271 516C 268.6 516.6 268.5 516.8 268.5 526L 268.5 535.5L 280 535.8C 294 536.1 294 536.1 294 524.3L 294 516L 296.9 516C 298.9 516 299.9 516.6 300.3 518C 301 520.6 303.6 520.6 305.2 518C 306.4 516.2 307.6 516 318 516C 325.7 516 330 516.4 330.8 517.2C 331.6 518 332 523.4 332 534.7C 332 549.5 331.8 551.1 330.1 552.6C 323.7 558 321 561.1 321 562.9C 321 565.8 319.3 566.2 314.5 564.6C 310.9 563.3 310.5 562.8 310.5 559.9C 310.5 557.2 310 556.5 308 555.9C 303.2 554.6 301 554.9 301 556.9C 301 560.6 300.7 560.6 277 553C 272.3 551.5 266.5 549.7 264 549C 257.5 547.2 233.8 539.8 231.5 539C 230.4 538.5 226.1 537.2 222 536C 201.8 530.1 188.4 525.6 187.1 524.4C 186.1 523.5 185.4 520.1 185.1 515.3C 184.5 507.6 184.5 507.5 181.6 507.2C 177.9 506.7 177 508.2 177 514.7L 177 520L 173.7 520C 168.4 520 168 518.9 168 504.8C 168 493.7 168.2 492 169.8 491.2C 170.7 490.6 176.7 490.3 183 490.4C 193.9 490.5 194.6 490.6 195.5 492.8C 196 494 197.2 495.2 198 495.5C 199.2 495.8 231.6 496.4 235.7 496.1C 236.3 496 237.1 494.6 237.5 493C 238.2 490 238.2 490 245 490C 249.8 490 252.1 490.4 253 491.5C 254.7 493.5 273.4 493.7 272.8 491.7C 272.5 490.9 269.7 490.4 264.7 490.2C 252.7 489.8 255.5 488 268.2 488C 275.5 488 279.1 487.7 278.4 487C 277.9 486.5 270 485.9 261 485.8L 244.5 485.5L 244.5 462L 244.5 438.5L 266.5 438C 278.6 437.7 289.1 437.6 289.8 437.7C 290.6 437.9 300.4 438 311.6 438zM 238.8 459C 239 470.3 238.8 481 238.5 482.7L 237.9 486L 204 486C 171.6 486 170 485.9 169 484.1C 168.4 482.9 168 473.4 168.1 460.1L 168.1 438L 203.3 438.2L 238.5 438.5L 238.8 459zM 356 440C 357 441.8 358.1 442 367 442C 376.2 442 377.1 442.2 380 444.6C 381.7 446.1 383.3 447 383.7 446.7C 385.2 445.2 388 448.2 388 451.4C 388 453.7 388.9 455.5 391.3 457.7C 399.6 465.7 400 466.3 400 471.1C 400 473.6 399.5 476.1 398.8 476.8C 397.9 477.7 389.8 478 368.3 478C 340.4 478 339 477.9 338 476.1C 336.8 473.8 336.6 445.1 337.8 443.3C 338.2 442.7 341.2 442 344.5 441.8C 349.6 441.5 350.5 441.2 350.2 439.7C 349.8 437.2 354.6 437.4 356 440zM 399.8 447.2C 399.5 455.7 399.3 456.5 397.5 456.5C 396.2 456.5 394.8 454.9 392.8 451C 389.9 445.2 384.8 440 381.8 440C 380.8 440 380 439.5 380 439C 380 438.4 384 438 390 438L 400.1 438L 399.8 447.2zM 438.6 440.6C 439 442 439 448.7 438.8 455.3C 437.9 475.6 440.8 481.1 457 490.3C 463.1 493.8 479 503.7 479.9 504.6C 480.1 504.8 480.1 505.2 479.8 505.5C 479.1 506.2 473.8 503.9 456.4 495.4C 448.2 491.3 440.7 488 439.8 488C 438.9 488 437.9 487.6 437.6 487.1C 437.3 486.7 431.9 483.8 425.7 480.7C 416.4 476.1 413.5 474.2 410 470.1L 405.8 465L 405.3 454C 405 447.9 405.1 441.9 405.4 440.5L 406 438L 422 438L 438 438L 438.6 440.6zM 26.5 453.2C 29.1 454.3 29.7 455.5 28.2 456.4C 26.9 457.2 20.4 455.1 19 453.5C 17.9 452.2 18.2 452 20.8 452C 22.5 452 25.1 452.5 26.5 453.2zM 464.8 453.2C 466.6 455 466.3 456 464 456C 462.7 456 462 455.3 462 454C 462 451.7 463 451.4 464.8 453.2zM 21.7 459.6C 26.5 461.5 27.5 464 23.4 464C 19.2 464 14.4 460.8 15.6 458.8C 16.3 457.7 16.8 457.8 21.7 459.6zM 32 461C 32 461.5 31.6 462 31 462C 30.5 462 30 461.5 30 461C 30 460.4 30.5 460 31 460C 31.6 460 32 460.4 32 461zM 455.5 462C 456.3 463.3 454.2 466 452.4 466C 450.7 466 450.6 463.8 452.2 462.2C 453.7 460.7 454.7 460.7 455.5 462zM 40.5 466.4C 42.9 467.4 44 468.6 44 469.9C 44 472.5 43.3 472.5 37.6 470C 35 468.9 33 467.4 33 466.5C 33 464.6 36 464.6 40.5 466.4zM 20.4 467.5C 24.3 469.2 25.3 472.7 22.5 475C 20.2 476.9 12.3 474.3 11.6 471.4C 10.2 466.1 13.5 464.7 20.4 467.5zM 30 469.1C 30 470.2 27.3 470.3 26.6 469.1C 26.3 468.7 26.3 468 26.6 467.7C 27.4 466.9 30 468 30 469.1zM 38.3 475.2C 40.7 476 42 477.1 42 478.2C 42 480.3 41.5 480.4 35.3 478.8C 30.1 477.4 28.9 476.5 29.7 474.3C 30.3 472.7 31.7 472.9 38.3 475.2zM 405.2 476.7C 407.8 479 407.4 480 404 480C 400.9 480 400.5 479.4 401.6 476.6C 402.4 474.6 402.9 474.6 405.2 476.7zM 136.2 480.2C 137.1 485.5 136.3 486.1 129.2 485.8C 123.1 485.5 122.5 485.3 122.2 483.2C 121.5 478.7 122.5 478 129.4 478C 135.2 478 135.8 478.2 136.2 480.2zM 336 480.1C 336 481.7 335.5 482.1 333.3 481.8C 331.6 481.6 330.4 480.8 330.2 479.7C 329.9 478.4 330.5 478 332.9 478C 335.4 478 336 478.4 336 480.1zM 25 481C 26.4 481.4 29.4 482.3 31.8 483C 36.7 484.5 37.1 486 34.1 493.6C 33 496.3 31.2 501.1 30 504.2C 28.1 509.2 27.4 510 25.1 510C 19.8 509.9 18.6 507.8 12.7 487.5C 10.7 480.6 11.6 479.1 17.7 479.7C 20.3 479.9 23.6 480.5 25 481zM 318 479.9C 318 481.3 316.2 482.2 315 481.5C 314.4 481.1 314.2 480.4 314.5 479.9C 315.3 478.7 318 478.7 318 479.9zM 46.8 481.2C 48.7 483.1 48.2 484 45.5 484C 42.8 484 42.7 483.9 43.6 481.6C 44.3 479.7 45.2 479.6 46.8 481.2zM 143.5 483.1C 143.5 484.6 142.8 485.6 141.8 485.8C 140.5 486.1 140 485.5 140 483.7C 140 482.4 140.3 481 140.7 480.6C 142 479.4 143.5 480.7 143.5 483.1zM 328.9 483.1L 332.1 484.2L 331.8 497.9L 331.5 511.5L 318.7 511.8L 305.9 512.1L 306.2 503.8L 306.5 495.5L 311.1 495.8C 316.5 496.2 319 494.4 319 490C 319 482.6 321.8 480.6 328.9 483.1zM 409.4 484.3C 411.7 485.8 412 486.7 412 491.5C 412 494.6 411.5 497.9 410.8 498.9C 409.9 500.4 409.9 501.4 410.8 503.5C 411.5 505 412 510.9 412 517.9C 412 526.5 412.4 530.6 413.5 532.6C 414.6 534.7 415 538.7 415 546.6C 415 555.9 414.7 558.2 413.2 560C 411.7 561.9 411 562.1 409.2 561.1C 407.9 560.4 406.9 560.3 406.5 561C 405.6 562.4 394.6 562.2 393.2 560.8C 392.3 559.9 391.7 559.9 390.8 560.8C 390.1 561.5 386.5 562 381.8 562L 374.1 562L 373.8 556.2L 373.5 550.5L 362.6 550.2C 356.5 550.1 351.4 549.7 351.2 549.5C 350.9 549.3 351.3 547.7 352 546C 353 543.7 353 542.6 352.1 541.7C 349.1 538.7 350.9 538 361.9 538C 376.4 538 378 537.4 378 531.6C 378 527 375.6 520 374 520C 372.5 520 371.8 521.9 371.8 526.8C 371.7 529.4 371.2 531.8 370.6 532.2C 368.7 533.5 339.5 533.1 338.2 531.8C 336.9 530.5 336.4 486.7 337.7 483.5C 338.3 481.9 341 481.8 372.5 482.2C 402.8 482.6 407.1 482.8 409.4 484.3zM 48.5 487C 48.8 487.5 48.6 488 48.1 488C 47.5 488 47 487.5 47 487C 47 486.4 47.2 486 47.4 486C 47.7 486 48.2 486.4 48.5 487zM 316.4 488.6C 317.2 491.5 316.7 492.5 315.1 491.5C 313.8 490.7 313.6 486 314.9 486C 315.4 486 316.1 487.2 316.4 488.6zM 60 489.7C 64.4 490.7 67.7 492.6 66.7 493.6C 66 494.3 59.1 492.6 55.8 490.9C 54.8 490.4 53.4 490 52.6 490C 51.8 490 50.8 489.5 50.4 488.9C 49.7 487.7 52.5 488 60 489.7zM 426.8 492C 430.2 493.6 433.2 495.5 433.5 496.1C 433.9 496.7 433.2 498.2 432 499.5C 428.4 503.3 429.7 505.7 437 509.6C 444 513.2 445.7 513 446.2 508.1C 446.4 506.3 445.8 505.3 444.1 504.4C 442.8 503.7 441.3 502.4 440.8 501.6C 439.2 498.8 442.7 499.8 454.3 505.5C 472.4 514.3 477.5 517.4 477.8 519.7C 478 520.9 475 526.6 470.3 533.8C 466 540.5 459.6 550.5 456 556.1C 452.4 561.7 448.3 567.6 446.8 569.3C 445.2 570.9 444 572.8 444 573.5C 444 575 430.4 596 428.4 597.6C 427.4 598.4 425.8 598.5 423.2 597.8C 421.2 597.3 418.3 596.6 416.8 596.3C 412.2 595.4 411.3 593.4 414.2 590.5C 416.4 588.3 416.8 586.9 417.4 577.8C 417.7 572.1 418 549.8 418 528.2C 418.1 495.8 418.3 489 419.4 489C 420.2 489 423.5 490.3 426.8 492zM 108.3 491.3C 109.1 493.4 107.9 498.1 106.3 498.7C 103.6 499.8 84 493.6 85.5 492.2C 85.8 491.8 90.3 491.2 95.3 490.9C 100.4 490.6 105.2 490.3 106.1 490.2C 107 490.1 108 490.6 108.3 491.3zM 115.5 495.3C 114.6 499.7 112.7 502.5 111.2 501.6C 109.4 500.5 109.8 496.9 112.1 493.1C 114.6 488.9 116.4 490.1 115.5 495.3zM 126.4 493.4C 127.2 495.2 128.3 497.1 128.9 497.4C 130.3 498.3 130.3 504.7 129 505.5C 127.6 506.3 118.2 504 117 502.5C 116.4 501.8 116.8 499.4 118 495.9C 119.1 493 120 490.4 120 490.3C 120 490.1 121.1 490 122.5 490C 124.4 490 125.3 490.8 126.4 493.4zM 149.8 501.2C 150.1 513.3 150.1 513.4 142.1 510.9C 132.5 507.9 132 507.5 132 502.1C 132 499.3 131.6 496.8 131 496.5C 129.9 495.8 129.6 491.7 130.7 490.6C 131.1 490.2 135.5 490.1 140.5 490.2L 149.5 490.5L 149.8 501.2zM 210 490.9C 210 492.3 208.2 493.2 206.9 492.4C 206.1 492 206.2 491.5 207.1 490.9C 208.9 489.8 210 489.8 210 490.9zM 232.1 491C 235 492.6 234.4 494 230.8 494C 226.2 494 224.2 492.6 226.6 491.1C 229 489.8 229.7 489.8 232.1 491zM 161.7 494.4C 162.3 495 163 499.1 163.2 503.4L 163.5 511.4L 160 512.2C 153.1 513.9 153.5 514.4 153.2 504.1C 152.8 492.3 153.1 491.6 157.2 492.5C 159 492.9 161 493.7 161.7 494.4zM 74.5 495C 74.8 495.5 74.4 496 73.6 496C 72.7 496 72 495.5 72 495C 72 494.4 72.4 494 72.9 494C 73.5 494 74.2 494.4 74.5 495zM 81.5 497C 81.9 497.6 80.8 498 79.1 498C 77.4 498 76 497.5 76 497C 76 496.4 77.1 496 78.4 496C 79.8 496 81.2 496.4 81.5 497zM 87.5 499C 87.8 499.5 87.2 500 86.1 500C 84.9 500 84 499.5 84 499C 84 498.4 84.6 498 85.4 498C 86.2 498 87.2 498.4 87.5 499zM 93 501C 93 501.5 92.1 502 91 502C 89.9 502 89 501.5 89 501C 89 500.4 89.9 500 91 500C 92.1 500 93 500.4 93 501zM 438.8 504.2C 441.1 505.5 443 507.1 443 507.7C 443 509.4 442.5 509.3 438.2 507.3C 433.4 505.1 431.9 504 432.6 502.9C 433.4 501.6 434 501.7 438.8 504.2zM 107.5 505C 107.8 505.6 107 506 105.6 506C 104.2 506 102.8 505.5 102.5 505C 102.2 504.4 103 504 104.4 504C 105.8 504 107.2 504.4 107.5 505zM 113 507C 113 507.5 112.3 508 111.5 508C 110.7 508 110 507.5 110 507C 110 506.4 110.7 506 111.5 506C 112.3 506 113 506.4 113 507zM 119.5 509C 119.8 509.5 119.2 510 118.1 510C 116.9 510 116 509.5 116 509C 116 508.4 116.6 508 117.4 508C 118.2 508 119.2 508.4 119.5 509zM 126 511C 126 511.5 125.4 512 124.6 512C 123.8 512 122.8 511.5 122.5 511C 122.2 510.4 122.8 510 123.9 510C 125.1 510 126 510.4 126 511zM 182 516C 182 519.3 181.6 522 181 522C 180.4 522 180 519.3 180 516C 180 512.7 180.4 510 181 510C 181.6 510 182 512.7 182 516zM 479.5 511C 479.8 511.5 479.4 512 478.6 512C 477.8 512 476.8 511.5 476.5 511C 476.2 510.4 476.6 510 477.4 510C 478.2 510 479.2 510.4 479.5 511zM 132 513C 132 513.5 131.4 514 130.6 514C 129.8 514 128.8 513.5 128.5 513C 128.2 512.4 128.8 512 129.9 512C 131.1 512 132 512.4 132 513zM 26.3 515.7C 28.5 516.4 28.5 519 25.9 526.4C 24.8 529.8 23.7 533.1 23.4 533.9C 22.6 536.3 20.3 533.3 19.7 529.2C 19.4 527.2 18.7 523.3 18.1 520.5C 16.6 513.8 17.1 512.8 21.2 514.1C 23 514.7 25.3 515.4 26.3 515.7zM 144 517C 144 517.5 143.6 518 143 518C 142.5 518 142 517.5 142 517C 142 516.4 142.5 516 143 516C 143.6 516 144 516.4 144 517zM 285 519C 285 519.5 284.5 520 283.9 520C 283.4 520 283.2 519.5 283.5 519C 283.8 518.4 284.3 518 284.6 518C 284.8 518 285 518.4 285 519zM 272 526C 272 527.6 271.6 529 271 529C 269.9 529 269.6 524.7 270.7 523.7C 271.8 522.5 272 522.9 272 526zM 170 525C 170 525.5 169.8 526 169.6 526C 169.3 526 168.8 525.5 168.5 525C 168.2 524.4 168.4 524 168.9 524C 169.5 524 170 524.4 170 525zM 286 526C 286 527.7 285.3 528 281.1 528C 277.8 528 276 527.5 275.7 526.6C 274.9 524.5 275.9 524 281.2 524C 285.3 524 286 524.3 286 526zM 192.8 530.9C 193.7 531.4 195.4 532.2 196.5 532.6C 198.4 533.3 198.4 533.3 196.6 533.7C 195.6 534 194.3 533.7 193.7 533.1C 193.1 532.5 191.6 532 190.3 532C 189 532 188 531.5 188 531C 188 529.7 190.5 529.7 192.8 530.9zM 284.8 531.6C 289.1 532.8 286.9 534 280.5 534C 273.5 534 271.6 532.4 277.8 531.7C 279.8 531.5 281.7 531.3 282 531.2C 282.3 531.1 283.5 531.3 284.8 531.6zM 206 535C 206 535.5 204.9 536 203.6 536C 202.2 536 200.8 535.5 200.5 535C 200.1 534.4 201.2 534 202.9 534C 204.6 534 206 534.4 206 535zM 213.6 537.6C 215.8 538.6 216.9 539.5 216.2 539.8C 215.4 540 214.3 539.7 213.7 539.1C 213.1 538.5 211.6 538 210.4 538C 209.1 538 207.8 537.5 207.5 537C 206.6 535.5 209.3 535.8 213.6 537.6zM 344.9 540.2C 345.3 541.5 345.6 546 345.6 550.3L 345.5 558.1L 352.4 557.9C 359.4 557.7 359.4 557.7 360.7 560.8C 361.6 562.9 362.7 564 364 564C 366.3 564 366.5 562.3 364.5 559.6C 362.8 557.4 363.4 556 366.1 556C 367.6 556 368 556.7 368 559.2C 368 565.2 375.3 569.6 378 565.2C 379 563.6 379.2 563.7 380.6 565.8C 382.6 568.5 383.5 568.5 386.7 566C 388.9 564.3 390.8 564 398.8 564C 411.4 564 412 564.5 412 575.4C 411.9 582.9 411.7 583.8 409 586.9C 406.4 590 405.5 590.4 401.3 590.3C 398.6 590.3 391.8 588.7 386 586.7C 380.2 584.8 372.8 582.4 369.5 581.5C 363.6 579.8 362.4 579.4 356.7 577.1C 355.2 576.5 353 576 352 576C 350.2 576 349 573.3 347.8 566.5C 347.2 563 344.5 564.1 344.2 568C 343.7 572.7 342.8 573.4 340 571.2C 338.1 569.6 337.6 568.2 337.3 563.4C 336.9 554.6 337.1 539.7 337.6 538.8C 337.9 538.4 339.5 538 341.1 538C 343.3 538 344.3 538.6 344.9 540.2zM 23 540.4C 23 541.2 22.6 542.1 22.1 542.5C 20.9 543.2 19.7 541.3 20.5 540C 21.4 538.5 23 538.8 23 540.4zM 224 541C 224 541.5 223.1 542 222.1 542C 221 542 219.8 541.5 219.5 541C 219.1 540.4 220 540 221.4 540C 222.8 540 224 540.4 224 541zM 237.5 545C 237.8 545.5 239.2 546 240.6 546C 241.9 546 243 546.4 243 547C 243 547.5 242.1 548 241.1 548C 240 548 238.8 547.5 238.5 547C 238.2 546.4 236.8 546 235.5 546C 234.2 546 232.8 545.5 232.5 545C 232.2 544.4 233 544 234.4 544C 235.8 544 237.2 544.4 237.5 545zM 251.5 549C 251.8 549.5 253.2 550 254.5 550C 255.8 550 257.2 550.4 257.5 551C 257.8 551.5 259.1 552 260.4 552C 262.9 552 268 554.1 268 555.2C 268 556.5 265.2 556.1 260.7 554.1C 258.4 553.1 254.4 551.6 251.8 550.9C 249.1 550.2 247 549.2 247 548.8C 247 547.6 250.8 547.8 251.5 549zM 334.2 558.2C 334.4 562.4 333.9 571.4 333.4 571.9C 333.2 572.1 331 571.6 328.5 570.9L 324 569.6L 324 564.9C 324 560.9 324.4 559.8 327.1 557.6C 331.4 553.9 334 554.1 334.2 558.2zM 277 557C 277 557.5 275.9 558 274.5 558C 273.1 558 272 557.5 272 557C 272 556.4 273.1 556 274.5 556C 275.9 556 277 556.4 277 557zM 281 559C 281 559.5 280.6 560 280 560C 279.5 560 279 559.5 279 559C 279 558.4 279.5 558 280 558C 280.6 558 281 558.4 281 559zM 308 559.4C 308 560.2 307.5 561.2 306.9 561.6C 305.5 562.4 303.6 560.5 304.4 559.1C 305.4 557.5 308 557.8 308 559.4zM 289 561C 289 561.5 287.9 562 286.5 562C 285.1 562 284 561.5 284 561C 284 560.4 285.1 560 286.5 560C 287.9 560 289 560.4 289 561zM 296.5 563C 296.8 563.5 298.2 564 299.6 564C 300.9 564 302 564.4 302 565C 302 565.5 301.1 566 300.1 566C 299 566 297.8 565.5 297.5 565C 297.2 564.4 295.8 564 294.5 564C 293.2 564 291.8 563.5 291.5 563C 291.2 562.4 292 562 293.4 562C 294.8 562 296.2 562.4 296.5 563zM 310 567C 310 567.5 308.9 568 307.5 568C 306.1 568 305 567.5 305 567C 305 566.4 306.1 566 307.5 566C 308.9 566 310 566.4 310 567zM 316 569C 316 569.5 315.3 570 314.5 570C 313.7 570 313 569.5 313 569C 313 568.4 313.7 568 314.5 568C 315.3 568 316 568.4 316 569zM 320.5 571C 320.8 571.5 320.4 572 319.6 572C 318.7 572 318 571.5 318 571C 318 570.4 318.4 570 318.9 570C 319.5 570 320.2 570.4 320.5 571zM 348 579C 348 579.5 346.9 580 345.5 580C 344.1 580 343 579.5 343 579C 343 578.4 344.1 578 345.5 578C 346.9 578 348 578.4 348 579zM 354 581C 354 581.5 353.1 582 352 582C 350.9 582 350 581.5 350 581C 350 580.4 350.9 580 352 580C 353.1 580 354 580.4 354 581zM 360.5 583C 360.9 583.6 360 584 358.6 584C 357.2 584 356 583.5 356 583C 356 582.4 356.9 582 357.9 582C 359 582 360.2 582.4 360.5 583zM 372.5 587C 372.9 587.6 372 588 370.6 588C 369.2 588 368 587.5 368 587C 368 586.4 368.9 586 369.9 586C 371 586 372.2 586.4 372.5 587zM 379.5 589C 379.9 589.6 379 590 377.6 590C 376.2 590 375 589.5 375 589C 375 588.4 375.9 588 376.9 588C 378 588 379.2 588.4 379.5 589zM 389.2 591.3C 394.3 593.1 395 594 391.2 594C 389.5 594 387.8 593.5 387.5 593C 387.2 592.4 386 592 385 592C 384 592 382.8 591.5 382.5 591C 381.6 589.6 384.8 589.8 389.2 591.3zM 399 595C 399 595.5 398.4 596 397.6 596C 396.8 596 395.8 595.5 395.5 595C 395.2 594.4 395.8 594 396.9 594C 398.1 594 399 594.4 399 595zM 405 597C 405 597.5 404.6 598 404 598C 403.5 598 403 597.5 403 597C 403 596.4 403.5 596 404 596C 404.6 596 405 596.4 405 597z"/>
<path style="stroke:none; fill:#000000" d="M 558.4 145.4C 557.1 148.7 558.4 151.5 561.4 151.8C 564.8 152.2 565.6 151.5 566.5 147.2L 567.2 144L 563 144C 560.4 144 558.7 144.5 558.4 145.4zM 564 147.4C 564 148.2 563.5 149.2 562.9 149.6C 561.5 150.4 559.6 148.5 560.4 147.1C 561.4 145.5 564 145.8 564 147.4z"/>
<path style="stroke:none; fill:#000000" d="M 394.3 178.6C 392.6 179.3 392.6 185.5 394.3 186.8C 395.6 187.9 409.8 187.6 410.9 186.5C 411.1 186.2 407.9 186 403.7 186L 396 186L 396 183C 396 179.6 395.2 179.8 409.3 179.5C 417.6 179.3 420.5 179.6 421.6 180.7C 424 183.1 421.6 186 417.2 186.1L 413.5 186.2L 417.5 187C 423.8 188.3 425.2 187.5 424.8 182.7L 424.5 178.5L 410 178.3C 402 178.2 394.9 178.4 394.3 178.6z"/>
<path style="stroke:none; fill:#000000" d="M 532.2 178.6C 528.3 181.3 529.9 187.6 535 189.2C 537.6 190.1 542 186.2 542 183C 542 180 539 177 536 177C 535.1 177 533.4 177.7 532.2 178.6z"/>
<path style="stroke:none; fill:#000000" d="M 129.1 242.4C 127.8 244 129.2 248 131 248C 131.6 248 132 248.8 132 249.9C 132 252.9 134.2 253.9 140 253.6C 145.3 253.3 145.5 253.2 145.5 250.4C 145.5 247.6 145.3 247.5 141.3 247.8C 137.4 248.1 136.9 247.9 135.9 245.3C 134.3 241 131.3 239.7 129.1 242.4z"/>
<path style="stroke:none; fill:#000000" d="M 593 200.2C 590.7 204 590.5 205 592.3 205C 592.9 205 594.3 203.6 595.2 202C 596.5 199.7 597.6 199 600 199C 601.6 199 603 198.5 603 198C 603 197.4 601.2 197 599 197C 595.5 197 594.7 197.5 593 200.2z"/>
<path style="stroke:none; fill:#000000" d="M 399.7 276.7C 399.4 280.5 399.6 283.9 400.1 284.4C 401.5 285.9 401.7 285 402.2 277.2C 402.4 272.2 402.2 270 401.4 270C 400.7 270 400.1 272.7 399.7 276.7z"/>
<path style="stroke:none; fill:#000000" d="M 424.6 326.9C 424.2 327.6 424.1 328.4 424.4 328.7C 425.3 329.6 426.3 328.3 425.8 326.9C 425.4 325.8 425.2 325.8 424.6 326.9z"/>
<path style="stroke:none; fill:#000000" d="M 503.7 325.6C 502.8 326.6 504.1 329 505.6 329C 506.4 329 507 328.1 507 327C 507 325.1 505.1 324.3 503.7 325.6z"/>
<path style="stroke:none; fill:#000000" d="M 523.7 379.8C 520.6 382.9 520 384.3 520 387.8C 520 392.8 522.6 396 526.8 396C 531.1 396 532 394.3 532 386.5C 532 380.8 531.6 379 530.2 377.7C 529.2 376.7 528.1 376 527.9 376C 527.6 376 525.7 377.7 523.7 379.8zM 529.7 386.2C 530 393.1 528.4 395.1 524.5 392.6C 521.4 390.5 521.2 386.3 524.1 382.6C 527.5 378.3 529.5 379.5 529.7 386.2z"/>
<path style="stroke:none; fill:#000000" d="M 511.7 439.8C 510.7 440.8 510 442 510 442.5C 510 443 509.3 444.2 508.3 445.2C 507.4 446.2 506.2 447.9 505.6 448.9C 505 449.9 502.4 454 499.8 457.9C 494.7 465.5 494.5 466 495.9 466C 496.7 466 515 439.7 515 438.5C 515 437.4 513.2 438.1 511.7 439.8z"/>
<path style="stroke:none; fill:#000000" d="M 273.7 354.3C 271.8 356.2 271.7 360.1 273.7 360.7C 274.3 360.9 275.1 359.7 275.5 358.1C 276.2 354.7 277.4 354.2 285.5 353.7C 289.8 353.5 289.4 353.4 283 353C 276.7 352.6 275.2 352.8 273.7 354.3z"/>
<path style="stroke:none; fill:#000000" d="M 279 388.5C 277.4 392.6 277.7 400 279.5 400.6C 281.4 401.4 286.8 397.1 287.6 394.3C 287.9 393.1 287.8 390.8 287.3 389.3C 286.6 387.1 285.6 386.4 283.2 386.2C 280.5 385.9 279.8 386.3 279 388.5z"/>
<path style="stroke:none; fill:#000000" d="M 248.7 404.7C 247.5 405.8 247.9 408.7 249.4 410C 250.2 410.6 251 412.6 251.2 414.3C 251.5 417.5 251.6 417.5 257.5 417.8C 263.2 418.1 263.7 418.3 264.7 421C 265.7 423.6 266.3 424 269.7 424C 271.8 424 274.2 424.5 275 425C 277.6 426.6 280 423.3 280 418C 280 413.8 279.6 413 275.8 409.7C 273.5 407.7 270.8 406 269.8 406C 268.9 406 267.8 405.5 267.5 405C 266.8 403.9 249.7 403.6 248.7 404.7zM 264 407C 264 407.6 261.2 408 257.5 408C 253.8 408 251 407.6 251 407C 251 406.4 253.8 406 257.5 406C 261.2 406 264 406.4 264 407zM 261.8 414.2C 262.1 415.7 261.4 416 258.1 416C 254.2 416 252.8 414.6 254.7 412.6C 256.1 411.2 261.5 412.5 261.8 414.2zM 272 418C 272 418.5 271.6 419 271 419C 270.5 419 270 418.5 270 418C 270 417.4 270.5 417 271 417C 271.6 417 272 417.4 272 418z"/>
<path style="stroke:none; fill:#000000" d="M 51.7 416.7C 50.4 417.9 51 420 52.5 420C 53.3 420 54 419.1 54 418C 54 416 52.9 415.4 51.7 416.7z"/>
<path style="stroke:none; fill:#000000" d="M 194.6 462.6C 194.3 463.5 194 465.2 194 466.5C 194 471.7 194.5 472 205.1 472C 214.7 472 215 471.9 215.6 469.6C 216.4 466.3 215.8 465.6 210.7 463.1C 205.3 460.5 195.5 460.2 194.6 462.6zM 212.3 466.6C 213.1 467.4 212 470 210.9 470C 210.4 470 210 469.1 210 468C 210 466.1 211.1 465.4 212.3 466.6z"/>
<path style="stroke:none; fill:#000000" d="M 357.7 571.6C 357.4 572 357.5 573 358 574C 358.7 575.4 359.7 575.6 362.1 575.1C 366.1 574.3 367.2 572 363.7 572C 362.3 572 360.5 571.8 359.8 571.5C 359 571.2 358.1 571.2 357.7 571.6z"/>
<path style="stroke:none; fill:#000000" d="M 122.5 592C 80.7 592.5 78.5 592.6 78.2 594.4C 78 595.4 78.2 596.6 78.7 597.1C 79.9 598.3 210.1 598.3 211.3 597.1C 211.8 596.6 212 595.4 211.8 594.4C 211.5 592.6 209.9 592.5 189 592C 176.6 591.7 146.7 591.7 122.5 592z"/>
<path style="stroke:none; fill:#000000" d="M 474.8 609.7C 479.4 609.9 486.6 609.9 490.8 609.7C 495 609.6 491.3 609.4 482.5 609.4C 473.7 609.4 470.2 609.6 474.8 609.7z"/>
</g>
</g>
</svg>